{
.appVersion = "3251";
.formatVersion = 3;
axes = (
{
name = Weight;
tag = wght;
},
{
name = Width;
tag = wdth;
}
);
classes = (
{
automatic = 1;

glyphs = (
{
color = 4;
glyphname = A;
kernLeft = A;
kernRight = A;
layers = (
{
anchors = (
{
name = bottom;
pos = (542,0);
},
{
name = ogonek;
pos = (1023,9);
},
{
name = top;
pos = (556,1284);
}
);
background = {
anchors = (
{
name = bottom;
pos = (542,30);
},
{
name = ogonek;
pos = (979,9);
},
{
name = top;
pos = (542,1284);
},
{
name = top_case;
pos = (556,1284);
}
);
shapes = (
{
closed = 1;
nodes = (
(190,-13,l),
(310,367,l),
(251,320,l),
(844,320,l),
(786,367,l),
(902,-13,l),
(1023,9,l),
(644,1284,l),
(457,1284,l),
(60,9,l)
);
},
{
closed = 1;
nodes = (
(559,1217,l),
(533,1217,l),
(778,377,l),
(810,421,l),
(274,421,l),
(306,377,l)
);
}
);
};
guides = (
{
angle = 190.3048;
pos = (968,-2);
},
{
angle = -9.6052;
pos = (130,-2);
}
);
layerId = "1D628CB9-BBF5-410A-9D74-9E6094BFE839";
shapes = (
{
closed = 1;
nodes = (
(190,-13,l),
(310,367,l),
(251,320,l),
(844,320,l),
(786,367,l),
(902,-13,l),
(1023,9,l),
(644,1284,l),
(457,1284,l),
(60,9,l)
);
},
{
closed = 1;
nodes = (
(559,1217,l),
(533,1217,l),
(778,377,l),
(810,421,l),
(274,421,l),
(306,377,l)
);
}
);
width = 1083;
},
{
anchors = (
{
name = bottom;
pos = (605,0);
},
{
name = ogonek;
pos = (1194,25);
},
{
name = top;
pos = (608,1284);
}
);
background = {
anchors = (
{
name = bottom;
pos = (605,-50);
},
{
name = ogonek;
pos = (1066,30);
},
{
name = top;
pos = (604,1336);
},
{
name = top_case;
pos = (613,1336);
}
);
shapes = (
{
closed = 1;
nodes = (
(321,-25,l),
(419,335,l),
(275,219,l),
(928,219,l),
(785,344,l),
(886,-25,l),
(1188,25,l),
(799,1284,l),
(411,1284,l),
(19,25,l)
);
},
{
closed = 1;
nodes = (
(632,1047,l),
(577,1047,l),
(775,377,l),
(879,489,l),
(323,489,l),
(432,377,l)
);
}
);
};
guides = (
{
angle = 170.5377;
pos = (272,-17);
},
{
pos = (-3,25);
},
{
pos = (-6,-30);
},
{
angle = 9.4623;
pos = (936,-17);
},
{
angle = 73.3155;
pos = (472,512);
},
{
angle = 106.5863;
pos = (737,512);
}
);
layerId = "D42B5605-DB46-4B3B-8EA0-4CE7066523CE";
shapes = (
{
closed = 1;
nodes = (
(321,-25,l),
(419,335,l),
(275,219,l),
(928,219,l),
(785,344,l),
(886,-25,l),
(1194,25,l),
(805,1284,l),
(411,1284,l),
(19,25,l)
);
},
{
closed = 1;
nodes = (
(632,1047,l),
(577,1047,l),
(775,377,l),
(879,489,l),
(323,489,l),
(432,377,l)
);
}
);
width = 1207;
}
);
unicode = 65;
},
{
color = 4;
glyphname = AE;
kernLeft = AE;
kernRight = E;
layers = (
{
anchors = (
{
name = bottom;
pos = (784,0);
},
{
name = top;
pos = (784,1284);
}
);
background = {
anchors = (
{
name = bottom;
pos = (720,0);
},
{
name = top_case;
pos = (986,1284);
}
);
shapes = (
{
closed = 1;
nodes = (
(1409,0,l),
(1393,106,l),
(803,106,l),
(848,56,l),
(848,671,l),
(803,620,l),
(1349,620,l),
(1349,726,l),
(803,726,l),
(848,677,l),
(848,1228,l),
(803,1178,l),
(1383,1178,l),
(1405,1284,l),
(720,1284,l),
(720,0,l)
);
}
);
};
guides = (
{
angle = -9.6052;
pos = (75,-2);
},
{
pos = (158,9);
},
{
angle = 244.0891;
pos = (429,585);
}
);
layerId = "1D628CB9-BBF5-410A-9D74-9E6094BFE839";
shapes = (
{
closed = 1;
nodes = (
(138,-14,l),
(324,369,l),
(258,320,l),
(720,320,l),
(720,0,l),
(1329,0,l),
(1313,106,l),
(848,106,l),
(848,621,l),
(1269,621,l),
(1269,727,l),
(848,727,l),
(848,1178,l),
(1303,1178,l),
(1325,1284,l),
(647,1284,l),
(9,8,l)
);
},
{
closed = 1;
nodes = (
(720,1184,l),
(720,421,l),
(302,421,l),
(329,379,l)
);
}
);
width = 1387;
},
{
anchors = (
{
name = bottom;
pos = (1000,0);
},
{
name = top;
pos = (1059,1284);
}
);
background = {
shapes = (
{
closed = 1;
nodes = (
(1670,0,l),
(1647,280,l),
(1014,280,l),
(1169,56,l),
(1169,638,l),
(1014,530,l),
(1610,530,l),
(1610,810,l),
(1014,810,l),
(1169,684,l),
(1169,1228,l),
(1014,1004,l),
(1631,1004,l),
(1666,1284,l),
(831,1284,l),
(831,0,l)
);
}
);
};
guides = (
{
angle = 66.8122;
pos = (362,642);
},
{
angle = 66.8122;
pos = (664,653);
},
{
pos = (-255,489);
}
);
layerId = "D42B5605-DB46-4B3B-8EA0-4CE7066523CE";
shapes = (
{
closed = 1;
nodes = (
(372,-28,l),
(496,260,l),
(429,219,l),
(831,219,l),
(831,0,l),
(1610,0,l),
(1587,280,l),
(1169,280,l),
(1169,530,l),
(1550,530,l),
(1550,810,l),
(1169,810,l),
(1169,1004,l),
(1571,1004,l),
(1606,1284,l),
(587,1284,l),
(16,20,l)
);
},
{
closed = 1;
nodes = (
(831,1043,l),
(831,489,l),
(545,489,l),
(576,448,l)
);
}
);
width = 1671;
}
);
metricRight = "=E";
unicode = 198;
},
{
color = 4;
glyphname = B;
kernLeft = StraightUPPER;
kernRight = B;
layers = (
{
anchors = (
{
name = bottom;
pos = (495,0);
},
{
name = top;
pos = (495,1284);
}
);
background = {
anchors = (
{
name = bottom;
pos = (495,0);
},
{
name = top_case;
pos = (495,1284);
}
);
shapes = (
{
closed = 1;
nodes = (
(478,0,ls),
(791,0,o),
(960,65,o),
(960,377,cs),
(960,556,o),
(863,650,o),
(720,683,c),
(863,718,o),
(914,810,o),
(914,971,cs),
(914,1217,o),
(775,1284,o),
(481,1284,cs),
(160,1284,l),
(160,0,l)
);
},
{
closed = 1;
nodes = (
(288,665,l),
(233,626,l),
(522,626,ls),
(723,626,o),
(832,555,o),
(832,375,cs),
(832,139,o),
(705,101,o),
(485,101,cs),
(233,101,l),
(288,46,l)
);
},
{
closed = 1;
nodes = (
(288,1238,l),
(233,1183,l),
(505,1183,ls),
(709,1183,o),
(786,1127,o),
(786,971,cs),
(786,781,o),
(711,727,o),
(521,727,cs),
(233,727,l),
(288,687,l)
);
}
);
};
layerId = "1D628CB9-BBF5-410A-9D74-9E6094BFE839";
shapes = (
{
closed = 1;
nodes = (
(478,0,ls),
(833,0,o),
(960,97,o),
(960,367,cs),
(960,539,o),
(879,646,o),
(720,683,c),
(858,717,o),
(914,803,o),
(914,981,cs),
(914,1202,o),
(797,1284,o),
(481,1284,cs),
(160,1284,l),
(160,0,l)
);
},
{
closed = 1;
nodes = (
(288,665,l),
(233,626,l),
(522,626,ls),
(734,626,o),
(832,546,o),
(832,375,cs),
(832,160,o),
(744,101,o),
(485,101,cs),
(233,101,l),
(288,46,l)
);
},
{
closed = 1;
nodes = (
(288,1238,l),
(233,1183,l),
(505,1183,ls),
(712,1183,o),
(786,1125,o),
(786,961,cs),
(786,787,o),
(718,727,o),
(521,727,cs),
(233,727,l),
(288,687,l)
);
}
);
width = 1044;
},
{
anchors = (
{
name = bottom;
pos = (565,0);
},
{
name = top;
pos = (555,1284);
}
);
background = {
anchors = (
{
name = bottom;
pos = (565,0);
},
{
name = top_case;
pos = (555,1334);
}
);
shapes = (
{
closed = 1;
nodes = (
(568,0,ls),
(902,0,o),
(1090,91,o),
(1090,357,cs),
(1090,536,o),
(993,621,o),
(850,668,c),
(993,720,o),
(1043,807,o),
(1043,955,cs),
(1043,1201,o),
(868,1284,o),
(539,1284,cs),
(130,1284,l),
(130,0,l)
);
},
{
closed = 1;
nodes = (
(458,648,l),
(313,532,l),
(615,532,ls),
(707,532,o),
(762,494,o),
(762,391,cs),
(762,289,o),
(688,260,o),
(575,260,cs),
(313,260,l),
(458,46,l)
);
},
{
closed = 1;
nodes = (
(458,1238,l),
(313,1024,l),
(565,1024,ls),
(654,1024,o),
(715,995,o),
(715,908,cs),
(715,821,o),
(664,792,o),
(595,792,cs),
(313,792,l),
(458,694,l)
);
}
);
};
layerId = "D42B5605-DB46-4B3B-8EA0-4CE7066523CE";
shapes = (
{
closed = 1;
nodes = (
(573,0,ls),
(934,0,o),
(1095,110,o),
(1095,357,cs),
(1095,516,o),
(1019,614,o),
(855,668,c),
(992,718,o),
(1048,801,o),
(1048,955,cs),
(1048,1185,o),
(897,1284,o),
(544,1284,cs),
(130,1284,l),
(130,0,l)
);
},
{
closed = 1;
nodes = (
(468,648,l),
(313,532,l),
(615,532,ls),
(710,532,o),
(762,487,o),
(762,391,cs),
(762,300,o),
(710,260,o),
(615,260,cs),
(313,260,l),
(468,46,l)
);
},
{
closed = 1;
nodes = (
(468,1238,l),
(313,1024,l),
(590,1024,ls),
(671,1024,o),
(715,986,o),
(715,908,cs),
(715,831,o),
(671,792,o),
(590,792,cs),
(313,792,l),
(468,694,l)
);
}
);
width = 1150;
}
);
metricLeft = "=H";
unicode = 66;
},
{
color = 4;
glyphname = C;
kernLeft = RoundUPPER;
kernRight = C;
layers = (
{
anchors = (
{
name = bottom;
pos = (509,0);
},
{
name = cedilla;
pos = (580,0);
},
{
name = top;
pos = (594,1284);
}
);
background = {
shapes = (
{
closed = 1;
nodes = (
(929,-15,o),
(1016,236,o),
(1016,652,cs),
(1016,1069,o),
(917,1303,o),
(568,1303,cs),
(219,1303,o),
(120,1069,o),
(120,652,cs),
(120,236,o),
(207,-15,o),
(568,-15,cs)
);
},
{
closed = 1;
nodes = (
(318,91,o),
(248,268,o),
(248,649,cs),
(248,1034,o),
(321,1197,o),
(568,1197,cs),
(815,1197,o),
(888,1034,o),
(888,649,cs),
(888,268,o),
(818,91,o),
(568,91,cs)
);
}
);
};
guides = (
{
angle = 270;
pos = (577,639);
},
{
angle = 270;
pos = (898,639);
}
);
layerId = "1D628CB9-BBF5-410A-9D74-9E6094BFE839";
shapes = (
{
closed = 1;
nodes = (
(704,-10,o),
(808,8,o),
(925,64,c),
(885,161,l),
(782,112,o),
(695,96,o),
(608,96,cs),
(393,96,o),
(248,242,o),
(248,638,cs),
(248,1092,o),
(373,1195,o),
(599,1195,cs),
(681,1195,o),
(758,1175,o),
(812,1146,c),
(789,1202,l),
(789,949,l),
(898,959,l),
(898,1226,l),
(788,1280,o),
(687,1301,o),
(588,1301,cs),
(272,1301,o),
(120,1114,o),
(120,641,cs),
(120,179,o),
(321,-10,o),
(600,-10,cs)
);
}
);
width = 939;
},
{
anchors = (
{
name = bottom;
pos = (636,0);
},
{
name = cedilla;
pos = (617,0);
},
{
name = top;
pos = (631,1284);
}
);
background = {
anchors = (
{
name = bottom;
pos = (636,0);
},
{
name = cedilla;
pos = (617,-20);
},
{
name = top;
pos = (715,1334);
},
{
name = top_case;
pos = (631,1334);
}
);
shapes = (
{
closed = 1;
nodes = (
(961,-20,o),
(1143,147,o),
(1143,648,cs),
(1143,1150,o),
(949,1311,o),
(610,1311,cs),
(271,1311,o),
(77,1150,o),
(77,648,cs),
(77,147,o),
(259,-20,o),
(610,-20,cs)
);
},
{
closed = 1;
nodes = (
(460,267,o),
(405,351,o),
(405,645,cs),
(405,944,o),
(463,1024,o),
(610,1024,cs),
(757,1024,o),
(815,944,o),
(815,645,cs),
(815,351,o),
(760,267,o),
(610,267,cs)
);
}
);
};
guides = (
{
angle = 270;
pos = (630,639);
},
{
angle = 270;
pos = (1075,639);
}
);
layerId = "D42B5605-DB46-4B3B-8EA0-4CE7066523CE";
shapes = (
{
closed = 1;
nodes = (
(770,-22,o),
(913,16,o),
(1035,101,c),
(924,355,l),
(818,284,o),
(728,267,o),
(648,267,cs),
(478,267,o),
(415,351,o),
(415,637,cs),
(415,941,o),
(481,1021,o),
(623,1021,cs),
(719,1021,o),
(767,992,o),
(825,954,c),
(712,1212,l),
(712,796,l),
(998,824,l),
(998,1206,l),
(842,1288,o),
(738,1308,o),
(599,1308,cs),
(277,1308,o),
(77,1156,o),
(77,640,cs),
(77,133,o),
(310,-22,o),
(603,-22,cs)
);
}
);
width = 1105;
}
);
metricLeft = "=O";
unicode = 67;
},
{
color = 4;
glyphname = D;
kernLeft = StraightUPPER;
kernRight = RoundUPPER;
layers = (
{
anchors = (
{
name = bottom;
pos = (541,0);
},
{
name = center;
pos = (561,642);
},
{
name = top;
pos = (521,1284);
}
);
background = {
anchors = (
{
name = bottom;
pos = (541,0);
},
{
name = center;
pos = (561,642);
},
{
name = top_case;
pos = (521,1284);
}
);
shapes = (
{
closed = 1;
nodes = (
(444,0,ls),
(916,0,o),
(992,229,o),
(992,636,cs),
(992,1101,o),
(887,1284,o),
(433,1284,cs),
(160,1284,l),
(160,0,l)
);
},
{
closed = 1;
nodes = (
(288,1228,l),
(243,1183,l),
(433,1183,ls),
(808,1183,o),
(864,1030,o),
(864,636,cs),
(864,266,o),
(828,101,o),
(444,101,cs),
(243,101,l),
(288,56,l)
);
}
);
};
layerId = "1D628CB9-BBF5-410A-9D74-9E6094BFE839";
shapes = (
{
closed = 1;
nodes = (
(444,0,ls),
(916,0,o),
(992,229,o),
(992,636,cs),
(992,1101,o),
(887,1284,o),
(433,1284,cs),
(160,1284,l),
(160,0,l)
);
},
{
closed = 1;
nodes = (
(288,1228,l),
(243,1178,l),
(433,1178,ls),
(808,1178,o),
(864,1030,o),
(864,636,cs),
(864,266,o),
(828,106,o),
(444,106,cs),
(243,106,l),
(288,56,l)
);
}
);
width = 1112;
},
{
anchors = (
{
name = bottom;
pos = (626,0);
},
{
name = center;
pos = (611,642);
},
{
name = top;
pos = (626,1284);
}
);
background = {
anchors = (
{
name = bottom;
pos = (581,-50);
},
{
name = center;
pos = (611,642);
},
{
name = top_case;
pos = (551,1334);
}
);
shapes = (
{
closed = 1;
nodes = (
(514,0,ls),
(977,0,o),
(1122,191,o),
(1122,646,cs),
(1122,1101,o),
(977,1284,o),
(503,1284,cs),
(130,1284,l),
(130,0,l)
);
},
{
closed = 1;
nodes = (
(458,1228,l),
(213,999,l),
(503,999,ls),
(744,999,o),
(794,933,o),
(794,646,cs),
(794,359,o),
(745,285,o),
(514,285,cs),
(213,285,l),
(458,56,l)
);
}
);
};
layerId = "D42B5605-DB46-4B3B-8EA0-4CE7066523CE";
shapes = (
{
closed = 1;
nodes = (
(574,0,ls),
(937,0,o),
(1122,191,o),
(1122,646,cs),
(1122,1101,o),
(937,1284,o),
(563,1284,cs),
(130,1284,l),
(130,0,l)
);
},
{
closed = 1;
nodes = (
(468,1228,l),
(213,1004,l),
(553,1004,ls),
(704,1004,o),
(784,913,o),
(784,646,cs),
(784,379,o),
(705,280,o),
(564,280,cs),
(213,280,l),
(468,56,l)
);
}
);
width = 1199;
}
);
metricLeft = "=H";
metricRight = "=O";
unicode = 68;
},
{
glyphname = Dcroat;
kernLeft = ethcroat;
kernRight = RoundUPPER;
layers = (
{
background = {
shapes = (
{
closed = 1;
nodes = (
(437,0,ls),
(909,0,o),
(985,229,o),
(985,636,cs),
(985,1101,o),
(880,1284,o),
(426,1284,cs),
(153,1284,l),
(153,712,l),
(4,712,l),
(4,609,l),
(153,609,l),
(153,0,l)
);
},
{
closed = 1;
nodes = (
(281,609,l),
(484,609,l),
(484,712,l),
(281,712,l),
(281,1229,l),
(236,1184,l),
(426,1184,ls),
(801,1184,o),
(857,1030,o),
(857,636,cs),
(857,269,o),
(821,104,o),
(437,104,cs),
(236,104,l),
(281,59,l)
);
}
);
};
layerId = "1D628CB9-BBF5-410A-9D74-9E6094BFE839";
shapes = (
{
ref = Eth;
}
);
width = 1122;
},
{
background = {
shapes = (
{
closed = 1;
nodes = (
(557,0,ls),
(1020,0,o),
(1165,191,o),
(1165,646,cs),
(1165,1101,o),
(1020,1284,o),
(546,1284,cs),
(173,1284,l),
(173,742,l),
(42,742,l),
(42,577,l),
(173,577,l),
(173,0,l)
);
},
{
closed = 1;
nodes = (
(501,577,l),
(698,577,l),
(698,742,l),
(501,742,l),
(501,1228,l),
(256,999,l),
(546,999,ls),
(787,999,o),
(837,933,o),
(837,646,cs),
(837,359,o),
(788,285,o),
(557,285,cs),
(256,285,l),
(501,56,l)
);
}
);
};
layerId = "D42B5605-DB46-4B3B-8EA0-4CE7066523CE";
shapes = (
{
ref = Eth;
}
);
width = 1209;
}
);
unicode = 272;
},
{
color = 4;
glyphname = Eth;
kernLeft = ethcroat;
kernRight = RoundUPPER;
layers = (
{
background = {
shapes = (
{
closed = 1;
nodes = (
(454,0,ls),
(926,0,o),
(1002,229,o),
(1002,636,cs),
(1002,1101,o),
(897,1284,o),
(443,1284,cs),
(170,1284,l),
(170,0,l)
);
},
{
closed = 1;
nodes = (
(298,1228,l),
(253,1178,l),
(443,1178,ls),
(818,1178,o),
(874,1030,o),
(874,636,cs),
(874,266,o),
(838,106,o),
(454,106,cs),
(253,106,l),
(298,56,l)
);
}
);
};
layerId = "1D628CB9-BBF5-410A-9D74-9E6094BFE839";
shapes = (
{
closed = 1;
nodes = (
(454,0,ls),
(926,0,o),
(1002,229,o),
(1002,636,cs),
(1002,1101,o),
(897,1284,o),
(443,1284,cs),
(170,1284,l),
(170,712,l),
(21,712,l),
(21,609,l),
(170,609,l),
(170,0,l)
);
},
{
closed = 1;
nodes = (
(298,609,l),
(501,609,l),
(501,712,l),
(298,712,l),
(298,1229,l),
(253,1184,l),
(443,1184,ls),
(818,1184,o),
(874,1030,o),
(874,636,cs),
(874,269,o),
(838,104,o),
(454,104,cs),
(253,104,l),
(298,59,l)
);
}
);
width = 1122;
},
{
background = {
shapes = (
{
closed = 1;
nodes = (
(584,0,ls),
(947,0,o),
(1132,191,o),
(1132,646,cs),
(1132,1101,o),
(947,1284,o),
(573,1284,cs),
(140,1284,l),
(140,0,l)
);
},
{
closed = 1;
nodes = (
(478,1228,l),
(223,1004,l),
(563,1004,ls),
(714,1004,o),
(794,913,o),
(794,646,cs),
(794,379,o),
(715,280,o),
(574,280,cs),
(223,280,l),
(478,56,l)
);
}
);
};
layerId = "D42B5605-DB46-4B3B-8EA0-4CE7066523CE";
shapes = (
{
closed = 1;
nodes = (
(584,0,ls),
(947,0,o),
(1132,191,o),
(1132,646,cs),
(1132,1101,o),
(947,1284,o),
(573,1284,cs),
(140,1284,l),
(140,742,l),
(9,742,l),
(9,577,l),
(140,577,l),
(140,0,l)
);
},
{
closed = 1;
nodes = (
(478,577,l),
(668,577,l),
(668,742,l),
(478,742,l),
(478,1228,l),
(223,1004,l),
(563,1004,ls),
(714,1004,o),
(794,913,o),
(794,646,cs),
(794,379,o),
(715,280,o),
(574,280,cs),
(223,280,l),
(478,56,l)
);
}
);
width = 1209;
}
);
metricRight = O;
unicode = 208;
},
{
color = 4;
glyphname = E;
kernLeft = StraightUPPER;
kernRight = E;
layers = (
{
anchors = (
{
name = bottom;
pos = (505,0);
},
{
name = cedilla;
pos = (487,0);
},
{
name = ogonek;
pos = (799,0);
},
{
name = top;
pos = (513,1284);
}
);
background = {
anchors = (
{
name = bottom;
pos = (505,0);
},
{
name = cedilla;
pos = (487,0);
},
{
name = ogonek;
pos = (799,0);
},
{
name = top;
pos = (514,1284);
},
{
name = top_case;
pos = (513,1284);
}
);
shapes = (
{
closed = 1;
nodes = (
(849,0,l),
(833,101,l),
(243,101,l),
(288,56,l),
(288,671,l),
(243,622,l),
(789,622,l),
(789,723,l),
(243,723,l),
(288,677,l),
(288,1228,l),
(243,1183,l),
(823,1183,l),
(845,1284,l),
(160,1284,l),
(160,0,l)
);
}
);
};
layerId = "1D628CB9-BBF5-410A-9D74-9E6094BFE839";
shapes = (
{
closed = 1;
nodes = (
(849,0,l),
(833,106,l),
(243,106,l),
(288,56,l),
(288,671,l),
(243,620,l),
(789,620,l),
(789,726,l),
(243,726,l),
(288,677,l),
(288,1228,l),
(243,1178,l),
(823,1178,l),
(845,1284,l),
(160,1284,l),
(160,0,l)
);
}
);
width = 907;
},
{
anchors = (
{
name = bottom;
pos = (600,0);
},
{
name = cedilla;
pos = (544,0);
},
{
name = ogonek;
pos = (909,0);
},
{
name = top;
pos = (554,1284);
}
);
background = {
anchors = (
{
name = bottom;
pos = (564,-50);
},
{
name = cedilla;
pos = (544,0);
},
{
name = ogonek;
pos = (847,5);
},
{
name = top;
pos = (554,1337);
},
{
name = top_case;
pos = (554,1336);
}
);
shapes = (
{
closed = 1;
nodes = (
(969,0,l),
(946,295,l),
(313,295,l),
(458,56,l),
(458,638,l),
(313,521,l),
(909,521,l),
(909,796,l),
(313,796,l),
(458,684,l),
(458,1228,l),
(313,989,l),
(930,989,l),
(965,1284,l),
(130,1284,l),
(130,0,l)
);
}
);
};
guides = (
{
angle = 263.2847;
pos = (971,1319);
},
{
angle = 270;
pos = (554,0);
},
{
pos = (1390,-148);
}
);
layerId = "D42B5605-DB46-4B3B-8EA0-4CE7066523CE";
shapes = (
{
closed = 1;
nodes = (
(969,0,l),
(946,280,l),
(313,280,l),
(468,56,l),
(468,638,l),
(313,530,l),
(909,530,l),
(909,810,l),
(313,810,l),
(468,684,l),
(468,1228,l),
(313,1004,l),
(930,1004,l),
(965,1284,l),
(130,1284,l),
(130,0,l)
);
}
);
width = 1030;
}
);
metricLeft = "=H";
unicode = 69;
},
{
color = 4;
glyphname = Schwa;
kernLeft = RoundUPPER;
kernRight = RoundUPPER;
layers = (
{
background = {
shapes = (
{
closed = 1;
nodes = (
(419,1301,o),
(315,1283,o),
(198,1227,c),
(238,1130,l),
(341,1179,o),
(428,1195,o),
(515,1195,cs),
(730,1195,o),
(875,1049,o),
(875,653,cs),
(875,199,o),
(750,96,o),
(524,96,cs),
(442,96,o),
(365,116,o),
(311,145,c),
(334,89,l),
(334,342,l),
(225,332,l),
(225,65,l),
(335,11,o),
(436,-10,o),
(535,-10,cs),
(851,-10,o),
(1003,177,o),
(1003,650,cs),
(1003,1112,o),
(802,1301,o),
(523,1301,cs)
);
}
);
};
layerId = "1D628CB9-BBF5-410A-9D74-9E6094BFE839";
shapes = (
{
closed = 1;
nodes = (
(916,-15,o),
(1003,236,o),
(1003,652,cs),
(1003,1112,o),
(801,1301,o),
(523,1301,cs),
(389,1301,o),
(239,1264,o),
(124,1187,c),
(174,1096,l),
(298,1168,o),
(397,1195,o),
(515,1195,cs),
(730,1195,o),
(875,1049,o),
(876,639,c),
(920,684,l),
(128,684,l),
(123,625,o),
(120,569,o),
(120,517,cs),
(120,174,o),
(242,-15,o),
(555,-15,cs)
);
},
{
closed = 1;
nodes = (
(343,91,o),
(246,219,o),
(246,490,cs),
(246,538,o),
(249,591,o),
(255,649,c),
(183,578,l),
(920,578,l),
(875,631,l),
(875,268,o),
(805,91,o),
(555,91,cs)
);
}
);
width = 1123;
},
{
associatedMasterId = "1D628CB9-BBF5-410A-9D74-9E6094BFE839";
layerId = "43E52C2D-3EEE-49AE-BEA2-65001AC44158";
name = "Regular Jul 6 16, 10:41";
shapes = (
{
closed = 1;
nodes = (
(542,1200,cs),
(412,1200,o),
(298,1173,o),
(176,1096,c),
(126,1197,l),
(251,1274,o),
(409,1308,o),
(533,1308,cs),
(869,1308,o),
(1087,1120,o),
(1087,649,cs),
(1087,195,o),
(870,-10,o),
(566,-10,cs),
(276,-10,o),
(102,198,o),
(102,507,cs),
(102,547,o),
(106,607,o),
(112,684,c),
(920,684,l),
(915,1109,o),
(733,1200,o)
);
},
{
closed = 1;
nodes = (
(565,127,cs),
(791,127,o),
(900,296,o),
(920,566,c),
(258,566,l),
(258,501,ls),
(258,274,o),
(375,127,o)
);
}
);
width = 1203;
},
{
background = {
shapes = (
{
closed = 1;
nodes = (
(435,1311,o),
(292,1273,o),
(170,1188,c),
(281,934,l),
(387,1005,o),
(477,1022,o),
(557,1022,cs),
(727,1022,o),
(790,938,o),
(790,652,cs),
(790,345,o),
(724,265,o),
(582,265,cs),
(486,265,o),
(438,294,o),
(380,332,c),
(493,74,l),
(493,490,l),
(207,462,l),
(207,80,l),
(363,-2,o),
(467,-22,o),
(606,-22,cs),
(928,-22,o),
(1128,130,o),
(1128,649,cs),
(1128,1156,o),
(895,1311,o),
(602,1311,cs)
);
}
);
};
layerId = "D42B5605-DB46-4B3B-8EA0-4CE7066523CE";
shapes = (
{
closed = 1;
nodes = (
(947,-20,o),
(1129,187,o),
(1129,648,cs),
(1129,1156,o),
(895,1311,o),
(582,1311,cs),
(416,1311,o),
(232,1262,o),
(84,1159,c),
(212,910,l),
(305,973,o),
(423,1022,o),
(537,1022,cs),
(717,1022,o),
(789,938,o),
(789,690,c),
(918,759,l),
(83,759,l),
(79,707,o),
(77,657,o),
(77,610,cs),
(77,173,o),
(246,-20,o),
(596,-20,cs)
);
},
{
closed = 1;
nodes = (
(478,247,o),
(414,327,o),
(414,503,cs),
(414,537,o),
(416,574,o),
(421,615,c),
(278,489,l),
(918,489,l),
(791,560,l),
(801,351,o),
(739,247,o),
(596,247,cs)
);
}
);
width = 1206;
}
);
metricLeft = O;
metricRight = O;
unicode = 399;
userData = {
com.schriftgestaltung.Glyphs.leftMetricsKey = "=O";
com.schriftgestaltung.Glyphs.rightMetricsKey = "=O";
com.typemytype.robofont.layerData = {
"Regular Jul 6 16, 10:41" = {
anchors = (
);
components = (
);
contours = (
{
points = (
{
segmentType = curve;
smooth = 1;
x = 542;
y = 1200;
},
{
smooth = 0;
x = 412;
y = 1200;
},
{
smooth = 0;
x = 298;
y = 1173;
},
{
segmentType = curve;
smooth = 0;
x = 176;
y = 1096;
},
{
segmentType = line;
smooth = 0;
x = 126;
y = 1197;
},
{
smooth = 0;
x = 251;
y = 1274;
},
{
smooth = 0;
x = 409;
y = 1308;
},
{
segmentType = curve;
smooth = 1;
x = 533;
y = 1308;
},
{
smooth = 0;
x = 869;
y = 1308;
},
{
smooth = 0;
x = 1087;
y = 1120;
},
{
segmentType = curve;
smooth = 1;
x = 1087;
y = 649;
},
{
smooth = 0;
x = 1087;
y = 195;
},
{
smooth = 0;
x = 870;
y = -10;
},
{
segmentType = curve;
smooth = 1;
x = 566;
y = -10;
},
{
smooth = 0;
x = 276;
y = -10;
},
{
smooth = 0;
x = 102;
y = 198;
},
{
segmentType = curve;
smooth = 1;
x = 102;
y = 507;
},
{
smooth = 0;
x = 102;
y = 547;
},
{
smooth = 0;
x = 106;
y = 607;
},
{
segmentType = curve;
smooth = 0;
x = 112;
y = 684;
},
{
segmentType = line;
smooth = 0;
x = 920;
y = 684;
},
{
smooth = 0;
x = 915;
y = 1109;
},
{
smooth = 0;
x = 733;
y = 1200;
}
);
},
{
points = (
{
segmentType = curve;
smooth = 1;
x = 565;
y = 127;
},
{
smooth = 0;
x = 791;
y = 127;
},
{
smooth = 0;
x = 900;
y = 296;
},
{
segmentType = curve;
smooth = 0;
x = 920;
y = 566;
},
{
segmentType = line;
smooth = 0;
x = 258;
y = 566;
},
{
segmentType = line;
smooth = 1;
x = 258;
y = 501;
},
{
smooth = 0;
x = 258;
y = 274;
},
{
smooth = 0;
x = 375;
y = 127;
}
);
}
);
lib = {
};
name = Schwa;
unicodes = (
);
width = 1203;
};
};
};
},
{
color = 4;
glyphname = F;
kernLeft = StraightUPPER;
kernRight = F;
layers = (
{
anchors = (
{
name = bottom;
pos = (510,0);
},
{
name = top;
pos = (510,1284);
}
);
background = {
anchors = (
{
name = bottom;
pos = (430,0);
},
{
name = top_case;
pos = (510,1284);
}
);
shapes = (
{
closed = 1;
nodes = (
(288,0,l),
(288,648,l),
(243,603,l),
(744,603,l),
(744,699,l),
(243,699,l),
(288,654,l),
(288,1228,l),
(243,1183,l),
(808,1183,l),
(830,1284,l),
(160,1284,l),
(160,0,l)
);
}
);
};
guides = (
{
angle = 77.7751;
pos = (829,1172);
}
);
layerId = "1D628CB9-BBF5-410A-9D74-9E6094BFE839";
shapes = (
{
closed = 1;
nodes = (
(288,0,l),
(288,629,l),
(243,579,l),
(744,579,l),
(744,685,l),
(243,685,l),
(288,635,l),
(288,1228,l),
(243,1178,l),
(808,1178,l),
(830,1284,l),
(160,1284,l),
(160,0,l)
);
}
);
width = 857;
},
{
anchors = (
{
name = bottom;
pos = (578,0);
},
{
name = top;
pos = (578,1284);
}
);
background = {
anchors = (
{
name = bottom;
pos = (677,0);
},
{
name = top_case;
pos = (578,1334);
}
);
shapes = (
{
closed = 1;
nodes = (
(458,0,l),
(458,612,l),
(313,478,l),
(891,478,l),
(891,753,l),
(313,753,l),
(458,618,l),
(458,1228,l),
(313,989,l),
(942,989,l),
(977,1284,l),
(130,1284,l),
(130,0,l)
);
}
);
};
guides = (
{
angle = 263.2847;
pos = (981,1319);
}
);
layerId = "D42B5605-DB46-4B3B-8EA0-4CE7066523CE";
shapes = (
{
closed = 1;
nodes = (
(468,0,l),
(468,612,l),
(313,490,l),
(865,490,l),
(865,770,l),
(313,770,l),
(468,618,l),
(468,1228,l),
(313,1004,l),
(916,1004,l),
(951,1284,l),
(130,1284,l),
(130,0,l)
);
}
);
width = 988;
}
);
metricLeft = "=H";
unicode = 70;
},
{
color = 4;
glyphname = G;
kernLeft = RoundUPPER;
kernRight = G;
layers = (
{
anchors = (
{
name = bottom;
pos = (589,0);
},
{
name = top;
pos = (583,1284);
}
);
background = {
anchors = (
{
name = bottom;
pos = (589,0);
},
{
name = top_case;
pos = (583,1284);
}
);
shapes = (
{
closed = 1;
nodes = (
(704,-10,o),
(808,8,o),
(925,64,c),
(885,161,l),
(782,112,o),
(695,96,o),
(608,96,cs),
(393,96,o),
(248,242,o),
(248,638,cs),
(248,1092,o),
(373,1195,o),
(599,1195,cs),
(681,1195,o),
(758,1175,o),
(812,1146,c),
(789,1202,l),
(789,949,l),
(898,959,l),
(898,1226,l),
(788,1280,o),
(687,1301,o),
(588,1301,cs),
(272,1301,o),
(120,1114,o),
(120,641,cs),
(120,179,o),
(321,-10,o),
(600,-10,cs)
);
}
);
};
guides = (
{
angle = 270;
pos = (585,639);
}
);
layerId = "1D628CB9-BBF5-410A-9D74-9E6094BFE839";
shapes = (
{
closed = 1;
nodes = (
(794,-10,o),
(911,52,o),
(974,89,c),
(974,665,l),
(622,665,l),
(622,559,l),
(903,559,l),
(853,614,l),
(853,100,l),
(885,161,l),
(782,112,o),
(695,96,o),
(608,96,cs),
(393,96,o),
(248,242,o),
(248,638,cs),
(248,1092,o),
(371,1195,o),
(620,1195,cs),
(701,1195,o),
(803,1176,o),
(850,1147,c),
(830,1202,l),
(830,944,l),
(939,954,l),
(939,1226,l),
(829,1280,o),
(708,1301,o),
(609,1301,cs),
(272,1301,o),
(120,1114,o),
(120,641,cs),
(120,179,o),
(321,-10,o),
(600,-10,cs)
);
}
);
width = 1116;
},
{
anchors = (
{
name = bottom;
pos = (643,0);
},
{
name = top;
pos = (645,1284);
}
);
background = {
anchors = (
{
name = bottom;
pos = (685,-50);
},
{
name = top_case;
pos = (649,1334);
}
);
shapes = (
{
closed = 1;
nodes = (
(2339,-40,o),
(2517,-4,o),
(2660,62,c),
(2660,685,l),
(2163,685,l),
(2163,420,l),
(2489,420,l),
(2352,534,l),
(2352,65,l),
(2533,338,l),
(2377,272,o),
(2278,245,o),
(2185,245,cs),
(2011,245,o),
(1905,337,o),
(1905,638,cs),
(1905,982,o),
(1983,1046,o),
(2126,1046,cs),
(2260,1046,o),
(2332,1015,o),
(2389,986,c),
(2325,1232,l),
(2325,828,l),
(2625,858,l),
(2625,1226,l),
(2445,1310,o),
(2307,1331,o),
(2135,1331,cs),
(1779,1331,o),
(1577,1174,o),
(1577,641,cs),
(1577,119,o),
(1819,-40,o),
(2147,-40,cs)
);
},
{
closed = 1;
nodes = (
(770,-22,o),
(913,16,o),
(1035,101,c),
(924,355,l),
(818,284,o),
(728,267,o),
(648,267,cs),
(478,267,o),
(415,351,o),
(415,637,cs),
(415,944,o),
(481,1024,o),
(623,1024,cs),
(719,1024,o),
(767,995,o),
(825,957,c),
(712,1215,l),
(712,799,l),
(998,827,l),
(998,1209,l),
(842,1291,o),
(738,1311,o),
(599,1311,cs),
(277,1311,o),
(77,1159,o),
(77,640,cs),
(77,133,o),
(310,-22,o),
(603,-22,cs)
);
}
);
};
guides = (
{
angle = 270;
pos = (630,1539);
},
{
pos = (917,665);
}
);
layerId = "D42B5605-DB46-4B3B-8EA0-4CE7066523CE";
shapes = (
{
closed = 1;
nodes = (
(800,-22,o),
(980,31,o),
(1082,111,c),
(1082,700,l),
(633,700,l),
(633,430,l),
(989,430,l),
(786,534,l),
(786,209,l),
(924,355,l),
(818,284,o),
(738,267,o),
(658,267,cs),
(488,267,o),
(415,351,o),
(415,637,cs),
(415,944,o),
(491,1024,o),
(653,1024,cs),
(749,1024,o),
(818,996,o),
(875,967,c),
(759,1212,l),
(759,830,l),
(1045,858,l),
(1045,1206,l),
(898,1290,o),
(777,1311,o),
(647,1311,cs),
(293,1311,o),
(77,1159,o),
(77,640,cs),
(77,133,o),
(320,-22,o),
(643,-22,cs)
);
}
);
width = 1202;
}
);
metricLeft = "=O";
unicode = 71;
},
{
color = 4;
glyphname = H;
kernLeft = StraightUPPER;
kernRight = StraightUPPER;
layers = (
{
anchors = (
{
name = bottom;
pos = (578,0);
},
{
name = center;
pos = (578,995);
},
{
name = top;
pos = (578,1284);
}
);
background = {
anchors = (
{
name = bottom;
pos = (578,0);
},
{
name = center;
pos = (578,642);
},
{
name = top_case;
pos = (578,1284);
}
);
shapes = (
{
closed = 1;
nodes = (
(288,0,l),
(288,647,l),
(243,602,l),
(913,602,l),
(868,647,l),
(868,0,l),
(996,0,l),
(996,1284,l),
(868,1284,l),
(868,658,l),
(913,703,l),
(243,703,l),
(288,658,l),
(288,1284,l),
(160,1284,l),
(160,0,l)
);
}
);
};
layerId = "1D628CB9-BBF5-410A-9D74-9E6094BFE839";
shapes = (
{
closed = 1;
nodes = (
(288,0,l),
(288,668,l),
(243,620,l),
(913,620,l),
(868,668,l),
(868,0,l),
(996,0,l),
(996,1284,l),
(868,1284,l),
(868,679,l),
(913,726,l),
(243,726,l),
(288,679,l),
(288,1284,l),
(160,1284,l),
(160,0,l)
);
}
);
width = 1156;
},
{
anchors = (
{
name = bottom;
pos = (663,0);
},
{
name = center;
pos = (663,1049);
},
{
name = top;
pos = (663,1284);
}
);
background = {
anchors = (
{
name = bottom;
pos = (658,-50);
},
{
name = center;
pos = (658,642);
},
{
name = top_case;
pos = (658,1334);
}
);
shapes = (
{
closed = 1;
nodes = (
(468,0,l),
(468,637,l),
(323,510,l),
(1013,510,l),
(868,637,l),
(868,0,l),
(1196,0,l),
(1196,1284,l),
(868,1284,l),
(868,668,l),
(1013,795,l),
(323,795,l),
(468,668,l),
(468,1284,l),
(140,1284,l),
(140,0,l)
);
}
);
};
layerId = "D42B5605-DB46-4B3B-8EA0-4CE7066523CE";
shapes = (
{
closed = 1;
nodes = (
(468,0,l),
(468,654,l),
(323,530,l),
(1003,530,l),
(858,654,l),
(858,0,l),
(1196,0,l),
(1196,1284,l),
(858,1284,l),
(858,685,l),
(1003,810,l),
(323,810,l),
(468,685,l),
(468,1284,l),
(130,1284,l),
(130,0,l)
);
}
);
width = 1326;
}
);
metricRight = "=|";
unicode = 72;
userData = {
com.fontlab.hintData = {
hhints = (
{
position = 0;
width = 21;
},
{
position = 602;
width = 101;
},
{
position = 1264;
width = 20;
}
);
vhints = (
{
position = 149;
width = 128;
},
{
position = 857;
width = 128;
}
);
};
};
},
{
color = 4;
glyphname = Hbar;
kernLeft = StraightUPPER;
kernRight = StraightUPPER;
layers = (
{
background = {
shapes = (
{
closed = 1;
nodes = (
(1118,955,l),
(1118,1045,l),
(58,1045,l),
(58,955,l)
);
},
{
closed = 1;
nodes = (
(298,0,l),
(298,668,l),
(253,620,l),
(923,620,l),
(878,668,l),
(878,0,l),
(1006,0,l),
(1006,1284,l),
(878,1284,l),
(878,679,l),
(923,726,l),
(253,726,l),
(298,679,l),
(298,1284,l),
(170,1284,l),
(170,0,l)
);
}
);
};
layerId = "1D628CB9-BBF5-410A-9D74-9E6094BFE839";
shapes = (
{
closed = 1;
nodes = (
(170,955,l),
(170,0,l),
(298,0,l),
(298,620,l),
(878,620,l),
(878,0,l),
(1006,0,l),
(1006,955,l),
(1118,955,l),
(1118,1045,l),
(1006,1045,l),
(1006,1284,l),
(878,1284,l),
(878,1045,l),
(298,1045,l),
(298,1284,l),
(170,1284,l),
(170,1045,l),
(58,1045,l),
(58,955,l)
);
},
{
closed = 1;
nodes = (
(298,955,l),
(878,955,l),
(878,726,l),
(298,726,l)
);
}
);
width = 1176;
},
{
background = {
shapes = (
{
closed = 1;
nodes = (
(1338,970,l),
(1338,1130,l),
(8,1130,l),
(8,970,l)
);
},
{
closed = 1;
nodes = (
(478,0,l),
(478,654,l),
(333,530,l),
(1013,530,l),
(868,654,l),
(868,0,l),
(1206,0,l),
(1206,1284,l),
(868,1284,l),
(868,685,l),
(1013,810,l),
(333,810,l),
(478,685,l),
(478,1284,l),
(140,1284,l),
(140,0,l)
);
}
);
};
guides = (
{
pos = (745,799);
},
{
pos = (714,514);
}
);
layerId = "D42B5605-DB46-4B3B-8EA0-4CE7066523CE";
shapes = (
{
closed = 1;
nodes = (
(140,970,l),
(140,0,l),
(478,0,l),
(478,530,l),
(868,530,l),
(868,0,l),
(1206,0,l),
(1206,970,l),
(1338,970,l),
(1338,1130,l),
(1206,1130,l),
(1206,1284,l),
(868,1284,l),
(868,1130,l),
(478,1130,l),
(478,1284,l),
(140,1284,l),
(140,1130,l),
(8,1130,l),
(8,970,l)
);
},
{
closed = 1;
nodes = (
(478,970,l),
(868,970,l),
(868,810,l),
(478,810,l)
);
}
);
width = 1346;
}
);
unicode = 294;
},
{
color = 4;
glyphname = I;
kernLeft = I;
kernRight = I;
layers = (
{
anchors = (
{
name = bottom;
pos = (362,0);
},
{
name = ogonek;
pos = (459,0);
},
{
name = top;
pos = (365,1284);
}
);
background = {
anchors = (
{
name = bottom;
pos = (362,0);
},
{
name = ogonek;
pos = (371,0);
},
{
name = top;
pos = (365,1284);
},
{
name = top_case;
pos = (365,1284);
}
);
shapes = (
{
closed = 1;
nodes = (
(617,0,l),
(617,106,l),
(384,106,l),
(429,61,l),
(429,1223,l),
(384,1178,l),
(613,1178,l),
(613,1284,l),
(107,1284,l),
(107,1178,l),
(346,1178,l),
(301,1223,l),
(301,61,l),
(346,106,l),
(107,106,l),
(107,0,l)
);
}
);
};
layerId = "1D628CB9-BBF5-410A-9D74-9E6094BFE839";
shapes = (
{
closed = 1;
nodes = (
(623,0,l),
(623,106,l),
(384,106,l),
(429,61,l),
(429,1223,l),
(384,1178,l),
(623,1178,l),
(623,1284,l),
(107,1284,l),
(107,1178,l),
(346,1178,l),
(301,1223,l),
(301,61,l),
(346,106,l),
(107,106,l),
(107,0,l)
);
}
);
width = 730;
},
{
anchors = (
{
name = bottom;
pos = (468,0);
},
{
name = ogonek;
pos = (637,0);
},
{
name = top;
pos = (468,1284);
}
);
background = {
anchors = (
{
name = bottom;
pos = (460,-50);
},
{
name = ogonek;
pos = (479,6);
},
{
name = top;
pos = (464,1336);
},
{
name = top_case;
pos = (463,1336);
}
);
shapes = (
{
closed = 1;
nodes = (
(845,0,l),
(845,285,l),
(482,285,l),
(627,61,l),
(627,1223,l),
(482,999,l),
(841,999,l),
(841,1284,l),
(75,1284,l),
(75,999,l),
(444,999,l),
(299,1223,l),
(299,61,l),
(444,285,l),
(75,285,l),
(75,0,l)
);
}
);
};
guides = (
{
angle = 270;
pos = (463,916);
}
);
layerId = "D42B5605-DB46-4B3B-8EA0-4CE7066523CE";
shapes = (
{
closed = 1;
nodes = (
(861,0,l),
(861,280,l),
(482,280,l),
(637,161,l),
(637,1123,l),
(482,1004,l),
(861,1004,l),
(861,1284,l),
(75,1284,l),
(75,1004,l),
(444,1004,l),
(299,1123,l),
(299,161,l),
(444,280,l),
(75,280,l),
(75,0,l)
);
}
);
width = 936;
}
);
metricRight = "=|";
unicode = 73;
},
{
color = 4;
glyphname = J;
kernLeft = J;
kernRight = StraightUPPER;
layers = (
{
anchors = (
{
name = top;
pos = (268,1284);
}
);
background = {
anchors = (
{
name = bottom;
pos = (290,0);
},
{
name = top_case;
pos = (290,1284);
}
);
shapes = (
{
closed = 1;
nodes = (
(363,-232,o),
(462,-155,o),
(462,91,cs),
(462,1284,l),
(73,1284,l),
(73,1183,l),
(379,1183,l),
(334,1228,l),
(334,91,ls),
(334,-62,o),
(295,-126,o),
(182,-126,cs),
(135,-126,o),
(78,-115,o),
(30,-98,c),
(15,-200,l),
(70,-221,o),
(134,-232,o),
(191,-232,cs)
);
}
);
};
guides = (
{
angle = 270;
pos = (73,727);
}
);
layerId = "1D628CB9-BBF5-410A-9D74-9E6094BFE839";
shapes = (
{
closed = 1;
nodes = (
(363,-15,o),
(462,62,o),
(462,308,cs),
(462,1284,l),
(73,1284,l),
(73,1178,l),
(379,1178,l),
(334,1228,l),
(334,308,ls),
(334,155,o),
(295,91,o),
(182,91,cs),
(135,91,o),
(81,104,o),
(38,122,c),
(15,21,l),
(70,-2,o),
(134,-15,o),
(191,-15,cs)
);
}
);
width = 622;
},
{
anchors = (
{
name = top;
pos = (410,1284);
}
);
background = {
anchors = (
{
name = bottom;
pos = (258,0);
},
{
name = top_case;
pos = (436,1334);
}
);
shapes = (
{
closed = 1;
nodes = (
(481,-340,o),
(719,-248,o),
(719,121,cs),
(719,1284,l),
(101,1284,l),
(101,999,l),
(536,999,l),
(391,1228,l),
(391,117,ls),
(391,-26,o),
(320,-55,o),
(257,-55,cs),
(214,-55,o),
(133,-46,o),
(60,-26,c),
(21,-295,l),
(115,-326,o),
(231,-340,o),
(301,-340,cs)
);
}
);
};
layerId = "D42B5605-DB46-4B3B-8EA0-4CE7066523CE";
shapes = (
{
closed = 1;
nodes = (
(481,-15,o),
(719,77,o),
(719,446,cs),
(719,1284,l),
(101,1284,l),
(101,1004,l),
(436,1004,l),
(381,1090,l),
(381,442,ls),
(381,299,o),
(310,270,o),
(247,270,cs),
(204,270,o),
(143,279,o),
(80,299,c),
(21,34,l),
(95,-1,o),
(211,-15,o),
(301,-15,cs)
);
}
);
width = 849;
}
);
unicode = 74;
},
{
color = 3;
glyphname = K;
kernLeft = StraightUPPER;
kernRight = K;
layers = (
{
anchors = (
{
name = bottom;
pos = (527,0);
},
{
name = top;
pos = (527,1284);
}
);
background = {
anchors = (
{
name = bottom;
pos = (527,0);
},
{
name = top;
pos = (527,1284);
}
);
shapes = (
{
closed = 1;
nodes = (
(288,0,l),
(288,525,l),
(256,449,l),
(496,683,l),
(450,676,l),
(576,453,o),
(725,211,o),
(874,-14,c),
(1004,9,l),
(845,248,o),
(690,497,o),
(546,748,c),
(534,685,l),
(980,1277,l),
(845,1296,l),
(443,778,l),
(258,576,l),
(288,564,l),
(288,1284,l),
(160,1284,l),
(160,0,l)
);
}
);
};
guides = (
{
pos = (824,9);
},
{
angle = 190.3049;
pos = (939,-2);
}
);
layerId = "1D628CB9-BBF5-410A-9D74-9E6094BFE839";
shapes = (
{
closed = 1;
nodes = (
(288,0,l),
(288,525,l),
(256,449,l),
(496,683,l),
(450,676,l),
(576,453,o),
(725,211,o),
(874,-14,c),
(1004,9,l),
(845,248,o),
(690,497,o),
(546,748,c),
(534,685,l),
(980,1277,l),
(845,1296,l),
(443,778,l),
(258,576,l),
(288,564,l),
(288,1284,l),
(160,1284,l),
(160,0,l)
);
}
);
width = 1054;
},
{
anchors = (
{
name = bottom;
pos = (634,0);
},
{
name = top;
pos = (647,1284);
}
);
background = {
anchors = (
{
name = bottom;
pos = (634,-50);
},
{
name = top;
pos = (647,1286);
}
);
shapes = (
{
closed = 1;
nodes = (
(458,0,l),
(458,505,l),
(371,347,l),
(616,541,l),
(540,564,l),
(657,352,o),
(756,196,o),
(897,-30,c),
(1249,24,l),
(1067,306,o),
(938,501,o),
(776,776,c),
(775,632,l),
(1200,1252,l),
(854,1308,l),
(544,863,l),
(342,643,l),
(458,634,l),
(458,1284,l),
(130,1284,l),
(130,0,l)
);
}
);
};
layerId = "D42B5605-DB46-4B3B-8EA0-4CE7066523CE";
shapes = (
{
closed = 1;
nodes = (
(468,0,l),
(468,505,l),
(381,347,l),
(626,541,l),
(540,564,l),
(657,352,o),
(756,196,o),
(897,-30,c),
(1259,24,l),
(1077,306,o),
(944,501,o),
(786,776,c),
(785,632,l),
(1210,1252,l),
(854,1308,l),
(544,863,l),
(342,643,l),
(468,634,l),
(468,1284,l),
(130,1284,l),
(130,0,l)
);
}
);
width = 1257;
}
);
metricLeft = "=H";
unicode = 75;
userData = {
com.fontlab.hintData = {
hhints = (
{
position = 0;
width = 21;
},
{
position = 1264;
width = 20;
}
);
vhints = (
{
position = 149;
width = 128;
}
);
};
};
},
{
color = 4;
glyphname = L;
kernLeft = StraightUPPER;
kernRight = L;
layers = (
{
anchors = (
{
name = bottom;
pos = (479,0);
},
{
name = center;
pos = (705,675);
},
{
name = top;
pos = (224,1284);
},
{
name = topright;
pos = (568,1284);
}
);
background = {
anchors = (
{
name = bottom;
pos = (479,0);
},
{
name = center;
pos = (727,675);
},
{
name = top_case;
pos = (404,1284);
},
{
name = topright;
pos = (568,1284);
}
);
shapes = (
{
closed = 1;
nodes = (
(797,0,l),
(780,101,l),
(243,101,l),
(288,56,l),
(288,1284,l),
(160,1284,l),
(160,0,l)
);
}
);
};
guides = (
{
angle = -80.5924;
pos = (793,162);
}
);
layerId = "1D628CB9-BBF5-410A-9D74-9E6094BFE839";
shapes = (
{
closed = 1;
nodes = (
(797,0,l),
(780,106,l),
(243,106,l),
(288,56,l),
(288,1284,l),
(160,1284,l),
(160,0,l)
);
}
);
width = 831;
},
{
anchors = (
{
name = bottom;
pos = (551,-50);
},
{
name = center;
pos = (789,695);
},
{
name = top;
pos = (299,1284);
},
{
name = topright;
pos = (628,1284);
}
);
background = {
anchors = (
{
name = bottom;
pos = (551,-50);
},
{
name = center;
pos = (732,695);
},
{
name = top_case;
pos = (404,1324);
},
{
name = topright;
pos = (708,1284);
}
);
shapes = (
{
closed = 1;
nodes = (
(979,0,l),
(944,285,l),
(313,285,l),
(458,56,l),
(458,1284,l),
(130,1284,l),
(130,0,l)
);
}
);
};
guides = (
{
angle = -83.2847;
pos = (824,1319);
},
{
angle = 270;
pos = (549,619);
}
);
layerId = "D42B5605-DB46-4B3B-8EA0-4CE7066523CE";
shapes = (
{
closed = 1;
nodes = (
(949,0,l),
(914,285,l),
(313,285,l),
(468,56,l),
(468,1284,l),
(130,1284,l),
(130,0,l)
);
}
);
width = 980;
}
);
metricLeft = "=H";
unicode = 76;
},
{
color = 4;
glyphname = Lslash;
kernLeft = H;
kernRight = L;
layers = (
{
background = {
shapes = (
{
closed = 1;
nodes = (
(837,0,l),
(820,106,l),
(283,106,l),
(328,56,l),
(328,1284,l),
(200,1284,l),
(200,0,l)
);
},
{
closed = 1;
nodes = (
(733,912,l),
(681,992,l),
(-15,550,l),
(38,470,l)
);
}
);
};
layerId = "1D628CB9-BBF5-410A-9D74-9E6094BFE839";
shapes = (
{
closed = 1;
nodes = (
(837,0,l),
(820,106,l),
(328,106,l),
(328,654,l),
(733,912,l),
(681,992,l),
(328,768,l),
(328,1284,l),
(200,1284,l),
(200,687,l),
(-15,550,l),
(38,470,l),
(200,573,l),
(200,0,l)
);
}
);
width = 871;
},
{
background = {
shapes = (
{
closed = 1;
nodes = (
(989,0,l),
(954,285,l),
(353,285,l),
(508,56,l),
(508,1284,l),
(170,1284,l),
(170,0,l)
);
},
{
closed = 1;
nodes = (
(867,876,l),
(778,1008,l),
(-61,470,l),
(28,339,l)
);
}
);
};
guides = (
{
angle = 123.6239;
pos = (-9,443);
},
{
angle = 123.6239;
pos = (791,1060);
}
);
layerId = "D42B5605-DB46-4B3B-8EA0-4CE7066523CE";
shapes = (
{
closed = 1;
nodes = (
(989,0,l),
(954,285,l),
(508,285,l),
(508,646,l),
(867,876,l),
(778,1008,l),
(508,835,l),
(508,1284,l),
(170,1284,l),
(170,618,l),
(-61,470,l),
(28,339,l),
(170,430,l),
(170,0,l)
);
}
);
width = 1020;
}
);
metricRight = L;
unicode = 321;
},
{
color = 4;
glyphname = M;
kernLeft = M;
kernRight = M;
layers = (
{
anchors = (
{
name = bottom;
pos = (679,0);
},
{
name = top;
pos = (675,1284);
}
);
background = {
anchors = (
{
name = bottom;
pos = (679,0);
},
{
name = top_case;
pos = (675,1284);
}
);
shapes = (
{
closed = 1;
nodes = (
(257,-9,l),
(352,1131,l),
(330,1127,l),
(622,438,l),
(737,438,l),
(1029,1131,l),
(1008,1134,l),
(1103,-9,l),
(1223,5,l),
(1119,1284,l),
(978,1284,l),
(662,540,l),
(697,541,l),
(382,1284,l),
(240,1284,l),
(135,5,l)
);
}
);
};
guides = (
{
angle = 270;
pos = (679,1133);
},
{
angle = 6.6544;
pos = (1163,-2);
}
);
layerId = "1D628CB9-BBF5-410A-9D74-9E6094BFE839";
shapes = (
{
closed = 1;
nodes = (
(257,-9,l),
(352,1131,l),
(330,1127,l),
(622,438,l),
(737,438,l),
(1029,1131,l),
(1008,1134,l),
(1103,-9,l),
(1226,5,l),
(1122,1284,l),
(977,1284,l),
(662,540,l),
(697,541,l),
(382,1284,l),
(237,1284,l),
(132,5,l)
);
}
);
width = 1358;
},
{
anchors = (
{
name = bottom;
pos = (841,0);
},
{
name = top;
pos = (840,1284);
}
);
background = {
anchors = (
{
name = bottom;
pos = (833,0);
},
{
name = top_case;
pos = (829,1334);
}
);
shapes = (
{
closed = 1;
nodes = (
(450,-18,l),
(530,1144,l),
(430,1141,l),
(713,357,l),
(968,357,l),
(1251,1143,l),
(1152,1146,l),
(1232,-18,l),
(1547,14,l),
(1430,1284,l),
(1048,1284,l),
(743,475,l),
(938,475,l),
(632,1284,l),
(251,1284,l),
(134,14,l)
);
}
);
};
guides = (
{
angle = 265.6286;
pos = (224,443);
},
{
angle = -85.6286;
pos = (1451,443);
},
{
angle = 270;
pos = (840,876);
},
{
angle = 185.6062;
pos = (1375,-1);
}
);
layerId = "D42B5605-DB46-4B3B-8EA0-4CE7066523CE";
shapes = (
{
closed = 1;
nodes = (
(450,-18,l),
(530,1144,l),
(410,1141,l),
(703,357,l),
(978,357,l),
(1261,1143,l),
(1152,1146,l),
(1232,-18,l),
(1578,14,l),
(1461,1284,l),
(1048,1284,l),
(743,475,l),
(938,475,l),
(632,1284,l),
(221,1284,l),
(104,14,l)
);
}
);
width = 1682;
}
);
unicode = 77;
},
{
color = 4;
glyphname = N;
kernLeft = StraightUPPER;
kernRight = StraightUPPER;
layers = (
{
anchors = (
{
name = bottom;
pos = (612,0);
},
{
name = top;
pos = (607,1284);
}
);
background = {
anchors = (
{
name = bottom;
pos = (612,0);
},
{
name = top_case;
pos = (607,1284);
}
);
shapes = (
{
closed = 1;
nodes = (
(288,0,l),
(288,1126,l),
(266,1120,l),
(909,-10,l),
(1043,6,l),
(1043,1284,l),
(915,1284,l),
(915,174,l),
(938,180,l),
(300,1284,l),
(160,1284,l),
(160,0,l)
);
}
);
};
guides = (
{
angle = 6.6544;
pos = (976,-2);
}
);
layerId = "1D628CB9-BBF5-410A-9D74-9E6094BFE839";
shapes = (
{
closed = 1;
nodes = (
(285,0,l),
(285,1116,l),
(266,1110,l),
(909,-10,l),
(1043,6,l),
(1043,1284,l),
(918,1284,l),
(918,174,l),
(938,180,l),
(300,1284,l),
(160,1284,l),
(160,0,l)
);
}
);
width = 1203;
},
{
anchors = (
{
name = bottom;
pos = (682,0);
},
{
name = top;
pos = (682,1284);
}
);
background = {
anchors = (
{
name = bottom;
pos = (697,-50);
},
{
name = top_case;
pos = (695,1334);
}
);
shapes = (
{
closed = 1;
nodes = (
(453,0,l),
(453,1026,l),
(298,1020,l),
(914,-18,l),
(1233,13,l),
(1233,1284,l),
(910,1284,l),
(910,274,l),
(1066,280,l),
(460,1284,l),
(130,1284,l),
(130,0,l)
);
}
);
};
guides = (
{
angle = 120.0349;
pos = (240,1681);
},
{
angle = 270;
pos = (687,199);
},
{
angle = 185.6062;
pos = (1341,24);
},
{
pos = (866,-18);
}
);
layerId = "D42B5605-DB46-4B3B-8EA0-4CE7066523CE";
shapes = (
{
closed = 1;
nodes = (
(458,0,l),
(458,1016,l),
(298,1010,l),
(914,-18,l),
(1233,13,l),
(1233,1284,l),
(905,1284,l),
(905,274,l),
(1066,280,l),
(460,1284,l),
(130,1284,l),
(130,0,l)
);
}
);
width = 1363;
}
);
metricLeft = "=H";
metricRight = "=H";
unicode = 78;
},
{
color = 4;
glyphname = Eng;
kernLeft = StraightUPPER;
kernRight = J;
layers = (
{
background = {
anchors = (
{
name = bottom;
pos = (587,-29);
},
{
name = top_case;
pos = (600,1308);
}
);
shapes = (
{
closed = 1;
nodes = (
(285,0,l),
(285,1116,l),
(266,1110,l),
(909,-10,l),
(1043,6,l),
(1043,1284,l),
(918,1284,l),
(918,174,l),
(938,180,l),
(300,1284,l),
(160,1284,l),
(160,0,l)
);
}
);
};
guides = (
{
angle = 270;
pos = (939,565);
}
);
layerId = "1D628CB9-BBF5-410A-9D74-9E6094BFE839";
shapes = (
{
closed = 1;
nodes = (
(844,-403,o),
(1043,-325,o),
(1043,-20,cs),
(1043,1284,l),
(918,1284,l),
(918,174,l),
(938,181,l),
(300,1284,l),
(160,1284,l),
(160,0,l),
(285,0,l),
(285,1116,l),
(266,1110,l),
(937,-60,l),
(918,24,l),
(918,-65,ls),
(918,-245,o),
(785,-296,o),
(600,-296,c),
(602,-403,l)
);
}
);
width = 1203;
},
{
background = {
anchors = (
{
name = bottom;
pos = (717,-50);
},
{
name = top_case;
pos = (685,1334);
}
);
shapes = (
{
closed = 1;
nodes = (
(458,0,l),
(458,1016,l),
(298,1010,l),
(914,-18,l),
(1233,13,l),
(1233,1284,l),
(905,1284,l),
(905,274,l),
(1066,280,l),
(460,1284,l),
(130,1284,l),
(130,0,l)
);
}
);
};
layerId = "D42B5605-DB46-4B3B-8EA0-4CE7066523CE";
shapes = (
{
closed = 1;
nodes = (
(1094,-402,o),
(1233,-214,o),
(1233,40,cs),
(1233,1284,l),
(905,1284,l),
(905,274,l),
(1066,280,l),
(460,1284,l),
(130,1284,l),
(130,0,l),
(458,0,l),
(458,1016,l),
(298,1010,l),
(926,-39,l),
(905,85,l),
(905,19,ls),
(905,-93,o),
(816,-136,o),
(674,-136,c),
(713,-406,l)
);
}
);
width = 1363;
}
);
metricLeft = H;
metricRight = H;
unicode = 330;
},
{
color = 4;
glyphname = O;
kernLeft = RoundUPPER;
kernRight = RoundUPPER;
layers = (
{
anchors = (
{
name = bottom;
pos = (568,0);
},
{
name = center;
pos = (568,642);
},
{
name = ogonek;
pos = (667,0);
},
{
name = top;
pos = (568,1284);
},
{
name = topright;
pos = (714,1284);
}
);
background = {
anchors = (
{
name = bottom;
pos = (568,-20);
},
{
name = ogonek;
pos = (729,30);
},
{
name = top;
pos = (568,1284);
},
{
name = top_case;
pos = (568,1284);
},
{
name = topright;
pos = (894,954);
}
);
shapes = (
{
closed = 1;
nodes = (
(929,-10,o),
(1016,241,o),
(1016,657,cs),
(1016,1074,o),
(917,1308,o),
(568,1308,cs),
(219,1308,o),
(120,1074,o),
(120,657,cs),
(120,241,o),
(207,-10,o),
(568,-10,cs)
);
},
{
closed = 1;
nodes = (
(318,96,o),
(248,273,o),
(248,654,cs),
(248,1039,o),
(321,1202,o),
(568,1202,cs),
(815,1202,o),
(888,1039,o),
(888,654,cs),
(888,273,o),
(818,96,o),
(568,96,cs)
);
}
);
};
layerId = "1D628CB9-BBF5-410A-9D74-9E6094BFE839";
shapes = (
{
closed = 1;
nodes = (
(929,-15,o),
(1016,236,o),
(1016,652,cs),
(1016,1069,o),
(917,1303,o),
(568,1303,cs),
(219,1303,o),
(120,1069,o),
(120,652,cs),
(120,236,o),
(207,-15,o),
(568,-15,cs)
);
},
{
closed = 1;
nodes = (
(318,91,o),
(248,268,o),
(248,649,cs),
(248,1034,o),
(321,1197,o),
(568,1197,cs),
(815,1197,o),
(888,1034,o),
(888,649,cs),
(888,268,o),
(818,91,o),
(568,91,cs)
);
}
);
width = 1136;
},
{
anchors = (
{
name = bottom;
pos = (610,0);
},
{
name = center;
pos = (610,642);
},
{
name = ogonek;
pos = (784,0);
},
{
name = top;
pos = (610,1284);
},
{
name = topright;
pos = (791,1284);
}
);
background = {
anchors = (
{
name = bottom;
pos = (610,-50);
},
{
name = ogonek;
pos = (734,14);
},
{
name = top;
pos = (611,1336);
},
{
name = top_case;
pos = (610,1336);
},
{
name = topright;
pos = (1106,844);
}
);
shapes = (
{
closed = 1;
nodes = (
(961,-40,o),
(1143,132,o),
(1143,648,cs),
(1143,1165,o),
(949,1331,o),
(610,1331,cs),
(271,1331,o),
(77,1165,o),
(77,648,cs),
(77,132,o),
(259,-40,o),
(610,-40,cs)
);
},
{
closed = 1;
nodes = (
(460,245,o),
(405,334,o),
(405,645,cs),
(405,961,o),
(463,1046,o),
(610,1046,cs),
(757,1046,o),
(815,961,o),
(815,645,cs),
(815,334,o),
(760,245,o),
(610,245,cs)
);
}
);
};
layerId = "D42B5605-DB46-4B3B-8EA0-4CE7066523CE";
shapes = (
{
closed = 1;
nodes = (
(961,-20,o),
(1143,147,o),
(1143,648,cs),
(1143,1147,o),
(949,1308,o),
(610,1308,cs),
(271,1308,o),
(77,1147,o),
(77,648,cs),
(77,147,o),
(259,-20,o),
(610,-20,cs)
);
},
{
closed = 1;
nodes = (
(467,267,o),
(415,351,o),
(415,645,cs),
(415,941,o),
(470,1021,o),
(610,1021,cs),
(750,1021,o),
(805,941,o),
(805,645,cs),
(805,351,o),
(753,267,o),
(610,267,cs)
);
}
);
width = 1220;
}
);
unicode = 79;
userData = {
com.fontlab.hintData = {
hhints = (
{
position = -10;
width = 106;
},
{
position = 1195;
width = 106;
}
);
vhints = (
{
position = 116;
width = 128;
},
{
position = 884;
width = 128;
}
);
};
};
},
{
color = 6;
glyphname = Ohorn;
kernLeft = RoundUPPER;
kernRight = hornUPPER;
layers = (
{
background = {
anchors = (
{
name = _topright;
pos = (894,974);
},
{
name = bottom;
pos = (568,0);
},
{
name = ogonek;
pos = (729,30);
},
{
name = top;
pos = (568,1284);
},
{
name = top_case;
pos = (568,1284);
},
{
name = topright;
pos = (894,974);
}
);
shapes = (
{
ref = O;
},
{
pos = (854,-31);
ref = horncomb;
}
);
};
layerId = "1D628CB9-BBF5-410A-9D74-9E6094BFE839";
shapes = (
{
ref = O;
},
{
pos = (364,299);
ref = horncomb;
}
);
width = 1136;
},
{
anchors = (
{
name = _topright;
pos = (890,974);
},
{
name = bottom;
pos = (564,0);
},
{
name = ogonek;
pos = (725,30);
},
{
name = top;
pos = (564,1284);
},
{
name = topright;
pos = (890,974);
}
);
associatedMasterId = "1D628CB9-BBF5-410A-9D74-9E6094BFE839";
layerId = "14DD0084-6660-4B70-A99D-CC78A7D99BE3";
name = "Regular Jul 25 16, 11:36";
shapes = (
{
closed = 1;
nodes = (
(925,-10,o),
(1012,232,o),
(1012,648,cs),
(1012,1065,o),
(913,1301,o),
(564,1301,cs),
(215,1301,o),
(116,1065,o),
(116,648,cs),
(116,232,o),
(203,-10,o),
(564,-10,cs)
);
},
{
closed = 1;
nodes = (
(314,96,o),
(244,264,o),
(244,645,cs),
(244,1030,o),
(317,1195,o),
(564,1195,cs),
(811,1195,o),
(884,1030,o),
(884,645,cs),
(884,264,o),
(814,96,o),
(564,96,cs)
);
},
{
closed = 1;
nodes = (
(900,1066,ls),
(1022,1107,o),
(1128,1166,o),
(1128,1291,cs),
(1128,1331,o),
(1121,1363,o),
(1111,1389,c),
(979,1389,l),
(992,1361,o),
(1000,1330,o),
(1000,1299,cs),
(1000,1223,o),
(961,1180,o),
(890,1149,cs),
(855,1134,l),
(855,1051,l)
);
}
);
width = 1128;
},
{
background = {
anchors = (
{
name = _topright;
pos = (914,974);
},
{
name = bottom;
pos = (588,-50);
},
{
name = ogonek;
pos = (749,-20);
},
{
name = top;
pos = (588,1334);
},
{
name = top_case;
pos = (588,1334);
},
{
name = topright;
pos = (914,974);
}
);
shapes = (
{
ref = O;
},
{
pos = (925,-141);
ref = horncomb;
}
);
};
layerId = "D42B5605-DB46-4B3B-8EA0-4CE7066523CE";
shapes = (
{
ref = O;
},
{
pos = (441,269);
ref = horncomb;
}
);
width = 1220;
}
);
unicode = 416;
userData = {
com.schriftgestaltung.Glyphs.ColorIndex = 7;
};
},
{
color = 4;
glyphname = Ohorntilde;
kernLeft = RoundUPPER;
kernRight = hornUPPER;
layers = (
{
background = {
shapes = (
{
ref = Ohorn;
},
{
pos = (250,299);
ref = tildecomb.case;
}
);
};
layerId = "1D628CB9-BBF5-410A-9D74-9E6094BFE839";
shapes = (
{
closed = 1;
nodes = (
(929,-15,o),
(1016,236,o),
(1016,652,cs),
(1016,924,o),
(974,1118,o),
(848,1220,c),
(961,1265,o),
(1017,1344,o),
(1017,1446,cs),
(1017,1486,o),
(1010,1518,o),
(1000,1544,c),
(878,1544,l),
(891,1516,o),
(899,1485,o),
(899,1454,cs),
(899,1372,o),
(837,1296,o),
(720,1285,c),
(675,1297,o),
(625,1303,o),
(568,1303,cs),
(219,1303,o),
(120,1069,o),
(120,652,cs),
(120,236,o),
(207,-15,o),
(568,-15,cs)
);
},
{
closed = 1;
nodes = (
(318,91,o),
(248,268,o),
(248,649,cs),
(248,1034,o),
(321,1197,o),
(568,1197,cs),
(815,1197,o),
(888,1034,o),
(888,649,cs),
(888,268,o),
(818,91,o),
(568,91,cs)
);
},
{
closed = 1;
nodes = (
(353,1476,o),
(379,1502,o),
(413,1502,cs),
(477,1502,o),
(603,1414,o),
(687,1414,cs),
(756,1414,o),
(802,1457,o),
(851,1568,c),
(774,1612,l),
(737,1552,o),
(712,1530,o),
(680,1530,cs),
(616,1530,o),
(468,1621,o),
(393,1621,cs),
(336,1621,o),
(297,1584,o),
(234,1455,c),
(313,1409,l)
);
}
);
width = 1136;
},
{
background = {
shapes = (
{
ref = Ohorn;
},
{
pos = (65,375);
ref = tildecomb.case;
}
);
};
layerId = "D42B5605-DB46-4B3B-8EA0-4CE7066523CE";
shapes = (
{
closed = 1;
nodes = (
(961,-20,o),
(1143,147,o),
(1143,648,cs),
(1143,913,o),
(1088,1082,o),
(987,1183,c),
(1149,1239,o),
(1218,1333,o),
(1218,1491,cs),
(1218,1543,o),
(1207,1586,o),
(1190,1640,c),
(944,1640,l),
(964,1585,o),
(975,1541,o),
(975,1498,cs),
(975,1386,o),
(929,1325,o),
(799,1286,c),
(742,1301,o),
(679,1308,o),
(610,1308,cs),
(271,1308,o),
(77,1147,o),
(77,648,cs),
(77,147,o),
(259,-20,o),
(610,-20,cs)
);
},
{
closed = 1;
nodes = (
(467,267,o),
(415,351,o),
(415,645,cs),
(415,941,o),
(470,1021,o),
(610,1021,cs),
(750,1021,o),
(805,941,o),
(805,645,cs),
(805,351,o),
(753,267,o),
(610,267,cs)
);
},
{
closed = 1;
nodes = (
(328,1463,o),
(351,1509,o),
(398,1509,cs),
(457,1509,o),
(587,1414,o),
(672,1414,cs),
(776,1414,o),
(841,1497,o),
(918,1653,c),
(762,1760,l),
(721,1688,o),
(697,1644,o),
(660,1644,cs),
(603,1644,o),
(475,1744,o),
(374,1744,cs),
(281,1744,o),
(224,1668,o),
(143,1512,c),
(290,1404,l)
);
}
);
width = 1220;
}
);
metricLeft = O;
metricWidth = O;
unicode = 7904;
userData = {
com.schriftgestaltung.Glyphs.ColorIndex = 7;
};
},
{
color = 4;
glyphname = OE;
kernLeft = RoundUPPER;
kernRight = E;
layers = (
{
anchors = (
{
name = bottom;
pos = (888,0);
},
{
name = top;
pos = (888,1284);
}
);
background = {
shapes = (
{
closed = 1;
nodes = (
(952,1284,l),
(679,1284,ls),
(225,1284,o),
(120,1101,o),
(120,636,cs),
(120,229,o),
(196,0,o),
(668,0,cs),
(952,0,l)
);
},
{
closed = 1;
nodes = (
(869,106,l),
(668,106,ls),
(284,106,o),
(248,266,o),
(248,636,cs),
(248,1030,o),
(304,1178,o),
(679,1178,cs),
(869,1178,l),
(824,1228,l),
(824,56,l)
);
},
{
closed = 1;
nodes = (
(1513,0,l),
(1497,106,l),
(907,106,l),
(952,56,l),
(952,671,l),
(907,620,l),
(1453,620,l),
(1453,726,l),
(907,726,l),
(952,677,l),
(952,1228,l),
(907,1178,l),
(1487,1178,l),
(1509,1284,l),
(824,1284,l),
(824,0,l)
);
}
);
};
layerId = "1D628CB9-BBF5-410A-9D74-9E6094BFE839";
shapes = (
{
closed = 1;
nodes = (
(1403,0,l),
(1387,106,l),
(922,106,l),
(922,620,l),
(1343,620,l),
(1343,726,l),
(922,726,l),
(922,1178,l),
(1377,1178,l),
(1399,1284,l),
(679,1284,ls),
(225,1284,o),
(120,1101,o),
(120,636,cs),
(120,229,o),
(196,0,o),
(668,0,cs)
);
},
{
closed = 1;
nodes = (
(248,1030,o),
(304,1178,o),
(679,1178,cs),
(794,1178,l),
(794,106,l),
(668,106,ls),
(284,106,o),
(248,266,o),
(248,636,cs)
);
}
);
width = 1461;
},
{
anchors = (
{
name = bottom;
pos = (900,0);
},
{
name = top;
pos = (900,1284);
}
);
background = {
anchors = (
{
name = bottom;
pos = (897,0);
},
{
name = top_case;
pos = (902,1284);
}
);
shapes = (
{
closed = 1;
nodes = (
(1675,0,l),
(1652,295,l),
(1164,295,l),
(1164,521,l),
(1615,521,l),
(1615,796,l),
(1164,796,l),
(1164,989,l),
(1636,989,l),
(1671,1284,l),
(660,1284,ls),
(186,1284,o),
(41,1101,o),
(41,648,cs),
(41,191,o),
(186,0,o),
(649,0,cs)
);
},
{
closed = 1;
nodes = (
(418,285,o),
(369,356,o),
(369,645,cs),
(369,933,o),
(419,999,o),
(660,999,cs),
(836,999,l),
(836,285,l),
(649,285,ls)
);
}
);
};
layerId = "D42B5605-DB46-4B3B-8EA0-4CE7066523CE";
shapes = (
{
closed = 1;
nodes = (
(1490,0,l),
(1467,280,l),
(1049,280,l),
(1049,530,l),
(1430,530,l),
(1430,810,l),
(1049,810,l),
(1049,1004,l),
(1451,1004,l),
(1486,1284,l),
(636,1284,ls),
(262,1284,o),
(77,1101,o),
(77,646,cs),
(77,191,o),
(262,0,o),
(625,0,cs)
);
},
{
closed = 1;
nodes = (
(415,913,o),
(495,1004,o),
(646,1004,cs),
(711,1004,l),
(711,280,l),
(635,280,ls),
(494,280,o),
(415,379,o),
(415,646,cs)
);
}
);
width = 1551;
}
);
metricLeft = "=O";
metricRight = "=E";
unicode = 338;
},
{
color = 4;
glyphname = P;
kernLeft = StraightUPPER;
kernRight = P;
layers = (
{
anchors = (
{
name = bottom;
pos = (502,0);
},
{
name = top;
pos = (502,1284);
}
);
background = {
anchors = (
{
name = bottom;
pos = (502,0);
},
{
name = top_case;
pos = (502,1284);
}
);
shapes = (
{
closed = 1;
nodes = (
(288,0,l),
(288,536,l),
(465,536,ls),
(730,536,o),
(928,597,o),
(928,905,cs),
(928,1200,o),
(768,1284,o),
(509,1284,cs),
(160,1284,l),
(160,0,l)
);
},
{
closed = 1;
nodes = (
(288,1228,l),
(243,1183,l),
(517,1183,ls),
(705,1183,o),
(800,1127,o),
(800,903,cs),
(800,665,o),
(654,637,o),
(442,637,cs),
(243,637,l),
(288,592,l)
);
}
);
};
layerId = "1D628CB9-BBF5-410A-9D74-9E6094BFE839";
shapes = (
{
closed = 1;
nodes = (
(288,0,l),
(288,536,l),
(455,536,ls),
(720,536,o),
(928,597,o),
(928,905,cs),
(928,1200,o),
(768,1284,o),
(509,1284,cs),
(160,1284,l),
(160,0,l)
);
},
{
closed = 1;
nodes = (
(288,1228,l),
(243,1178,l),
(517,1178,ls),
(705,1178,o),
(800,1127,o),
(800,903,cs),
(800,665,o),
(654,642,o),
(442,642,cs),
(243,642,l),
(288,592,l)
);
}
);
width = 1003;
},
{
anchors = (
{
name = bottom;
pos = (574,0);
},
{
name = top;
pos = (574,1284);
}
);
background = {
anchors = (
{
name = bottom;
pos = (754,0);
},
{
name = top_case;
pos = (574,1334);
}
);
shapes = (
{
closed = 1;
nodes = (
(458,0,l),
(458,426,l),
(575,426,ls),
(888,426,o),
(1080,507,o),
(1080,855,cs),
(1080,1170,o),
(916,1284,o),
(656,1284,cs),
(130,1284,l),
(130,0,l)
);
},
{
closed = 1;
nodes = (
(458,1223,l),
(413,1009,l),
(604,1009,ls),
(686,1009,o),
(752,969,o),
(752,861,cs),
(752,726,o),
(683,701,o),
(547,701,cs),
(413,701,l),
(458,487,l)
);
}
);
};
layerId = "D42B5605-DB46-4B3B-8EA0-4CE7066523CE";
shapes = (
{
closed = 1;
nodes = (
(468,0,l),
(468,426,l),
(575,426,ls),
(888,426,o),
(1085,547,o),
(1085,855,cs),
(1085,1170,o),
(896,1284,o),
(626,1284,cs),
(130,1284,l),
(130,0,l)
);
},
{
closed = 1;
nodes = (
(468,1223,l),
(413,1009,l),
(604,1009,ls),
(686,1009,o),
(752,969,o),
(752,861,cs),
(752,726,o),
(683,701,o),
(547,701,cs),
(413,701,l),
(468,487,l)
);
}
);
width = 1134;
}
);
metricLeft = "=H";
unicode = 80;
},
{
color = 4;
glyphname = Thorn;
kernLeft = StraightUPPER;
kernRight = Thorn;
layers = (
{
background = {
shapes = (
{
closed = 1;
nodes = (
(288,-232,l),
(288,304,l),
(455,304,ls),
(720,304,o),
(928,365,o),
(928,673,cs),
(928,968,o),
(768,1052,o),
(509,1052,cs),
(160,1052,l),
(160,-232,l)
);
},
{
closed = 1;
nodes = (
(288,996,l),
(243,951,l),
(517,951,ls),
(705,951,o),
(800,895,o),
(800,671,cs),
(800,433,o),
(654,405,o),
(442,405,cs),
(243,405,l),
(288,360,l)
);
}
);
};
layerId = "1D628CB9-BBF5-410A-9D74-9E6094BFE839";
shapes = (
{
closed = 1;
nodes = (
(288,0,l),
(288,354,l),
(243,286,l),
(455,286,ls),
(720,286,o),
(928,347,o),
(928,655,cs),
(928,950,o),
(768,1034,o),
(509,1034,cs),
(244,1034,l),
(289,989,l),
(289,1284,l),
(160,1284,l),
(160,0,l)
);
},
{
closed = 1;
nodes = (
(288,979,l),
(243,933,l),
(517,933,ls),
(705,933,o),
(800,877,o),
(800,653,cs),
(800,415,o),
(654,387,o),
(442,387,cs),
(243,387,l),
(288,368,l)
);
}
);
width = 1003;
},
{
background = {
shapes = (
{
closed = 1;
nodes = (
(468,-175,l),
(468,251,l),
(575,251,ls),
(888,251,o),
(1085,372,o),
(1085,680,cs),
(1085,995,o),
(896,1109,o),
(626,1109,cs),
(130,1109,l),
(130,-175,l)
);
},
{
closed = 1;
nodes = (
(468,1048,l),
(413,834,l),
(604,834,ls),
(686,834,o),
(752,794,o),
(752,686,cs),
(752,551,o),
(683,526,o),
(547,526,cs),
(413,526,l),
(468,312,l)
);
}
);
};
guides = (
{
pos = (717,697);
}
);
layerId = "D42B5605-DB46-4B3B-8EA0-4CE7066523CE";
shapes = (
{
closed = 1;
nodes = (
(468,0,l),
(468,382,l),
(413,231,l),
(575,231,ls),
(888,231,o),
(1085,328,o),
(1085,660,cs),
(1085,975,o),
(896,1089,o),
(626,1089,cs),
(414,1089,l),
(468,947,l),
(468,1284,l),
(130,1284,l),
(130,0,l)
);
},
{
closed = 1;
nodes = (
(468,937,l),
(413,814,l),
(604,814,ls),
(686,814,o),
(752,774,o),
(752,666,cs),
(752,531,o),
(683,506,o),
(547,506,cs),
(413,506,l),
(468,396,l)
);
}
);
width = 1134;
}
);
metricLeft = H;
metricRight = P;
unicode = 222;
},
{
color = 4;
glyphname = Q;
kernLeft = RoundUPPER;
kernRight = RoundUPPER;
layers = (
{
anchors = (
{
name = bottom;
pos = (570,0);
},
{
name = top;
pos = (570,1284);
}
);
background = {
anchors = (
{
name = bottom;
pos = (570,0);
},
{
name = top;
pos = (570,1284);
}
);
shapes = (
{
closed = 1;
nodes = (
(929,-5,o),
(1016,237,o),
(1016,653,cs),
(1016,1070,o),
(917,1306,o),
(568,1306,cs),
(219,1306,o),
(120,1070,o),
(120,653,cs),
(120,237,o),
(207,-5,o),
(568,-5,cs)
);
},
{
closed = 1;
nodes = (
(1010,-94,l),
(888,55,o),
(780,206,o),
(684,361,c),
(600,295,l),
(696,141,o),
(804,-11,o),
(926,-159,c)
);
},
{
closed = 1;
nodes = (
(318,101,o),
(248,269,o),
(248,650,cs),
(248,1035,o),
(321,1200,o),
(568,1200,cs),
(815,1200,o),
(888,1035,o),
(888,650,cs),
(888,269,o),
(818,101,o),
(568,101,cs)
);
}
);
};
layerId = "1D628CB9-BBF5-410A-9D74-9E6094BFE839";
shapes = (
{
closed = 1;
nodes = (
(929,-15,o),
(1016,236,o),
(1016,652,cs),
(1016,1069,o),
(917,1303,o),
(568,1303,cs),
(219,1303,o),
(120,1069,o),
(120,652,cs),
(120,236,o),
(207,-15,o),
(568,-15,cs)
);
},
{
closed = 1;
nodes = (
(1010,-94,l),
(888,55,o),
(780,206,o),
(684,361,c),
(600,295,l),
(696,141,o),
(804,-11,o),
(926,-159,c)
);
},
{
closed = 1;
nodes = (
(318,91,o),
(248,268,o),
(248,649,cs),
(248,1034,o),
(321,1197,o),
(568,1197,cs),
(815,1197,o),
(888,1034,o),
(888,649,cs),
(888,268,o),
(818,91,o),
(568,91,cs)
);
}
);
width = 1136;
},
{
anchors = (
{
name = bottom;
pos = (610,0);
},
{
name = top;
pos = (610,1284);
}
);
background = {
anchors = (
{
name = bottom;
pos = (610,0);
},
{
name = top;
pos = (610,1284);
}
);
shapes = (
{
closed = 1;
nodes = (
(941,-40,o),
(1143,142,o),
(1143,648,cs),
(1143,1165,o),
(949,1331,o),
(610,1331,cs),
(271,1331,o),
(77,1165,o),
(77,648,cs),
(77,132,o),
(259,-40,o),
(610,-40,cs)
);
},
{
closed = 1;
nodes = (
(1132,-52,l),
(973,123,o),
(807,371,o),
(686,564,c),
(484,427,l),
(588,263,o),
(791,-37,o),
(941,-211,c)
);
},
{
closed = 1;
nodes = (
(460,242,o),
(405,334,o),
(405,645,cs),
(405,961,o),
(463,1046,o),
(610,1046,cs),
(757,1046,o),
(815,961,o),
(815,635,cs),
(815,304,o),
(780,242,o),
(610,242,cs)
);
}
);
};
layerId = "D42B5605-DB46-4B3B-8EA0-4CE7066523CE";
shapes = (
{
closed = 1;
nodes = (
(961,-20,o),
(1143,147,o),
(1143,648,cs),
(1143,1150,o),
(949,1311,o),
(610,1311,cs),
(271,1311,o),
(77,1150,o),
(77,648,cs),
(77,147,o),
(259,-20,o),
(610,-20,cs)
);
},
{
closed = 1;
nodes = (
(1132,-52,l),
(973,123,o),
(807,371,o),
(686,564,c),
(484,427,l),
(588,263,o),
(791,-37,o),
(941,-211,c)
);
},
{
closed = 1;
nodes = (
(467,242,o),
(415,329,o),
(415,632,cs),
(415,941,o),
(470,1024,o),
(610,1024,cs),
(750,1024,o),
(805,941,o),
(805,632,cs),
(805,329,o),
(753,242,o),
(610,242,cs)
);
}
);
width = 1220;
}
);
metricLeft = "=O";
metricRight = "=O";
unicode = 81;
},
{
color = 4;
glyphname = R;
kernLeft = StraightUPPER;
kernRight = R;
layers = (
{
anchors = (
{
name = bottom;
pos = (508,0);
},
{
name = top;
pos = (508,1284);
}
);
background = {
anchors = (
{
name = bottom;
pos = (508,0);
},
{
name = top;
pos = (508,1284);
},
{
name = top_case;
pos = (508,1284);
}
);
shapes = (
{
closed = 1;
nodes = (
(288,0,l),
(288,536,l),
(455,536,ls),
(720,536,o),
(928,597,o),
(928,905,cs),
(928,1200,o),
(768,1284,o),
(509,1284,cs),
(160,1284,l),
(160,0,l)
);
},
{
closed = 1;
nodes = (
(288,1228,l),
(243,1178,l),
(517,1178,ls),
(705,1178,o),
(800,1127,o),
(800,903,cs),
(800,665,o),
(654,642,o),
(442,642,cs),
(243,642,l),
(288,592,l)
);
}
);
};
guides = (
{
pos = (781,9);
},
{
angle = 190.3049;
pos = (939,-2);
}
);
layerId = "1D628CB9-BBF5-410A-9D74-9E6094BFE839";
shapes = (
{
closed = 1;
nodes = (
(995,10,l),
(883,202,o),
(767,425,o),
(667,617,c),
(660,556,l),
(817,587,o),
(928,692,o),
(928,905,cs),
(928,1200,o),
(768,1284,o),
(509,1284,cs),
(160,1284,l),
(160,0,l),
(288,0,l),
(288,612,l),
(288,536,l),
(455,536,ls),
(507,536,o),
(567,540,o),
(618,547,c),
(552,597,l),
(639,408,o),
(776,139,o),
(865,-14,c)
);
},
{
closed = 1;
nodes = (
(288,1223,l),
(243,1178,l),
(517,1178,ls),
(705,1178,o),
(800,1127,o),
(800,903,cs),
(800,665,o),
(654,642,o),
(442,642,cs),
(243,642,l),
(288,628,l)
);
}
);
width = 1063;
},
{
anchors = (
{
name = bottom;
pos = (614,0);
},
{
name = top;
pos = (584,1284);
}
);
background = {
anchors = (
{
name = bottom;
pos = (614,-50);
},
{
name = top;
pos = (584,1335);
},
{
name = top_case;
pos = (584,1334);
}
);
shapes = (
{
closed = 1;
nodes = (
(468,0,l),
(468,426,l),
(575,426,ls),
(888,426,o),
(1085,547,o),
(1085,855,cs),
(1085,1170,o),
(896,1284,o),
(626,1284,cs),
(130,1284,l),
(130,0,l)
);
},
{
closed = 1;
nodes = (
(468,1223,l),
(413,1009,l),
(604,1009,ls),
(686,1009,o),
(752,969,o),
(752,861,cs),
(752,726,o),
(683,701,o),
(547,701,cs),
(413,701,l),
(468,487,l)
);
}
);
};
guides = (
{
pos = (720,-30);
},
{
angle = 9.4623;
pos = (982,-3);
}
);
layerId = "D42B5605-DB46-4B3B-8EA0-4CE7066523CE";
shapes = (
{
closed = 1;
nodes = (
(1147,25,l),
(1076,146,o),
(930,417,o),
(881,526,c),
(833,465,l),
(995,524,o),
(1085,646,o),
(1085,855,cs),
(1085,1170,o),
(896,1284,o),
(626,1284,cs),
(130,1284,l),
(130,0,l),
(468,0,l),
(468,450,l),
(363,426,l),
(575,426,ls),
(612,426,o),
(684,430,o),
(721,436,c),
(578,458,l),
(641,305,o),
(751,81,o),
(812,-31,c)
);
},
{
closed = 1;
nodes = (
(468,1094,l),
(413,1009,l),
(604,1009,ls),
(686,1009,o),
(752,969,o),
(752,861,cs),
(752,726,o),
(683,701,o),
(547,701,cs),
(413,701,l),
(468,626,l)
);
}
);
width = 1178;
}
);
metricLeft = "=H";
unicode = 82;
},
{
color = 4;
glyphname = S;
kernLeft = S;
kernRight = S;
layers = (
{
anchors = (
{
name = bottom;
pos = (456,0);
},
{
name = cedilla;
pos = (431,0);
},
{
name = top;
pos = (478,1284);
}
);
background = {
anchors = (
{
name = bottom;
pos = (456,0);
},
{
name = cedilla;
pos = (431,0);
},
{
name = top_case;
pos = (478,1284);
}
);
shapes = (
{
closed = 1;
nodes = (
(695,-10,o),
(855,117,o),
(855,353,cs),
(855,603,o),
(676,661,o),
(513,720,cs),
(399,761,ls),
(257,812,o),
(215,867,o),
(215,972,cs),
(215,1143,o),
(316,1195,o),
(496,1195,cs),
(623,1195,o),
(741,1158,o),
(800,1136,c),
(824,1239,l),
(715,1284,o),
(597,1301,o),
(479,1301,cs),
(264,1301,o),
(87,1213,o),
(87,969,cs),
(87,786,o),
(191,700,o),
(358,644,cs),
(481,603,ls),
(642,549,o),
(727,495,o),
(727,355,cs),
(727,175,o),
(612,96,o),
(453,96,cs),
(292,96,o),
(191,140,o),
(115,173,c),
(87,68,l),
(198,18,o),
(327,-10,o),
(453,-10,cs)
);
}
);
};
layerId = "1D628CB9-BBF5-410A-9D74-9E6094BFE839";
shapes = (
{
closed = 1;
nodes = (
(703,-10,o),
(855,126,o),
(855,353,cs),
(855,585,o),
(713,647,o),
(513,720,cs),
(399,761,ls),
(262,810,o),
(215,863,o),
(215,972,cs),
(215,1129,o),
(308,1195,o),
(496,1195,cs),
(588,1195,o),
(703,1173,o),
(800,1136,c),
(824,1239,l),
(723,1280,o),
(618,1301,o),
(489,1301,cs),
(237,1301,o),
(87,1182,o),
(87,969,cs),
(87,806,o),
(168,707,o),
(358,644,cs),
(481,603,ls),
(666,541,o),
(727,479,o),
(727,355,cs),
(727,190,o),
(628,96,o),
(453,96,cs),
(292,96,o),
(191,140,o),
(120,173,c),
(87,68,l),
(197,18,o),
(324,-10,o),
(449,-10,cs)
);
}
);
width = 937;
},
{
anchors = (
{
name = bottom;
pos = (507,0);
},
{
name = cedilla;
pos = (465,0);
},
{
name = top;
pos = (551,1284);
}
);
background = {
anchors = (
{
name = bottom;
pos = (527,-50);
},
{
name = cedilla;
pos = (465,-30);
},
{
name = top_case;
pos = (527,1334);
}
);
shapes = (
{
closed = 1;
nodes = (
(780,-37,o),
(952,66,o),
(952,369,cs),
(952,573,o),
(864,705,o),
(623,788,cs),
(509,827,ls),
(424,856,o),
(389,887,o),
(389,939,cs),
(389,1010,o),
(417,1043,o),
(544,1043,cs),
(626,1043,o),
(734,1028,o),
(851,988,c),
(918,1263,l),
(766,1323,o),
(586,1328,o),
(502,1328,cs),
(227,1328,o),
(61,1205,o),
(61,944,cs),
(61,765,o),
(112,627,o),
(357,549,cs),
(458,517,ls),
(566,483,o),
(624,443,o),
(624,369,cs),
(624,297,o),
(594,248,o),
(487,248,cs),
(357,248,o),
(218,291,o),
(124,333,c),
(51,61,l),
(174,7,o),
(316,-37,o),
(520,-37,cs)
);
}
);
};
guides = (
{
angle = 251.7901;
pos = (2939,1360);
},
{
angle = 270;
pos = (512,985);
}
);
layerId = "D42B5605-DB46-4B3B-8EA0-4CE7066523CE";
shapes = (
{
closed = 1;
nodes = (
(811,-14,o),
(953,149,o),
(953,405,cs),
(953,594,o),
(853,717,o),
(659,774,cs),
(486,825,ls),
(418,845,o),
(388,875,o),
(388,923,cs),
(388,980,o),
(429,1030,o),
(554,1030,cs),
(647,1030,o),
(745,1012,o),
(851,967,c),
(908,1234,l),
(800,1284,o),
(665,1307,o),
(552,1307,cs),
(239,1307,o),
(61,1156,o),
(61,905,cs),
(61,717,o),
(182,588,o),
(357,543,cs),
(512,503,ls),
(586,484,o),
(624,449,o),
(624,383,cs),
(624,304,o),
(571,264,o),
(467,264,cs),
(359,264,o),
(243,294,o),
(124,345,c),
(51,81,l),
(204,16,o),
(349,-14,o),
(480,-14,cs)
);
}
);
width = 994;
}
);
unicode = 83;
},
{
color = 4;
glyphname = Germandbls;
kernLeft = StraightUPPER;
kernRight = Germandbls;
layers = (
{
background = {
shapes = (
{
closed = 1;
nodes = (
(902,-10,o),
(1057,130,o),
(1057,347,cs),
(1057,592,o),
(856,735,o),
(556,735,c),
(564,680,l),
(967,1080,l),
(967,1182,l),
(868,1253,o),
(734,1301,o),
(598,1301,cs),
(301,1301,o),
(160,1142,o),
(160,822,cs),
(160,0,l),
(288,0,l),
(288,811,ls),
(288,1071,o),
(374,1195,o),
(594,1195,cs),
(709,1195,o),
(805,1161,o),
(888,1109,c),
(888,1161,l),
(468,735,l),
(468,624,l),
(547,624,ls),
(788,624,o),
(929,531,o),
(929,347,cs),
(929,189,o),
(835,95,o),
(678,95,cs),
(598,95,o),
(513,122,o),
(445,156,c),
(407,66,l),
(492,18,o),
(591,-10,o),
(690,-10,cs)
);
}
);
};
layerId = "1D628CB9-BBF5-410A-9D74-9E6094BFE839";
shapes = (
{
closed = 1;
nodes = (
(902,-10,o),
(1057,130,o),
(1057,347,cs),
(1057,592,o),
(856,729,o),
(576,729,c),
(564,690,l),
(967,1080,l),
(967,1182,l),
(868,1253,o),
(734,1301,o),
(598,1301,cs),
(301,1301,o),
(160,1142,o),
(160,822,cs),
(160,0,l),
(288,0,l),
(288,811,ls),
(288,1071,o),
(374,1195,o),
(594,1195,cs),
(709,1195,o),
(805,1161,o),
(888,1109,c),
(888,1141,l),
(468,735,l),
(468,624,l),
(547,624,ls),
(788,624,o),
(929,531,o),
(929,347,cs),
(929,189,o),
(835,95,o),
(678,95,cs),
(598,95,o),
(513,122,o),
(445,156,c),
(407,66,l),
(492,18,o),
(591,-10,o),
(690,-10,cs)
);
}
);
width = 1112;
},
{
background = {
shapes = (
{
closed = 1;
nodes = (
(1203,-10,o),
(1347,133,o),
(1347,357,cs),
(1347,654,o),
(1139,755,o),
(696,755,c),
(839,599,l),
(1257,910,l),
(1257,1182,l),
(1070,1273,o),
(896,1331,o),
(658,1331,cs),
(361,1331,o),
(130,1175,o),
(130,822,cs),
(130,0,l),
(458,0,l),
(458,791,ls),
(458,957,o),
(514,1046,o),
(710,1046,cs),
(825,1046,o),
(895,1012,o),
(978,960,c),
(978,1091,l),
(628,765,l),
(628,524,l),
(732,514,ls),
(907,497,o),
(1019,481,o),
(1019,377,cs),
(1019,292,o),
(952,275,o),
(865,275,cs),
(760,275,o),
(653,302,o),
(585,336,c),
(547,66,l),
(632,18,o),
(819,-10,o),
(918,-10,cs)
);
}
);
};
layerId = "D42B5605-DB46-4B3B-8EA0-4CE7066523CE";
shapes = (
{
closed = 1;
nodes = (
(1134,-10,o),
(1304,123,o),
(1304,357,cs),
(1304,641,o),
(1124,755,o),
(676,755,c),
(814,599,l),
(1217,884,l),
(1217,1156,l),
(1026,1262,o),
(879,1305,o),
(679,1305,cs),
(358,1305,o),
(130,1126,o),
(130,782,cs),
(130,0,l),
(468,0,l),
(468,783,ls),
(468,933,o),
(539,1020,o),
(710,1020,cs),
(803,1020,o),
(889,998,o),
(988,934,c),
(948,1005,l),
(611,765,l),
(611,524,l),
(731,524,ls),
(892,524,o),
(976,474,o),
(976,387,cs),
(976,313,o),
(922,275,o),
(830,275,cs),
(739,275,o),
(664,299,o),
(609,329,c),
(532,66,l),
(601,26,o),
(751,-10,o),
(871,-10,cs)
);
}
);
width = 1386;
}
);
metricLeft = H;
unicode = 7838;
},
{
color = 4;
glyphname = T;
kernLeft = T;
kernRight = T;
layers = (
{
anchors = (
{
name = bottom;
pos = (439,0);
},
{
name = cedilla;
pos = (440,0);
},
{
name = center;
pos = (439,642);
},
{
name = top;
pos = (439,1284);
}
);
background = {
anchors = (
{
name = bottom;
pos = (439,0);
},
{
name = cedilla;
pos = (440,0);
},
{
name = top_case;
pos = (452,1284);
}
);
shapes = (
{
closed = 1;
nodes = (
(503,0,l),
(503,1223,l),
(458,1178,l),
(852,1178,l),
(852,1284,l),
(31,1284,l),
(31,1178,l),
(420,1178,l),
(375,1223,l),
(375,0,l)
);
}
);
};
layerId = "1D628CB9-BBF5-410A-9D74-9E6094BFE839";
shapes = (
{
closed = 1;
nodes = (
(503,0,l),
(503,1223,l),
(458,1178,l),
(847,1178,l),
(847,1284,l),
(31,1284,l),
(31,1178,l),
(420,1178,l),
(375,1223,l),
(375,0,l)
);
}
);
width = 878;
},
{
anchors = (
{
name = bottom;
pos = (543,0);
},
{
name = cedilla;
pos = (548,0);
},
{
name = center;
pos = (543,642);
},
{
name = top;
pos = (543,1284);
}
);
background = {
anchors = (
{
name = bottom;
pos = (536,-50);
},
{
name = cedilla;
pos = (548,-16);
},
{
name = top_case;
pos = (541,1334);
}
);
shapes = (
{
closed = 1;
nodes = (
(702,0,l),
(702,1223,l),
(557,999,l),
(1046,999,l),
(1046,1284,l),
(30,1284,l),
(30,999,l),
(519,999,l),
(374,1223,l),
(374,0,l)
);
}
);
};
layerId = "D42B5605-DB46-4B3B-8EA0-4CE7066523CE";
shapes = (
{
closed = 1;
nodes = (
(712,0,l),
(712,1223,l),
(557,999,l),
(1056,999,l),
(1056,1284,l),
(30,1284,l),
(30,999,l),
(519,999,l),
(374,1223,l),
(374,0,l)
);
}
);
width = 1086;
}
);
metricRight = "=|";
unicode = 84;
},
{
color = 4;
glyphname = Tbar;
kernLeft = T;
kernRight = T;
layers = (
{
anchors = (
{
name = bottom;
pos = (439,0);
},
{
name = cedilla;
pos = (440,0);
},
{
name = center;
pos = (439,642);
},
{
name = top;
pos = (439,1284);
}
);
background = {
shapes = (
{
closed = 1;
nodes = (
(720,609,l),
(720,715,l),
(170,715,l),
(170,609,l)
);
},
{
ref = T;
}
);
};
layerId = "1D628CB9-BBF5-410A-9D74-9E6094BFE839";
shapes = (
{
closed = 1;
nodes = (
(375,614,l),
(375,0,l),
(503,0,l),
(503,614,l),
(720,614,l),
(720,715,l),
(503,715,l),
(503,1178,l),
(847,1178,l),
(847,1284,l),
(31,1284,l),
(31,1178,l),
(375,1178,l),
(375,715,l),
(170,715,l),
(170,614,l)
);
}
);
width = 878;
},
{
anchors = (
{
name = bottom;
pos = (543,0);
},
{
name = cedilla;
pos = (548,0);
},
{
name = center;
pos = (543,642);
},
{
name = top;
pos = (543,1284);
}
);
background = {
shapes = (
{
closed = 1;
nodes = (
(941,519,l),
(941,684,l),
(150,684,l),
(150,519,l)
);
},
{
ref = T;
}
);
};
layerId = "D42B5605-DB46-4B3B-8EA0-4CE7066523CE";
shapes = (
{
closed = 1;
nodes = (
(374,519,l),
(374,0,l),
(712,0,l),
(712,519,l),
(941,519,l),
(941,684,l),
(712,684,l),
(712,999,l),
(1056,999,l),
(1056,1284,l),
(30,1284,l),
(30,999,l),
(374,999,l),
(374,684,l),
(150,684,l),
(150,519,l)
);
}
);
width = 1086;
}
);
metricLeft = T;
metricRight = T;
unicode = 358;
},
{
color = 4;
glyphname = U;
kernLeft = U;
kernRight = U;
layers = (
{
anchors = (
{
name = bottom;
pos = (556,0);
},
{
name = ogonek;
pos = (697,0);
},
{
name = top;
pos = (556,1284);
},
{
name = topright;
pos = (868,1284);
}
);
background = {
anchors = (
{
name = bottom;
pos = (556,0);
},
{
name = ogonek;
pos = (737,30);
},
{
name = top;
pos = (556,1284);
},
{
name = top_case;
pos = (556,1284);
},
{
name = topright;
pos = (972,974);
}
);
shapes = (
{
closed = 1;
nodes = (
(942,-16,o),
(972,224,o),
(972,635,cs),
(972,1284,l),
(844,1284,l),
(844,540,ls),
(844,263,o),
(829,90,o),
(556,90,cs),
(283,90,o),
(268,263,o),
(268,540,cs),
(268,1284,l),
(140,1284,l),
(140,635,ls),
(140,224,o),
(170,-16,o),
(556,-16,cs)
);
}
);
};
layerId = "1D628CB9-BBF5-410A-9D74-9E6094BFE839";
shapes = (
{
closed = 1;
nodes = (
(860,-16,o),
(972,145,o),
(972,542,cs),
(972,1284,l),
(844,1284,l),
(844,540,ls),
(844,205,o),
(774,90,o),
(556,90,cs),
(338,90,o),
(268,205,o),
(268,540,cs),
(268,1284,l),
(140,1284,l),
(140,542,ls),
(140,145,o),
(252,-16,o),
(556,-16,cs)
);
}
);
width = 1112;
},
{
anchors = (
{
name = bottom;
pos = (635,0);
},
{
name = ogonek;
pos = (791,0);
},
{
name = top;
pos = (644,1284);
},
{
name = topright;
pos = (977,1284);
}
);
background = {
anchors = (
{
name = bottom;
pos = (635,-50);
},
{
name = ogonek;
pos = (826,42);
},
{
name = top;
pos = (623,1336);
},
{
name = top_case;
pos = (633,1336);
},
{
name = topright;
pos = (1243,844);
}
);
shapes = (
{
closed = 1;
nodes = (
(1016,-40,o),
(1163,142,o),
(1163,558,cs),
(1163,1284,l),
(835,1284,l),
(835,555,ls),
(835,334,o),
(805,245,o),
(635,245,cs),
(465,245,o),
(435,334,o),
(435,555,cs),
(435,1284,l),
(107,1284,l),
(107,558,ls),
(107,142,o),
(254,-40,o),
(635,-40,cs)
);
}
);
};
guides = (
{
angle = 270;
pos = (633,645);
}
);
layerId = "D42B5605-DB46-4B3B-8EA0-4CE7066523CE";
shapes = (
{
closed = 1;
nodes = (
(1002,-14,o),
(1175,185,o),
(1175,564,cs),
(1175,1284,l),
(837,1284,l),
(837,561,ls),
(837,360,o),
(779,271,o),
(644,271,cs),
(509,271,o),
(451,360,o),
(451,561,cs),
(451,1284,l),
(113,1284,l),
(113,564,ls),
(113,185,o),
(286,-14,o),
(644,-14,cs)
);
}
);
width = 1288;
}
);
metricRight = "=|";
unicode = 85;
},
{
color = 6;
glyphname = Uhorn;
kernLeft = U;
kernRight = hornUPPERU;
layers = (
{
background = {
anchors = (
{
name = bottom;
pos = (544,0);
},
{
name = ogonek;
pos = (725,30);
},
{
name = top;
pos = (544,1284);
},
{
name = top_case;
pos = (544,1284);
}
);
shapes = (
{
ref = U;
},
{
pos = (925,-11);
ref = horncomb;
}
);
};
layerId = "1D628CB9-BBF5-410A-9D74-9E6094BFE839";
shapes = (
{
ref = U;
},
{
pos = (518,299);
ref = horncomb;
}
);
width = 1112;
},
{
anchors = (
{
name = _topright;
pos = (956,974);
},
{
name = bottom;
pos = (540,0);
},
{
name = ogonek;
pos = (721,30);
},
{
name = top;
pos = (540,1284);
},
{
name = topright;
pos = (956,974);
}
);
associatedMasterId = "1D628CB9-BBF5-410A-9D74-9E6094BFE839";
layerId = "F9DD0791-68B1-45D6-AA01-62C5055AAAB5";
name = "Regular Jul 25 16, 11:38";
shapes = (
{
closed = 1;
nodes = (
(926,-16,o),
(956,224,o),
(956,635,cs),
(956,1284,l),
(828,1284,l),
(828,540,ls),
(828,263,o),
(813,96,o),
(540,96,cs),
(267,96,o),
(252,263,o),
(252,540,cs),
(252,1284,l),
(124,1284,l),
(124,635,ls),
(124,224,o),
(154,-16,o),
(540,-16,cs)
);
},
{
closed = 1;
nodes = (
(966,1066,ls),
(1088,1107,o),
(1194,1166,o),
(1194,1291,cs),
(1194,1331,o),
(1187,1363,o),
(1177,1389,c),
(1045,1389,l),
(1058,1361,o),
(1066,1330,o),
(1066,1299,cs),
(1066,1223,o),
(1027,1180,o),
(956,1149,cs),
(921,1134,l),
(921,1051,l)
);
}
);
width = 1080;
},
{
background = {
anchors = (
{
name = bottom;
pos = (612,0);
},
{
name = ogonek;
pos = (793,30);
},
{
name = top;
pos = (612,1334);
},
{
name = top_case;
pos = (612,1334);
}
);
shapes = (
{
ref = U;
},
{
alignment = 1;
pos = (1059,-141);
ref = horncomb;
}
);
};
layerId = "D42B5605-DB46-4B3B-8EA0-4CE7066523CE";
shapes = (
{
ref = U;
},
{
alignment = 1;
pos = (627,269);
ref = horncomb;
}
);
width = 1288;
}
);
unicode = 431;
userData = {
com.schriftgestaltung.Glyphs.ColorIndex = 7;
};
},
{
color = 4;
glyphname = V;
kernLeft = V;
kernRight = V;
layers = (
{
anchors = (
{
name = bottom;
pos = (507,0);
},
{
name = top;
pos = (507,1284);
}
);
background = {
anchors = (
{
name = bottom;
pos = (507,0);
},
{
name = top;
pos = (507,1284);
}
);
shapes = (
{
closed = 1;
nodes = (
(586,0,l),
(953,1277,l),
(828,1300,l),
(500,109,l),
(514,109,l),
(184,1304,l),
(60,1283,l),
(428,0,l)
);
}
);
};
guides = (
{
angle = 169.6951;
pos = (911,1285);
},
{
angle = 9.6052;
pos = (118,1293);
},
{
angle = 270;
pos = (508,1002);
},
{
pos = (327,1283);
}
);
layerId = "1D628CB9-BBF5-410A-9D74-9E6094BFE839";
shapes = (
{
closed = 1;
nodes = (
(586,0,l),
(953,1277,l),
(829,1300,l),
(500,109,l),
(514,109,l),
(184,1304,l),
(60,1283,l),
(428,0,l)
);
}
);
width = 1013;
},
{
anchors = (
{
name = bottom;
pos = (618,0);
},
{
name = top;
pos = (618,1284);
}
);
background = {
anchors = (
{
name = bottom;
pos = (618,0);
},
{
name = top;
pos = (618,1284);
}
);
shapes = (
{
closed = 1;
nodes = (
(810,0,l),
(1203,1255,l),
(881,1306,l),
(538,115,l),
(695,115,l),
(347,1306,l),
(25,1256,l),
(422,0,l)
);
}
);
};
guides = (
{
angle = 171.0776;
pos = (1053,1297);
},
{
angle = 188.9224;
pos = (224,1305);
},
{
pos = (1298,1273);
}
);
layerId = "D42B5605-DB46-4B3B-8EA0-4CE7066523CE";
shapes = (
{
closed = 1;
nodes = (
(820,0,l),
(1213,1255,l),
(881,1306,l),
(538,115,l),
(695,115,l),
(347,1306,l),
(15,1256,l),
(412,0,l)
);
}
);
width = 1228;
}
);
metricRight = "=|";
unicode = 86;
},
{
color = 4;
glyphname = W;
kernLeft = V;
kernRight = V;
layers = (
{
anchors = (
{
name = bottom;
pos = (672,0);
},
{
name = top;
pos = (672,1284);
}
);
background = {
anchors = (
{
name = bottom;
pos = (672,0);
},
{
name = top_case;
pos = (672,1284);
}
);
shapes = (
{
closed = 1;
nodes = (
(418,0,l),
(687,744,l),
(656,744,l),
(934,0,l),
(1076,0,l),
(1196,1279,l),
(1079,1293,l),
(968,138,l),
(987,141,l),
(729,846,l),
(614,846,l),
(366,143,l),
(386,140,l),
(265,1293,l),
(148,1284,l),
(277,0,l)
);
}
);
};
layerId = "1D628CB9-BBF5-410A-9D74-9E6094BFE839";
shapes = (
{
closed = 1;
nodes = (
(448,0,l),
(687,758,l),
(656,758,l),
(904,0,l),
(1031,0,l),
(1245,1279,l),
(1129,1293,l),
(939,128,l),
(964,131,l),
(734,850,l),
(609,850,l),
(389,133,l),
(416,130,l),
(225,1293,l),
(108,1284,l),
(322,0,l)
);
}
);
width = 1354;
},
{
anchors = (
{
name = bottom;
pos = (805,0);
},
{
name = top;
pos = (805,1284);
}
);
background = {
anchors = (
{
name = bottom;
pos = (781,0);
},
{
name = top_case;
pos = (811,1336);
}
);
shapes = (
{
closed = 1;
nodes = (
(597,0,l),
(903,808,l),
(708,808,l),
(1013,0,l),
(1395,0,l),
(1522,1269,l),
(1207,1301,l),
(1117,138,l),
(1216,141,l),
(933,926,l),
(678,926,l),
(395,143,l),
(495,140,l),
(405,1301,l),
(89,1269,l),
(216,0,l)
);
}
);
};
layerId = "D42B5605-DB46-4B3B-8EA0-4CE7066523CE";
shapes = (
{
closed = 1;
nodes = (
(687,0,l),
(889,782,l),
(723,782,l),
(923,0,l),
(1295,0,l),
(1522,1269,l),
(1207,1301,l),
(1027,138,l),
(1126,141,l),
(933,900,l),
(678,900,l),
(485,143,l),
(585,140,l),
(405,1301,l),
(89,1269,l),
(316,0,l)
);
}
);
width = 1610;
}
);
unicode = 87;
},
{
color = 3;
glyphname = X;
kernLeft = X;
kernRight = X;
layers = (
{
anchors = (
{
name = bottom;
pos = (476,0);
},
{
name = top;
pos = (476,1284);
}
);
background = {
anchors = (
{
name = bottom;
pos = (476,0);
},
{
name = top;
pos = (476,1284);
}
);
shapes = (
{
closed = 1;
nodes = (
(183,-10,l),
(509,609,l),
(468,609,l),
(788,-10,l),
(916,11,l),
(550,697,l),
(551,617,l),
(897,1277,l),
(771,1298,l),
(468,705,l),
(508,705,l),
(200,1298,l),
(73,1277,l),
(418,618,l),
(419,698,l),
(56,11,l)
);
}
);
};
guides = (
{
angle = 270;
pos = (488,837);
},
{
pos = (-2228,11);
}
);
layerId = "1D628CB9-BBF5-410A-9D74-9E6094BFE839";
shapes = (
{
closed = 1;
nodes = (
(183,-10,l),
(509,609,l),
(462,609,l),
(782,-10,l),
(906,11,l),
(540,687,l),
(541,627,l),
(887,1277,l),
(765,1298,l),
(462,705,l),
(508,705,l),
(200,1298,l),
(77,1277,l),
(422,628,l),
(423,688,l),
(60,11,l)
);
}
);
width = 966;
},
{
anchors = (
{
name = bottom;
pos = (589,0);
},
{
name = top;
pos = (588,1284);
}
);
background = {
anchors = (
{
name = bottom;
pos = (572,0);
},
{
name = top;
pos = (572,1284);
}
);
shapes = (
{
closed = 1;
nodes = (
(344,-28,l),
(685,608,l),
(488,608,l),
(833,-28,l),
(1143,20,l),
(763,696,l),
(754,616,l),
(1124,1267,l),
(809,1316,l),
(478,704,l),
(694,704,l),
(366,1316,l),
(55,1267,l),
(411,617,l),
(402,697,l),
(33,20,l)
);
}
);
};
guides = (
{
angle = 188.9224;
pos = (1094,-10);
},
{
angle = 171.0776;
pos = (265,-19);
},
{
angle = 188.9224;
pos = (265,1305);
},
{
angle = 171.0776;
pos = (1040,1285);
}
);
layerId = "D42B5605-DB46-4B3B-8EA0-4CE7066523CE";
shapes = (
{
closed = 1;
nodes = (
(354,-28,l),
(685,598,l),
(488,598,l),
(823,-28,l),
(1153,20,l),
(763,686,l),
(774,626,l),
(1154,1267,l),
(819,1316,l),
(498,714,l),
(674,714,l),
(356,1316,l),
(25,1267,l),
(391,627,l),
(402,687,l),
(23,20,l)
);
}
);
width = 1177;
}
);
unicode = 88;
},
{
color = 4;
glyphname = Y;
kernLeft = Y;
kernRight = Y;
layers = (
{
anchors = (
{
name = bottom;
pos = (453,0);
},
{
name = top;
pos = (451,1284);
}
);
background = {
anchors = (
{
name = bottom;
pos = (453,0);
},
{
name = top;
pos = (451,1284);
},
{
name = top_case;
pos = (451,1284);
},
{
name = topleft;
pos = (10,1284);
}
);
shapes = (
{
closed = 1;
nodes = (
(517,0,l),
(517,588,l),
(885,1277,l),
(750,1299,l),
(433,664,l),
(473,664,l),
(151,1299,l),
(21,1277,l),
(389,586,l),
(389,0,l)
);
}
);
};
guides = (
{
angle = 270;
pos = (453,901);
}
);
layerId = "1D628CB9-BBF5-410A-9D74-9E6094BFE839";
shapes = (
{
closed = 1;
nodes = (
(517,0,l),
(517,588,l),
(885,1277,l),
(754,1299,l),
(435,669,l),
(473,669,l),
(151,1299,l),
(21,1277,l),
(389,586,l),
(389,0,l)
);
}
);
width = 906;
},
{
anchors = (
{
name = bottom;
pos = (553,0);
},
{
name = top;
pos = (553,1284);
}
);
background = {
anchors = (
{
name = bottom;
pos = (544,-50);
},
{
name = top;
pos = (542,1356);
},
{
name = top_case;
pos = (551,1336);
},
{
name = topleft;
pos = (0,1284);
}
);
shapes = (
{
closed = 1;
nodes = (
(717,0,l),
(717,501,l),
(1096,1267,l),
(780,1317,l),
(508,700,l),
(595,700,l),
(326,1317,l),
(10,1267,l),
(389,501,l),
(389,0,l)
);
}
);
};
guides = (
{
angle = 270;
pos = (553,1096);
},
{
angle = 171.0776;
pos = (982,1290);
},
{
angle = 188.9224;
pos = (153,1295);
},
{
pos = (50,1272);
}
);
layerId = "D42B5605-DB46-4B3B-8EA0-4CE7066523CE";
shapes = (
{
closed = 1;
nodes = (
(722,0,l),
(722,541,l),
(1116,1267,l),
(800,1317,l),
(508,740,l),
(595,740,l),
(306,1317,l),
(-10,1267,l),
(384,541,l),
(384,0,l)
);
}
);
width = 1106;
}
);
unicode = 89;
},
{
color = 4;
glyphname = Z;
kernLeft = Z;
kernRight = Z;
layers = (
{
anchors = (
{
name = bottom;
pos = (441,0);
},
{
name = top;
pos = (441,1284);
}
);
background = {
anchors = (
{
name = bottom;
pos = (441,0);
},
{
name = top_case;
pos = (441,1284);
}
);
shapes = (
{
closed = 1;
nodes = (
(818,0,l),
(818,101,l),
(174,101,l),
(202,60,l),
(797,1176,l),
(781,1284,l),
(112,1284,l),
(112,1183,l),
(705,1183,l),
(677,1224,l),
(81,98,l),
(102,0,l)
);
}
);
};
guides = (
{
angle = 270;
pos = (818,598);
},
{
angle = 270;
pos = (81,633);
}
);
layerId = "1D628CB9-BBF5-410A-9D74-9E6094BFE839";
shapes = (
{
closed = 1;
nodes = (
(818,0,l),
(818,106,l),
(164,106,l),
(192,60,l),
(797,1186,l),
(781,1284,l),
(112,1284,l),
(112,1178,l),
(714,1178,l),
(686,1224,l),
(81,98,l),
(102,0,l)
);
}
);
width = 899;
},
{
anchors = (
{
name = bottom;
pos = (515,0);
},
{
name = top;
pos = (540,1284);
}
);
background = {
anchors = (
{
name = bottom;
pos = (515,-50);
},
{
name = top_case;
pos = (540,1334);
}
);
shapes = (
{
closed = 1;
nodes = (
(992,0,l),
(992,285,l),
(258,285,l),
(371,179,l),
(975,1046,l),
(949,1284,l),
(86,1284,l),
(86,999,l),
(769,999,l),
(660,1110,l),
(52,228,l),
(76,0,l)
);
}
);
};
guides = (
{
angle = -83.9217;
pos = (929,1475);
},
{
angle = -83.9217;
pos = (-21,912);
},
{
angle = 270;
pos = (992,598);
},
{
angle = 270;
pos = (55,487);
},
{
angle = 180;
pos = (428,999);
}
);
layerId = "D42B5605-DB46-4B3B-8EA0-4CE7066523CE";
shapes = (
{
closed = 1;
nodes = (
(945,0,l),
(945,285,l),
(268,285,l),
(395,179,l),
(928,1046,l),
(902,1284,l),
(86,1284,l),
(86,999,l),
(722,999,l),
(604,1110,l),
(62,228,l),
(86,0,l)
);
}
);
width = 987;
}
);
unicode = 90;
},
{
color = 4;
glyphname = a;
kernLeft = a;
kernRight = StraightLOWER;
layers = (
{
anchors = (
{
name = bottom;
pos = (467,0);
},
{
name = ogonek;
pos = (800,0);
},
{
name = top;
pos = (464,985);
}
);
background = {
anchors = (
{
name = bottom;
pos = (467,0);
},
{
name = ogonek;
pos = (750,0);
},
{
name = top;
pos = (464,985);
}
);
shapes = (
{
closed = 1;
nodes = (
(533,-10,o),
(658,45,o),
(697,77,c),
(673,113,l),
(704,0,l),
(800,0,l),
(800,627,ls),
(800,909,o),
(685,1000,o),
(471,1000,cs),
(374,1000,o),
(260,976,o),
(156,942,c),
(181,843,l),
(279,875,o),
(383,895,o),
(465,895,cs),
(591,895,o),
(672,838,o),
(672,609,cs),
(672,508,l),
(724,540,l),
(624,572,o),
(526,578,o),
(469,577,cs),
(198,577,o),
(99,403,o),
(99,269,cs),
(99,83,o),
(231,-10,o),
(415,-10,cs)
);
},
{
closed = 1;
nodes = (
(303,92,o),
(227,145,o),
(227,278,cs),
(227,412,o),
(334,483,o),
(511,483,cs),
(564,483,o),
(629,476,o),
(708,444,c),
(672,502,l),
(672,112,l),
(690,170,l),
(640,128,o),
(534,92,o),
(435,92,cs)
);
}
);
};
guides = (
{
pos = (246,137);
},
{
pos = (226,50);
}
);
layerId = "1D628CB9-BBF5-410A-9D74-9E6094BFE839";
shapes = (
{
closed = 1;
nodes = (
(533,-10,o),
(658,45,o),
(697,77,c),
(673,113,l),
(704,0,l),
(800,0,l),
(800,627,ls),
(800,909,o),
(685,1000,o),
(471,1000,cs),
(374,1000,o),
(260,976,o),
(156,942,c),
(181,843,l),
(279,875,o),
(383,895,o),
(465,895,cs),
(591,895,o),
(672,838,o),
(672,609,cs),
(672,508,l),
(724,540,l),
(624,572,o),
(526,578,o),
(469,577,cs),
(198,577,o),
(99,403,o),
(99,269,cs),
(99,83,o),
(231,-10,o),
(415,-10,cs)
);
},
{
closed = 1;
nodes = (
(303,92,o),
(227,145,o),
(227,278,cs),
(227,412,o),
(334,483,o),
(511,483,cs),
(564,483,o),
(629,476,o),
(708,444,c),
(672,502,l),
(672,112,l),
(690,170,l),
(640,128,o),
(534,92,o),
(435,92,cs)
);
}
);
width = 935;
},
{
anchors = (
{
name = bottom;
pos = (510,0);
},
{
name = ogonek;
pos = (953,0);
},
{
name = top;
pos = (527,1015);
}
);
background = {
anchors = (
{
name = bottom;
pos = (510,-50);
},
{
name = ogonek;
pos = (830,5);
},
{
name = top;
pos = (527,1055);
}
);
shapes = (
{
closed = 1;
nodes = (
(519,-18,o),
(622,38,o),
(703,109,c),
(631,130,l),
(677,0,l),
(953,0,l),
(953,607,ls),
(953,919,o),
(743,1030,o),
(544,1030,cs),
(447,1030,o),
(316,1026,o),
(112,968,c),
(178,722,l),
(320,757,o),
(415,763,o),
(478,763,cs),
(600,763,o),
(635,717,o),
(635,611,cs),
(635,483,l),
(687,583,l),
(618,609,o),
(559,624,o),
(452,624,cs),
(166,624,o),
(47,449,o),
(47,298,cs),
(47,89,o),
(196,-18,o),
(407,-18,cs)
);
},
{
closed = 1;
nodes = (
(407,212,o),
(367,244,o),
(367,302,cs),
(367,346,o),
(401,399,o),
(493,399,cs),
(568,399,o),
(610,387,o),
(691,350,c),
(635,477,l),
(635,162,l),
(683,299,l),
(634,255,o),
(556,212,o),
(471,212,cs)
);
}
);
};
layerId = "D42B5605-DB46-4B3B-8EA0-4CE7066523CE";
shapes = (
{
closed = 1;
nodes = (
(524,-18,o),
(624,38,o),
(693,109,c),
(631,130,l),
(677,0,l),
(953,0,l),
(953,627,ls),
(953,919,o),
(767,1030,o),
(534,1030,cs),
(405,1030,o),
(249,1002,o),
(132,948,c),
(178,702,l),
(320,757,o),
(409,763,o),
(469,763,cs),
(583,763,o),
(635,697,o),
(635,591,cs),
(635,483,l),
(687,572,l),
(620,608,o),
(563,624,o),
(459,624,cs),
(182,624,o),
(67,449,o),
(67,298,cs),
(67,89,o),
(211,-18,o),
(416,-18,cs)
);
},
{
closed = 1;
nodes = (
(414,201,o),
(377,240,o),
(377,299,cs),
(377,365,o),
(426,410,o),
(499,410,cs),
(562,410,o),
(613,396,o),
(691,355,c),
(635,477,l),
(635,162,l),
(683,298,l),
(636,249,o),
(560,201,o),
(478,201,cs)
);
}
);
width = 1053;
}
);
metricRight = "=n";
unicode = 97;
},
{
color = 4;
glyphname = ae;
kernLeft = a;
kernRight = RoundLOWER;
layers = (
{
anchors = (
{
name = bottom;
pos = (769,0);
},
{
name = top;
pos = (769,985);
}
);
background = {
shapes = (
{
closed = 1;
nodes = (
(1201,-10,o),
(1323,20,o),
(1411,70,c),
(1368,161,l),
(1284,122,o),
(1199,95,o),
(1089,95,cs),
(932,95,o),
(789,167,o),
(801,523,c),
(755,469,l),
(1418,469,l),
(1423,528,o),
(1426,574,o),
(1426,604,cs),
(1426,841,o),
(1293,1000,o),
(1071,1000,cs),
(838,1000,o),
(672,843,o),
(672,496,cs),
(672,140,o),
(821,-10,o),
(1078,-10,cs)
);
},
{
closed = 1;
nodes = (
(788,750,o),
(888,895,o),
(1072,895,cs),
(1232,895,o),
(1317,767,o),
(1306,570,c),
(1306,514,l),
(1352,559,l),
(755,559,l),
(801,520,l)
);
}
);
};
guides = (
{
pos = (526,469);
}
);
layerId = "1D628CB9-BBF5-410A-9D74-9E6094BFE839";
shapes = (
{
closed = 1;
nodes = (
(573,-10,o),
(685,47,o),
(773,117,c),
(851,28,o),
(942,-10,o),
(1078,-10,cs),
(1201,-10,o),
(1323,20,o),
(1411,70,c),
(1368,161,l),
(1284,122,o),
(1199,95,o),
(1089,95,cs),
(932,95,o),
(789,167,o),
(802,519,c),
(788,750,o),
(888,895,o),
(1072,895,cs),
(1232,895,o),
(1317,767,o),
(1306,560,c),
(781,560,l),
(781,469,l),
(1418,469,l),
(1423,528,o),
(1426,574,o),
(1426,604,cs),
(1426,841,o),
(1293,1000,o),
(1074,1000,cs),
(929,1000,o),
(807,939,o),
(741,810,c),
(770,806,l),
(718,948,o),
(603,1000,o),
(464,1000,cs),
(367,1000,o),
(260,976,o),
(156,942,c),
(181,843,l),
(279,875,o),
(383,895,o),
(465,895,cs),
(591,895,o),
(672,841,o),
(672,609,cs),
(672,515,l),
(724,540,l),
(624,572,o),
(526,577,o),
(469,577,cs),
(198,577,o),
(99,403,o),
(99,269,cs),
(99,83,o),
(241,-10,o),
(425,-10,cs)
);
},
{
closed = 1;
nodes = (
(313,92,o),
(227,145,o),
(227,278,cs),
(227,412,o),
(334,483,o),
(511,483,cs),
(564,483,o),
(629,476,o),
(708,444,c),
(672,509,l),
(671,370,o),
(690,262,o),
(733,181,c),
(747,221,l),
(680,152,o),
(593,92,o),
(445,92,cs)
);
}
);
width = 1520;
},
{
anchors = (
{
name = bottom;
pos = (771,0);
},
{
name = top;
pos = (771,985);
}
);
associatedMasterId = "1D628CB9-BBF5-410A-9D74-9E6094BFE839";
layerId = "5E165179-021E-4BCF-A508-2B1321AC368B";
name = "Regular Jul 6 16, 13:18";
shapes = (
{
closed = 1;
nodes = (
(166,942,l),
(270,976,o),
(377,1000,o),
(474,1000,cs),
(599,1000,o),
(726,944,o),
(762,789,c),
(829,941,o),
(950,1000,o),
(1087,1000,cs),
(1290,1000,o),
(1429,844,o),
(1429,707,cs),
(1429,581,o),
(1341,469,o),
(1128,469,cs),
(813,469,l),
(817,162,o),
(956,96,o),
(1102,96,cs),
(1202,96,o),
(1289,117,o),
(1382,176,c),
(1421,75,l),
(1325,16,o),
(1204,-10,o),
(1109,-10,cs),
(960,-10,o),
(842,38,o),
(768,149,c),
(710,64,o),
(625,-10,o),
(425,-10,cs),
(241,-10,o),
(109,85,o),
(109,284,cs),
(109,429,o),
(223,567,o),
(597,567,cs),
(685,567,l),
(685,599,ls),
(684,831,o),
(594,895,o),
(468,895,cs),
(386,895,o),
(289,868,o),
(191,843,c)
);
},
{
closed = 1;
nodes = (
(229,278,cs),
(229,153,o),
(305,92,o),
(445,92,cs),
(551,92,o),
(627,113,o),
(732,216,c),
(703,284,o),
(687,369,o),
(685,472,c),
(685,473,l),
(629,473,ls),
(462,473,o),
(229,455,o)
);
},
{
closed = 1;
nodes = (
(813,559,c),
(1126,559,ls),
(1261,559,o),
(1321,630,o),
(1321,707,cs),
(1321,798,o),
(1238,896,o),
(1099,896,cs),
(917,896,o),
(829,767,o)
);
}
);
width = 1541;
},
{
anchors = (
{
name = bottom;
pos = (813,0);
},
{
name = top;
pos = (813,1015);
}
);
background = {
anchors = (
{
name = bottom;
pos = (771,-100);
},
{
name = ogonek;
pos = (760,-100);
},
{
name = top;
pos = (821,1085);
}
);
shapes = (
{
closed = 1;
nodes = (
(1256,-15,o),
(1407,20,o),
(1527,89,c),
(1421,328,l),
(1304,274,o),
(1234,251,o),
(1140,251,cs),
(1011,251,o),
(963,321,o),
(963,468,c),
(848,395,l),
(1541,395,l),
(1550,454,o),
(1551,542,o),
(1551,577,cs),
(1551,881,o),
(1367,1030,o),
(1119,1030,cs),
(867,1030,o),
(635,909,o),
(635,504,cs),
(635,169,o),
(808,-15,o),
(1133,-15,cs)
);
},
{
closed = 1;
nodes = (
(948,706,o),
(993,793,o),
(1107,793,cs),
(1205,793,o),
(1249,714,o),
(1236,562,c),
(1237,439,l),
(1325,597,l),
(848,597,l),
(963,514,l)
);
}
);
};
guides = (
{
pos = (526,382);
}
);
layerId = "D42B5605-DB46-4B3B-8EA0-4CE7066523CE";
shapes = (
{
closed = 1;
nodes = (
(550,-18,o),
(671,11,o),
(783,101,c),
(869,8,o),
(1027,-15,o),
(1133,-15,cs),
(1256,-15,o),
(1407,20,o),
(1527,89,c),
(1421,328,l),
(1304,274,o),
(1234,251,o),
(1140,251,cs),
(1011,251,o),
(957,321,o),
(960,507,c),
(948,706,o),
(993,793,o),
(1107,793,cs),
(1205,793,o),
(1242,714,o),
(1238,597,c),
(877,597,l),
(877,395,l),
(1542,395,l),
(1551,455,o),
(1552,535,o),
(1552,570,cs),
(1552,879,o),
(1368,1030,o),
(1116,1030,cs),
(967,1030,o),
(864,984,o),
(789,909,c),
(827,907,l),
(762,984,o),
(659,1030,o),
(534,1030,cs),
(405,1030,o),
(249,1002,o),
(132,948,c),
(178,702,l),
(320,757,o),
(409,763,o),
(469,763,cs),
(587,763,o),
(635,693,o),
(635,579,cs),
(635,543,l),
(687,572,l),
(620,608,o),
(563,624,o),
(459,624,cs),
(182,624,o),
(67,449,o),
(67,298,cs),
(67,89,o),
(211,-18,o),
(416,-18,cs)
);
},
{
closed = 1;
nodes = (
(425,201,o),
(377,240,o),
(377,299,cs),
(377,365,o),
(426,410,o),
(499,410,cs),
(562,410,o),
(613,396,o),
(691,355,c),
(639,419,l),
(644,350,o),
(660,292,o),
(683,239,c),
(683,298,l),
(636,249,o),
(571,201,o),
(489,201,cs)
);
}
);
width = 1624;
}
);
metricLeft = "=a";
metricRight = "=e";
unicode = 230;
userData = {
com.typemytype.robofont.layerData = {
"Regular Jul 6 16, 13:18" = {
anchors = (
{
name = top;
x = 771;
y = 985;
},
{
name = bottom;
x = 771;
y = 0;
}
);
components = (
);
contours = (
{
points = (
{
segmentType = line;
smooth = 0;
x = 166;
y = 942;
},
{
smooth = 0;
x = 270;
y = 976;
},
{
smooth = 0;
x = 377;
y = 1000;
},
{
segmentType = curve;
smooth = 1;
x = 474;
y = 1000;
},
{
smooth = 0;
x = 599;
y = 1000;
},
{
smooth = 0;
x = 726;
y = 944;
},
{
segmentType = curve;
smooth = 0;
x = 762;
y = 789;
},
{
smooth = 0;
x = 829;
y = 941;
},
{
smooth = 0;
x = 950;
y = 1000;
},
{
segmentType = curve;
smooth = 1;
x = 1087;
y = 1000;
},
{
smooth = 0;
x = 1290;
y = 1000;
},
{
smooth = 0;
x = 1429;
y = 844;
},
{
segmentType = curve;
smooth = 1;
x = 1429;
y = 707;
},
{
smooth = 0;
x = 1429;
y = 581;
},
{
smooth = 0;
x = 1341;
y = 469;
},
{
segmentType = curve;
smooth = 1;
x = 1128;
y = 469;
},
{
segmentType = line;
smooth = 0;
x = 813;
y = 469;
},
{
smooth = 0;
x = 817;
y = 162;
},
{
smooth = 0;
x = 956;
y = 96;
},
{
segmentType = curve;
smooth = 1;
x = 1102;
y = 96;
},
{
smooth = 0;
x = 1202;
y = 96;
},
{
smooth = 0;
x = 1289;
y = 117;
},
{
segmentType = curve;
smooth = 0;
x = 1382;
y = 176;
},
{
segmentType = line;
smooth = 0;
x = 1421;
y = 75;
},
{
smooth = 0;
x = 1325;
y = 16;
},
{
smooth = 0;
x = 1204;
y = -10;
},
{
segmentType = curve;
smooth = 1;
x = 1109;
y = -10;
},
{
smooth = 0;
x = 960;
y = -10;
},
{
smooth = 0;
x = 842;
y = 38;
},
{
segmentType = curve;
smooth = 0;
x = 768;
y = 149;
},
{
smooth = 0;
x = 710;
y = 64;
},
{
smooth = 0;
x = 625;
y = -10;
},
{
segmentType = curve;
smooth = 1;
x = 425;
y = -10;
},
{
smooth = 0;
x = 241;
y = -10;
},
{
smooth = 0;
x = 109;
y = 85;
},
{
segmentType = curve;
smooth = 1;
x = 109;
y = 284;
},
{
smooth = 0;
x = 109;
y = 429;
},
{
smooth = 0;
x = 223;
y = 567;
},
{
segmentType = curve;
smooth = 1;
x = 597;
y = 567;
},
{
segmentType = line;
smooth = 0;
x = 685;
y = 567;
},
{
segmentType = line;
smooth = 1;
x = 685;
y = 599;
},
{
smooth = 0;
x = 684;
y = 831;
},
{
smooth = 0;
x = 594;
y = 895;
},
{
segmentType = curve;
smooth = 1;
x = 468;
y = 895;
},
{
smooth = 0;
x = 386;
y = 895;
},
{
smooth = 0;
x = 289;
y = 868;
},
{
segmentType = curve;
smooth = 0;
x = 191;
y = 843;
}
);
},
{
points = (
{
segmentType = curve;
smooth = 1;
x = 229;
y = 278;
},
{
smooth = 0;
x = 229;
y = 153;
},
{
smooth = 0;
x = 305;
y = 92;
},
{
segmentType = curve;
smooth = 1;
x = 445;
y = 92;
},
{
smooth = 0;
x = 551;
y = 92;
},
{
smooth = 0;
x = 627;
y = 113;
},
{
segmentType = curve;
smooth = 0;
x = 732;
y = 216;
},
{
smooth = 0;
x = 703;
y = 284;
},
{
smooth = 0;
x = 687;
y = 369;
},
{
segmentType = curve;
smooth = 0;
x = 685;
y = 472;
},
{
segmentType = line;
smooth = 0;
x = 685;
y = 473;
},
{
segmentType = line;
smooth = 1;
x = 629;
y = 473;
},
{
smooth = 0;
x = 462;
y = 473;
},
{
smooth = 0;
x = 229;
y = 455;
}
);
},
{
points = (
{
segmentType = curve;
smooth = 0;
x = 813;
y = 559;
},
{
segmentType = line;
smooth = 1;
x = 1126;
y = 559;
},
{
smooth = 0;
x = 1261;
y = 559;
},
{
smooth = 0;
x = 1321;
y = 630;
},
{
segmentType = curve;
smooth = 1;
x = 1321;
y = 707;
},
{
smooth = 0;
x = 1321;
y = 798;
},
{
smooth = 0;
x = 1238;
y = 896;
},
{
segmentType = curve;
smooth = 1;
x = 1099;
y = 896;
},
{
smooth = 0;
x = 917;
y = 896;
},
{
smooth = 0;
x = 829;
y = 767;
}
);
}
);
lib = {
};
name = ae;
unicodes = (
);
width = 1541;
};
};
};
},
{
color = 4;
glyphname = b;
kernLeft = h;
kernRight = RoundLOWER;
layers = (
{
anchors = (
{
name = bottom;
pos = (502,0);
},
{
name = top;
pos = (518,1358);
}
);
background = {
anchors = (
{
name = bottom;
pos = (502,0);
},
{
name = top_case;
pos = (214,1358);
}
);
shapes = (
{
closed = 1;
nodes = (
(757,-10,o),
(886,126,o),
(886,493,cs),
(886,852,o),
(750,1000,o),
(550,1000,cs),
(457,1000,o),
(362,978,o),
(245,897,c),
(278,878,l),
(278,1358,l),
(150,1358,l),
(150,0,l),
(246,0,l),
(279,92,l),
(237,66,l),
(323,10,o),
(437,-10,o),
(520,-10,cs)
);
},
{
closed = 1;
nodes = (
(278,854,l),
(241,787,l),
(370,867,o),
(459,895,o),
(534,895,cs),
(691,895,o),
(758,767,o),
(758,491,cs),
(758,201,o),
(682,95,o),
(502,95,cs),
(395,95,o),
(340,112,o),
(247,160,c),
(278,112,l)
);
}
);
};
guides = (
{
pos = (124,144);
},
{
pos = (246,50);
}
);
layerId = "1D628CB9-BBF5-410A-9D74-9E6094BFE839";
shapes = (
{
closed = 1;
nodes = (
(747,-10,o),
(886,126,o),
(886,493,cs),
(886,852,o),
(780,1000,o),
(550,1000,cs),
(457,1000,o),
(362,978,o),
(245,897,c),
(278,878,l),
(278,1358,l),
(150,1358,l),
(150,0,l),
(246,0,l),
(279,92,l),
(237,71,l),
(323,15,o),
(437,-10,o),
(520,-10,cs)
);
},
{
closed = 1;
nodes = (
(278,854,l),
(241,787,l),
(370,877,o),
(459,895,o),
(534,895,cs),
(691,895,o),
(758,767,o),
(758,491,cs),
(758,201,o),
(682,95,o),
(502,95,cs),
(395,95,o),
(340,112,o),
(247,160,c),
(278,112,l)
);
}
);
width = 988;
},
{
anchors = (
{
name = bottom;
pos = (686,0);
},
{
name = top;
pos = (606,1358);
}
);
background = {
anchors = (
{
name = bottom;
pos = (686,-10);
},
{
name = top_case;
pos = (276,1408);
}
);
shapes = (
{
closed = 1;
nodes = (
(2267,-10,o),
(2497,74,o),
(2497,503,cs),
(2497,947,o),
(2290,1030,o),
(2096,1030,cs),
(1964,1030,o),
(1891,996,o),
(1821,967,c),
(1843,931,l),
(1843,1358,l),
(1515,1358,l),
(1515,0,l),
(1809,0,l),
(1843,103,l),
(1810,70,l),
(1871,38,o),
(1965,-10,o),
(2092,-10,cs)
);
},
{
closed = 1;
nodes = (
(1843,884,l),
(1703,590,l),
(1856,721,o),
(1941,745,o),
(2009,745,cs),
(2109,745,o),
(2169,700,o),
(2169,506,cs),
(2169,337,o),
(2115,272,o),
(2009,272,cs),
(1935,272,o),
(1853,290,o),
(1704,394,c),
(1843,242,l)
);
},
{
closed = 1;
nodes = (
(565,1025,o),
(471,977,o),
(410,945,c),
(443,912,l),
(409,1015,l),
(115,1015,l),
(115,-343,l),
(443,-343,l),
(443,84,l),
(421,58,l),
(512,13,o),
(618,-15,o),
(696,-15,cs),
(962,-15,o),
(1097,163,o),
(1097,512,cs),
(1097,941,o),
(867,1025,o),
(692,1025,cs)
);
},
{
closed = 1;
nodes = (
(304,621,l),
(453,725,o),
(535,743,o),
(609,743,cs),
(715,743,o),
(769,678,o),
(769,509,cs),
(769,337,o),
(724,270,o),
(609,270,cs),
(522,270,o),
(429,317,o),
(303,425,c),
(443,131,l),
(443,773,l)
);
}
);
};
layerId = "D42B5605-DB46-4B3B-8EA0-4CE7066523CE";
shapes = (
{
closed = 1;
nodes = (
(952,-15,o),
(1097,164,o),
(1097,508,cs),
(1097,852,o),
(962,1030,o),
(696,1030,cs),
(618,1030,o),
(512,1002,o),
(421,957,c),
(443,931,l),
(443,1358,l),
(115,1358,l),
(115,0,l),
(409,0,l),
(443,103,l),
(421,78,l),
(512,3,o),
(618,-15,o),
(696,-15,cs)
);
},
{
closed = 1;
nodes = (
(443,884,l),
(303,590,l),
(429,698,o),
(522,745,o),
(609,745,cs),
(724,745,o),
(769,680,o),
(769,508,cs),
(769,336,o),
(724,270,o),
(609,270,cs),
(522,270,o),
(429,327,o),
(303,455,c),
(443,242,l)
);
}
);
width = 1172;
}
);
metricLeft = "=h";
metricRight = "=o";
unicode = 98;
userData = {
com.fontlab.hintData = {
hhints = (
{
position = -10;
width = 106;
},
{
position = 895;
width = 105;
},
{
position = 1338;
width = 20;
}
);
vhints = (
{
position = 140;
width = 128;
},
{
position = 140;
width = 104;
},
{
position = 748;
width = 128;
}
);
};
};
},
{
color = 3;
glyphname = c;
kernLeft = RoundLOWER;
kernRight = c;
layers = (
{
anchors = (
{
name = bottom;
pos = (426,0);
},
{
name = cedilla;
pos = (467,0);
},
{
name = top;
pos = (490,985);
}
);
background = {
anchors = (
{
name = bottom;
pos = (1526,0);
},
{
name = cedilla;
pos = (1567,0);
},
{
name = top;
pos = (1590,985);
}
);
shapes = (
{
closed = 1;
nodes = (
(1707,-10,o),
(1799,20,o),
(1892,70,c),
(1844,161,l),
(1760,122,o),
(1691,95,o),
(1618,95,cs),
(1417,95,o),
(1330,215,o),
(1330,493,cs),
(1330,732,o),
(1384,895,o),
(1588,895,cs),
(1655,895,o),
(1720,887,o),
(1778,857,c),
(1751,914,l),
(1751,672,l),
(1853,682,l),
(1853,940,l),
(1768,980,o),
(1681,1000,o),
(1590,1000,cs),
(1329,1000,o),
(1202,831,o),
(1202,495,cs),
(1202,140,o),
(1351,-10,o),
(1604,-10,cs)
);
},
{
closed = 1;
nodes = (
(755,-10,o),
(870,164,o),
(870,495,cs),
(870,826,o),
(755,1000,o),
(486,1000,cs),
(217,1000,o),
(102,826,o),
(102,495,cs),
(102,164,o),
(217,-10,o),
(486,-10,cs)
);
},
{
closed = 1;
nodes = (
(289,95,o),
(230,247,o),
(230,495,cs),
(230,743,o),
(289,895,o),
(486,895,cs),
(683,895,o),
(742,743,o),
(742,495,cs),
(742,247,o),
(683,95,o),
(486,95,cs)
);
}
);
};
guides = (
{
angle = 270;
pos = (489,516);
},
{
angle = 270;
pos = (753,512);
}
);
layerId = "1D628CB9-BBF5-410A-9D74-9E6094BFE839";
shapes = (
{
closed = 1;
nodes = (
(607,-10,o),
(699,20,o),
(787,70,c),
(744,161,l),
(660,122,o),
(591,95,o),
(518,95,cs),
(317,95,o),
(230,215,o),
(230,493,cs),
(230,732,o),
(284,895,o),
(488,895,cs),
(555,895,o),
(620,887,o),
(678,857,c),
(651,914,l),
(651,672,l),
(753,682,l),
(753,940,l),
(668,980,o),
(581,1000,o),
(490,1000,cs),
(229,1000,o),
(102,831,o),
(102,495,cs),
(102,140,o),
(251,-10,o),
(504,-10,cs)
);
}
);
width = 842;
},
{
anchors = (
{
name = bottom;
pos = (565,0);
},
{
name = cedilla;
pos = (535,0);
},
{
name = top;
pos = (532,1015);
}
);
background = {
anchors = (
{
name = bottom;
pos = (469,0);
},
{
name = cedilla;
pos = (535,-20);
},
{
name = top;
pos = (533,1035);
}
);
shapes = (
{
closed = 1;
nodes = (
(1593,-40,o),
(1762,6,o),
(1887,75,c),
(1771,318,l),
(1646,263,o),
(1571,245,o),
(1481,245,cs),
(1363,245,o),
(1303,302,o),
(1303,493,cs),
(1303,695,o),
(1357,745,o),
(1464,745,cs),
(1531,745,o),
(1623,705,o),
(1681,677,c),
(1564,934,l),
(1564,572,l),
(1846,602,l),
(1846,940,l),
(1751,980,o),
(1589,1030,o),
(1464,1030,cs),
(1125,1030,o),
(975,886,o),
(975,495,cs),
(975,112,o),
(1127,-40,o),
(1464,-40,cs)
);
},
{
closed = 1;
nodes = (
(863,-30,o),
(1033,137,o),
(1033,500,cs),
(1033,863,o),
(863,1030,o),
(554,1030,cs),
(245,1030,o),
(75,863,o),
(75,500,cs),
(75,137,o),
(245,-30,o),
(554,-30,cs)
);
},
{
closed = 1;
nodes = (
(454,240,o),
(403,291,o),
(403,500,cs),
(403,709,o),
(457,760,o),
(554,760,cs),
(651,760,o),
(705,709,o),
(705,500,cs),
(705,291,o),
(654,240,o),
(554,240,cs)
);
}
);
};
guides = (
{
angle = 270;
pos = (553,512);
},
{
angle = 270;
pos = (946,512);
}
);
layerId = "D42B5605-DB46-4B3B-8EA0-4CE7066523CE";
shapes = (
{
closed = 1;
nodes = (
(676,-15,o),
(827,21,o),
(947,90,c),
(841,333,l),
(724,278,o),
(654,255,o),
(570,255,cs),
(451,255,o),
(403,326,o),
(403,500,cs),
(403,709,o),
(457,760,o),
(564,760,cs),
(631,760,o),
(723,720,o),
(781,677,c),
(614,934,l),
(614,552,l),
(896,582,l),
(896,940,l),
(801,1000,o),
(689,1030,o),
(564,1030,cs),
(245,1030,o),
(75,863,o),
(75,500,cs),
(75,172,o),
(248,-15,o),
(563,-15,cs)
);
}
);
width = 983;
}
);
metricLeft = "=o";
unicode = 99;
},
{
color = 4;
glyphname = d;
kernLeft = RoundLOWER;
kernRight = d;
layers = (
{
anchors = (
{
name = bottom;
pos = (473,0);
},
{
name = center;
pos = (473,493);
},
{
name = top;
pos = (774,1358);
},
{
name = topright;
pos = (908,1358);
}
);
background = {
shapes = (
{
closed = 1;
nodes = (
(838,-389,l),
(838,985,l),
(742,985,l),
(721,911,l),
(615,978,o),
(521,1000,o),
(438,1000,cs),
(208,1000,o),
(102,852,o),
(102,493,cs),
(102,126,o),
(241,-10,o),
(468,-10,cs),
(551,-10,o),
(631,7,o),
(710,48,c),
(710,-389,l)
);
},
{
closed = 1;
nodes = (
(741,160,l),
(648,112,o),
(593,95,o),
(486,95,cs),
(304,95,o),
(230,201,o),
(230,491,cs),
(230,767,o),
(297,895,o),
(454,895,cs),
(529,895,o),
(618,877,o),
(747,787,c),
(710,854,l),
(710,92,l)
);
}
);
};
layerId = "1D628CB9-BBF5-410A-9D74-9E6094BFE839";
shapes = (
{
closed = 1;
nodes = (
(551,-10,o),
(665,15,o),
(751,71,c),
(709,92,l),
(742,0,l),
(838,0,l),
(838,1358,l),
(710,1358,l),
(710,878,l),
(743,897,l),
(626,978,o),
(531,1000,o),
(438,1000,cs),
(208,1000,o),
(102,852,o),
(102,493,cs),
(102,126,o),
(241,-10,o),
(468,-10,cs)
);
},
{
closed = 1;
nodes = (
(306,95,o),
(230,201,o),
(230,491,cs),
(230,767,o),
(297,895,o),
(454,895,cs),
(529,895,o),
(618,877,o),
(747,787,c),
(710,854,l),
(710,112,l),
(741,160,l),
(648,112,o),
(593,95,o),
(486,95,cs)
);
}
);
width = 988;
},
{
anchors = (
{
name = bottom;
pos = (566,0);
},
{
name = center;
pos = (582,493);
},
{
name = top;
pos = (566,1358);
},
{
name = topright;
pos = (1097,1358);
}
);
background = {
anchors = (
{
name = bottom;
pos = (612,-50);
},
{
name = center;
pos = (582,493);
},
{
name = top_case;
pos = (893,1408);
},
{
name = topright;
pos = (1154,1358);
}
);
shapes = (
{
closed = 1;
nodes = (
(1057,0,l),
(1057,1358,l),
(729,1358,l),
(729,931,l),
(751,967,l),
(681,996,o),
(608,1030,o),
(476,1030,cs),
(282,1030,o),
(75,947,o),
(75,503,cs),
(75,74,o),
(305,-10,o),
(480,-10,cs),
(607,-10,o),
(700,32,o),
(761,65,c),
(726,97,l),
(763,0,l)
);
},
{
closed = 1;
nodes = (
(463,272,o),
(403,337,o),
(403,506,cs),
(403,699,o),
(461,745,o),
(561,745,cs),
(629,745,o),
(716,721,o),
(869,590,c),
(729,884,l),
(729,142,l),
(868,394,l),
(719,290,o),
(635,272,o),
(561,272,cs)
);
}
);
};
guides = (
{
angle = -72.5632;
pos = (484,0);
},
{
pos = (-3,262);
},
{
pos = (514,669);
},
{
pos = (-11,51);
}
);
layerId = "D42B5605-DB46-4B3B-8EA0-4CE7066523CE";
shapes = (
{
closed = 1;
nodes = (
(554,-15,o),
(660,3,o),
(751,78,c),
(729,103,l),
(763,0,l),
(1057,0,l),
(1057,1358,l),
(729,1358,l),
(729,931,l),
(751,957,l),
(660,1002,o),
(554,1030,o),
(476,1030,cs),
(210,1030,o),
(75,852,o),
(75,508,cs),
(75,164,o),
(220,-15,o),
(476,-15,cs)
);
},
{
closed = 1;
nodes = (
(448,270,o),
(403,336,o),
(403,508,cs),
(403,680,o),
(448,745,o),
(563,745,cs),
(650,745,o),
(743,698,o),
(869,590,c),
(729,884,l),
(729,242,l),
(869,455,l),
(743,327,o),
(650,270,o),
(563,270,cs)
);
}
);
width = 1172;
}
);
metricLeft = "=o";
metricRight = "=|h";
unicode = 100;
},
{
color = 4;
glyphname = dcroat;
kernLeft = RoundLOWER;
kernRight = dcroat;
layers = (
{
background = {
shapes = (
{
closed = 1;
nodes = (
(551,-10,o),
(665,15,o),
(751,71,c),
(709,92,l),
(742,0,l),
(838,0,l),
(838,1358,l),
(710,1358,l),
(710,878,l),
(743,897,l),
(626,978,o),
(531,1000,o),
(438,1000,cs),
(208,1000,o),
(102,852,o),
(102,493,cs),
(102,126,o),
(241,-10,o),
(468,-10,cs)
);
},
{
closed = 1;
nodes = (
(306,95,o),
(230,201,o),
(230,491,cs),
(230,767,o),
(297,895,o),
(454,895,cs),
(529,895,o),
(618,877,o),
(747,787,c),
(710,854,l),
(710,112,l),
(741,160,l),
(648,112,o),
(593,95,o),
(486,95,cs)
);
}
);
};
layerId = "1D628CB9-BBF5-410A-9D74-9E6094BFE839";
shapes = (
{
closed = 1;
nodes = (
(551,-10,o),
(661,19,o),
(723,54,c),
(742,0,l),
(838,0,l),
(838,1108,l),
(978,1108,l),
(978,1208,l),
(838,1208,l),
(838,1358,l),
(710,1358,l),
(710,1208,l),
(498,1208,l),
(498,1108,l),
(710,1108,l),
(710,919,l),
(608,982,o),
(522,1000,o),
(438,1000,cs),
(208,1000,o),
(102,852,o),
(102,493,cs),
(102,126,o),
(241,-10,o),
(468,-10,cs)
);
},
{
closed = 1;
nodes = (
(306,95,o),
(230,201,o),
(230,491,cs),
(230,767,o),
(297,895,o),
(454,895,cs),
(529,895,o),
(618,873,o),
(710,811,c),
(710,144,l),
(648,112,o),
(593,95,o),
(486,95,cs)
);
}
);
width = 988;
},
{
background = {
shapes = (
{
closed = 1;
nodes = (
(554,-15,o),
(660,3,o),
(751,78,c),
(729,103,l),
(763,0,l),
(1057,0,l),
(1057,1358,l),
(729,1358,l),
(729,931,l),
(751,957,l),
(660,1002,o),
(554,1030,o),
(476,1030,cs),
(210,1030,o),
(75,852,o),
(75,508,cs),
(75,164,o),
(220,-15,o),
(476,-15,cs)
);
},
{
closed = 1;
nodes = (
(448,270,o),
(403,336,o),
(403,508,cs),
(403,680,o),
(448,745,o),
(563,745,cs),
(650,745,o),
(743,698,o),
(869,590,c),
(729,884,l),
(729,242,l),
(869,455,l),
(743,327,o),
(650,270,o),
(563,270,cs)
);
}
);
};
layerId = "D42B5605-DB46-4B3B-8EA0-4CE7066523CE";
shapes = (
{
closed = 1;
nodes = (
(590,-15,o),
(681,24,o),
(739,70,c),
(763,0,l),
(1057,0,l),
(1057,1098,l),
(1177,1098,l),
(1177,1258,l),
(1057,1258,l),
(1057,1358,l),
(729,1358,l),
(729,1258,l),
(529,1258,l),
(529,1098,l),
(729,1098,l),
(729,967,l),
(668,994,o),
(574,1030,o),
(476,1030,cs),
(210,1030,o),
(75,852,o),
(75,503,cs),
(75,74,o),
(301,-15,o),
(476,-15,cs)
);
},
{
closed = 1;
nodes = (
(448,270,o),
(403,336,o),
(403,508,cs),
(403,680,o),
(448,745,o),
(563,745,cs),
(607,745,o),
(657,735,o),
(729,693,c),
(729,332,l),
(666,289,o),
(610,270,o),
(563,270,cs)
);
}
);
width = 1172;
}
);
metricLeft = o;
unicode = 273;
},
{
color = 4;
glyphname = eth;
kernLeft = RoundLOWER;
kernRight = eth;
layers = (
{
background = {
shapes = (
{
closed = 1;
nodes = (
(764,-10,o),
(886,183,o),
(886,544,cs),
(886,1043,o),
(759,1282,o),
(252,1351,c),
(233,1252,l),
(613,1191,o),
(768,1054,o),
(768,647,c),
(784,677,l),
(726,782,o),
(603,844,o),
(472,844,cs),
(269,844,o),
(95,711,o),
(95,414,cs),
(95,121,o),
(260,-10,o),
(492,-10,cs)
);
},
{
closed = 1;
nodes = (
(329,95,o),
(223,180,o),
(223,415,cs),
(223,641,o),
(333,739,o),
(476,739,cs),
(590,739,o),
(758,680,o),
(758,450,cs),
(758,203,o),
(662,95,o),
(497,95,cs)
);
},
{
closed = 1;
nodes = (
(771,1345,l),
(707,1399,l),
(387,1021,l),
(450,966,l)
);
}
);
};
guides = (
{
angle = 229.7501;
pos = (547,1210);
},
{
angle = 138.8785;
pos = (419,994);
}
);
layerId = "1D628CB9-BBF5-410A-9D74-9E6094BFE839";
shapes = (
{
closed = 1;
nodes = (
(764,-10,o),
(886,183,o),
(886,544,cs),
(886,867,o),
(833,1081,o),
(657,1211,c),
(771,1345,l),
(707,1399,l),
(586,1256,l),
(499,1301,o),
(389,1332,o),
(252,1351,c),
(233,1252,l),
(346,1234,o),
(440,1209,o),
(515,1172,c),
(387,1021,l),
(450,966,l),
(588,1128,l),
(703,1044,o),
(759,913,o),
(767,704,c),
(704,793,o),
(591,844,o),
(472,844,cs),
(269,844,o),
(95,711,o),
(95,414,cs),
(95,121,o),
(260,-10,o),
(492,-10,cs)
);
},
{
closed = 1;
nodes = (
(329,95,o),
(223,180,o),
(223,415,cs),
(223,641,o),
(333,739,o),
(476,739,cs),
(590,739,o),
(758,680,o),
(758,450,cs),
(758,203,o),
(662,95,o),
(497,95,cs)
);
}
);
width = 986;
},
{
background = {
shapes = (
{
closed = 1;
nodes = (
(832,-15,o),
(1011,172,o),
(1011,591,cs),
(1011,1100,o),
(736,1347,o),
(337,1381,c),
(275,1118,l),
(562,1084,o),
(717,961,o),
(728,703,c),
(741,727,l),
(684,790,o),
(567,834,o),
(457,834,cs),
(264,834,o),
(70,715,o),
(70,407,cs),
(70,103,o),
(295,-15,o),
(527,-15,cs)
);
},
{
closed = 1;
nodes = (
(450,250,o),
(388,297,o),
(388,412,cs),
(388,518,o),
(453,569,o),
(526,569,cs),
(614,569,o),
(680,518,o),
(680,411,cs),
(680,283,o),
(616,250,o),
(531,250,cs)
);
},
{
closed = 1;
nodes = (
(854,1345,l),
(753,1427,l),
(358,961,l),
(457,874,l)
);
}
);
};
guides = (
{
angle = 229.7501;
pos = (548,1210);
}
);
layerId = "D42B5605-DB46-4B3B-8EA0-4CE7066523CE";
shapes = (
{
closed = 1;
nodes = (
(832,-15,o),
(1011,172,o),
(1011,591,cs),
(1011,891,o),
(915,1100,o),
(755,1228,c),
(854,1345,l),
(753,1427,l),
(644,1299,l),
(554,1344,o),
(451,1371,o),
(337,1381,c),
(275,1118,l),
(343,1110,o),
(404,1097,o),
(457,1078,c),
(358,961,l),
(457,874,l),
(577,1017,l),
(662,955,o),
(712,866,o),
(725,743,c),
(664,797,o),
(558,834,o),
(457,834,cs),
(264,834,o),
(70,715,o),
(70,407,cs),
(70,103,o),
(295,-15,o),
(527,-15,cs)
);
},
{
closed = 1;
nodes = (
(450,250,o),
(388,297,o),
(388,412,cs),
(388,518,o),
(453,569,o),
(526,569,cs),
(614,569,o),
(680,518,o),
(680,411,cs),
(680,283,o),
(616,250,o),
(531,250,cs)
);
}
);
width = 1086;
}
);
unicode = 240;
},
{
color = 4;
glyphname = e;
kernLeft = RoundLOWER;
kernRight = RoundLOWER;
layers = (
{
anchors = (
{
name = bottom;
pos = (497,0);
},
{
name = cedilla;
pos = (485,0);
},
{
name = ogonek;
pos = (629,0);
},
{
name = top;
pos = (501,985);
}
);
background = {
anchors = (
{
name = bottom;
pos = (497,0);
},
{
name = cedilla;
pos = (485,0);
},
{
name = ogonek;
pos = (761,60);
},
{
name = top;
pos = (501,985);
}
);
shapes = (
{
closed = 1;
nodes = (
(661,-10,o),
(753,20,o),
(841,70,c),
(798,161,l),
(714,122,o),
(645,95,o),
(572,95,cs),
(371,95,o),
(284,215,o),
(284,493,cs),
(284,732,o),
(338,895,o),
(542,895,cs),
(609,895,o),
(674,887,o),
(732,857,c),
(705,914,l),
(705,672,l),
(807,682,l),
(807,940,l),
(722,980,o),
(635,1000,o),
(544,1000,cs),
(283,1000,o),
(156,831,o),
(156,495,cs),
(156,140,o),
(305,-10,o),
(558,-10,cs)
);
}
);
};
guides = (
{
pos = (702,-113);
}
);
layerId = "1D628CB9-BBF5-410A-9D74-9E6094BFE839";
shapes = (
{
closed = 1;
nodes = (
(631,-10,o),
(753,20,o),
(841,70,c),
(798,161,l),
(714,122,o),
(629,95,o),
(519,95,cs),
(362,95,o),
(219,167,o),
(231,523,c),
(185,469,l),
(848,469,l),
(853,528,o),
(856,574,o),
(856,604,cs),
(856,841,o),
(723,1000,o),
(501,1000,cs),
(268,1000,o),
(102,843,o),
(102,496,cs),
(102,140,o),
(251,-10,o),
(508,-10,cs)
);
},
{
closed = 1;
nodes = (
(218,750,o),
(318,895,o),
(502,895,cs),
(662,895,o),
(747,767,o),
(736,570,c),
(736,514,l),
(782,559,l),
(185,559,l),
(231,520,l)
);
}
);
width = 950;
},
{
anchors = (
{
name = bottom;
pos = (564,0);
},
{
name = cedilla;
pos = (549,0);
},
{
name = ogonek;
pos = (711,0);
},
{
name = top;
pos = (533,1015);
}
);
background = {
anchors = (
{
name = bottom;
pos = (550,-50);
},
{
name = cedilla;
pos = (549,-21);
},
{
name = ogonek;
pos = (888,71);
},
{
name = top;
pos = (549,1055);
}
);
shapes = (
{
closed = 1;
nodes = (
(2049,-40,o),
(2193,3,o),
(2309,66,c),
(2201,275,l),
(2068,217,o),
(1964,208,o),
(1914,208,cs),
(1810,208,o),
(1682,250,o),
(1703,460,c),
(1588,386,l),
(2285,386,l),
(2294,446,o),
(2295,535,o),
(2295,570,cs),
(2295,879,o),
(2111,1030,o),
(1859,1030,cs),
(1607,1030,o),
(1375,907,o),
(1375,496,cs),
(1375,96,o),
(1619,-40,o),
(1879,-40,cs)
);
},
{
closed = 1;
nodes = (
(1685,744,o),
(1760,785,o),
(1847,785,cs),
(1929,785,o),
(1991,730,o),
(1976,555,c),
(1977,431,l),
(2065,586,l),
(1588,586,l),
(1703,507,l)
);
},
{
closed = 1;
nodes = (
(666,-30,o),
(827,6,o),
(947,75,c),
(841,318,l),
(724,263,o),
(654,240,o),
(570,240,cs),
(451,240,o),
(403,311,o),
(403,500,cs),
(403,709,o),
(457,760,o),
(564,760,cs),
(631,760,o),
(723,720,o),
(781,677,c),
(614,934,l),
(614,552,l),
(896,582,l),
(896,940,l),
(801,1000,o),
(689,1030,o),
(564,1030,cs),
(245,1030,o),
(75,863,o),
(75,500,cs),
(75,157,o),
(238,-30,o),
(543,-30,cs)
);
}
);
};
guides = (
{
angle = -58.7439;
pos = (609,28);
},
{
pos = (905,-148);
}
);
layerId = "D42B5605-DB46-4B3B-8EA0-4CE7066523CE";
shapes = (
{
closed = 1;
nodes = (
(696,-15,o),
(847,20,o),
(967,89,c),
(861,328,l),
(744,274,o),
(674,251,o),
(580,251,cs),
(451,251,o),
(403,321,o),
(403,468,c),
(288,395,l),
(981,395,l),
(990,454,o),
(991,542,o),
(991,577,cs),
(991,881,o),
(807,1030,o),
(559,1030,cs),
(307,1030,o),
(75,909,o),
(75,504,cs),
(75,169,o),
(248,-15,o),
(573,-15,cs)
);
},
{
closed = 1;
nodes = (
(388,706,o),
(433,793,o),
(547,793,cs),
(645,793,o),
(689,714,o),
(676,562,c),
(677,439,l),
(765,597,l),
(288,597,l),
(403,514,l)
);
}
);
width = 1063;
}
);
metricLeft = "=o";
unicode = 101;
userData = {
com.fontlab.hintData = {
hhints = (
{
position = -10;
width = 106;
},
{
position = 469;
width = 90;
},
{
position = 895;
width = 105;
}
);
vhints = (
{
position = 108;
width = 128;
},
{
position = 743;
width = 119;
}
);
};
};
},
{
color = 7;
glyphname = schwa;
kernLeft = RoundLOWER;
kernRight = RoundLOWER;
layers = (
{
anchors = (
{
name = bottom;
pos = (449,0);
},
{
name = cedilla;
pos = (465,985);
},
{
name = ogonek;
pos = (321,985);
},
{
name = top;
pos = (453,985);
}
);
background = {
shapes = (
{
angle = 180;
pos = (947,985);
ref = e;
}
);
};
layerId = "1D628CB9-BBF5-410A-9D74-9E6094BFE839";
shapes = (
{
closed = 1;
nodes = (
(682,-15,o),
(848,142,o),
(848,489,cs),
(848,845,o),
(699,995,o),
(442,995,cs),
(319,995,o),
(197,965,o),
(109,915,c),
(152,824,l),
(236,863,o),
(321,890,o),
(431,890,cs),
(588,890,o),
(731,818,o),
(719,462,c),
(765,516,l),
(102,516,l),
(97,457,o),
(94,411,o),
(94,381,cs),
(94,144,o),
(227,-15,o),
(449,-15,cs)
);
},
{
closed = 1;
nodes = (
(288,90,o),
(203,218,o),
(214,415,c),
(214,471,l),
(168,426,l),
(765,426,l),
(719,465,l),
(732,235,o),
(632,90,o),
(448,90,cs)
);
}
);
width = 950;
},
{
anchors = (
{
name = bottom;
pos = (530,0);
},
{
name = cedilla;
pos = (514,1015);
},
{
name = ogonek;
pos = (352,1015);
},
{
name = top;
pos = (499,1015);
}
);
background = {
shapes = (
{
angle = 180;
pos = (1038,985);
ref = e;
}
);
};
layerId = "D42B5605-DB46-4B3B-8EA0-4CE7066523CE";
shapes = (
{
closed = 1;
nodes = (
(756,-15,o),
(988,106,o),
(988,511,cs),
(988,846,o),
(815,1030,o),
(490,1030,cs),
(367,1030,o),
(216,995,o),
(96,926,c),
(202,687,l),
(319,741,o),
(389,764,o),
(483,764,cs),
(612,764,o),
(660,694,o),
(660,547,c),
(775,620,l),
(82,620,l),
(73,561,o),
(72,473,o),
(72,438,cs),
(72,134,o),
(256,-15,o),
(504,-15,cs)
);
},
{
closed = 1;
nodes = (
(418,222,o),
(374,301,o),
(387,453,c),
(386,576,l),
(298,418,l),
(775,418,l),
(660,501,l),
(675,309,o),
(630,222,o),
(516,222,cs)
);
}
);
width = 1063;
}
);
unicode = 601;
userData = {
com.schriftgestaltung.Glyphs.leftMetricsKey = "=|e";
com.schriftgestaltung.Glyphs.rightMetricsKey = "=|e";
};
},
{
color = 4;
glyphname = f;
kernLeft = f;
kernRight = f;
layers = (
{
anchors = (
{
name = bottom;
pos = (256,0);
},
{
name = top;
pos = (396,1358);
}
);
background = {
anchors = (
{
name = bottom;
pos = (256,0);
},
{
name = top_case;
pos = (396,1358);
}
);
shapes = (
{
closed = 1;
nodes = (
(295,0,l),
(295,932,l),
(250,885,l),
(529,885,l),
(529,985,l),
(250,985,l),
(296,921,l),
(289,1224,o),
(329,1269,o),
(454,1269,cs),
(492,1269,o),
(573,1254,o),
(595,1248,c),
(611,1348,l),
(544,1368,o),
(482,1374,o),
(426,1374,cs),
(216,1374,o),
(163,1238,o),
(167,937,c),
(212,985,l),
(0,985,l),
(0,885,l),
(212,885,l),
(167,932,l),
(167,0,l)
);
}
);
};
layerId = "1D628CB9-BBF5-410A-9D74-9E6094BFE839";
shapes = (
{
closed = 1;
nodes = (
(295,0,l),
(295,921,l),
(250,885,l),
(529,885,l),
(529,985,l),
(251,985,l),
(296,956,l),
(296,1051,ls),
(296,1214,o),
(329,1269,o),
(464,1269,cs),
(502,1269,o),
(573,1254,o),
(595,1248,c),
(611,1348,l),
(544,1368,o),
(492,1374,o),
(436,1374,cs),
(257,1374,o),
(167,1265,o),
(167,1047,cs),
(167,956,l),
(212,985,l),
(0,985,l),
(0,885,l),
(212,885,l),
(167,932,l),
(167,0,l)
);
}
);
width = 561;
},
{
anchors = (
{
name = bottom;
pos = (349,0);
},
{
name = top;
pos = (522,1408);
}
);
background = {
shapes = (
{
closed = 1;
nodes = (
(518,0,l),
(518,817,l),
(373,705,l),
(752,705,l),
(752,975,l),
(373,975,l),
(519,888,l),
(519,985,ls),
(519,1064,o),
(557,1103,o),
(633,1103,cs),
(672,1103,o),
(730,1096,o),
(795,1077,c),
(833,1334,l),
(769,1355,o),
(675,1371,o),
(584,1371,cs),
(331,1371,o),
(190,1223,o),
(190,998,cs),
(190,909,l),
(335,975,l),
(15,975,l),
(15,705,l),
(335,705,l),
(190,832,l),
(190,0,l)
);
}
);
};
guides = (
{
pos = (824,715);
}
);
layerId = "D42B5605-DB46-4B3B-8EA0-4CE7066523CE";
shapes = (
{
closed = 1;
nodes = (
(518,0,l),
(518,817,l),
(373,735,l),
(752,735,l),
(752,1005,l),
(373,1005,l),
(509,888,l),
(509,998,ls),
(509,1077,o),
(557,1116,o),
(633,1116,cs),
(672,1116,o),
(730,1109,o),
(795,1090,c),
(833,1334,l),
(769,1355,o),
(675,1371,o),
(584,1371,cs),
(331,1371,o),
(190,1223,o),
(190,998,cs),
(190,909,l),
(335,1015,l),
(15,1015,l),
(15,735,l),
(335,735,l),
(190,832,l),
(190,0,l)
);
}
);
width = 798;
}
);
unicode = 102;
},
{
color = 4;
glyphname = g;
kernLeft = g;
kernRight = g;
layers = (
{
anchors = (
{
name = top;
pos = (501,985);
}
);
background = {
anchors = (
{
name = bottom;
pos = (508,0);
},
{
name = top;
pos = (501,985);
}
);
shapes = (
{
closed = 1;
nodes = (
(831,-320,o),
(917,-148,o),
(917,-21,cs),
(917,117,o),
(852,185,o),
(634,185,cs),
(310,185,ls),
(262,185,o),
(234,235,o),
(234,289,cs),
(234,345,o),
(283,408,o),
(319,436,c),
(270,425,l),
(317,402,o),
(385,381,o),
(490,381,cs),
(705,381,o),
(861,472,o),
(861,693,cs),
(861,777,o),
(839,846,o),
(793,898,c),
(738,881,l),
(991,881,l),
(991,982,l),
(704,982,ls),
(625,982,o),
(608,1005,o),
(490,1005,cs),
(276,1005,o),
(118,914,o),
(118,693,cs),
(118,565,o),
(166,493,o),
(240,442,c),
(251,502,l),
(165,416,o),
(120,355,o),
(120,289,cs),
(120,240,o),
(128,177,o),
(191,121,c),
(151,98,o),
(80,10,o),
(80,-73,cs),
(80,-174,o),
(144,-320,o),
(477,-320,cs)
);
},
{
closed = 1;
nodes = (
(220,-219,o),
(208,-125,o),
(208,-59,cs),
(208,13,o),
(255,63,o),
(303,103,c),
(236,84,l),
(640,84,ls),
(767,84,o),
(789,38,o),
(789,-29,cs),
(789,-119,o),
(715,-219,o),
(483,-219,cs)
);
},
{
closed = 1;
nodes = (
(351,482,o),
(246,544,o),
(246,693,cs),
(246,842,o),
(351,904,o),
(490,904,cs),
(629,904,o),
(733,842,o),
(733,693,cs),
(733,544,o),
(629,482,o),
(490,482,cs)
);
}
);
};
guides = (
{
pos = (436,1476);
}
);
layerId = "1D628CB9-BBF5-410A-9D74-9E6094BFE839";
shapes = (
{
closed = 1;
nodes = (
(811,-403,o),
(917,-220,o),
(917,-85,cs),
(917,61,o),
(832,136,o),
(634,136,cs),
(310,136,ls),
(262,136,o),
(234,187,o),
(234,244,cs),
(234,304,o),
(283,371,o),
(319,400,c),
(270,389,l),
(317,364,o),
(385,342,o),
(490,342,cs),
(705,342,o),
(858,439,o),
(858,673,cs),
(858,763,o),
(836,840,o),
(790,895,c),
(738,885,l),
(991,885,l),
(991,985,l),
(704,985,ls),
(625,985,o),
(608,1005,o),
(490,1005,cs),
(276,1005,o),
(118,908,o),
(118,673,cs),
(118,537,o),
(166,461,o),
(240,407,c),
(251,471,l),
(165,379,o),
(120,314,o),
(120,244,cs),
(120,192,o),
(128,125,o),
(191,66,c),
(151,41,o),
(80,-52,o),
(80,-150,cs),
(80,-248,o),
(144,-403,o),
(477,-403,cs)
);
},
{
closed = 1;
nodes = (
(220,-300,o),
(208,-196,o),
(208,-126,cs),
(208,-49,o),
(255,4,o),
(303,47,c),
(236,26,l),
(640,26,ls),
(767,26,o),
(794,-22,o),
(794,-94,cs),
(794,-189,o),
(715,-300,o),
(473,-300,cs)
);
},
{
closed = 1;
nodes = (
(351,445,o),
(246,512,o),
(246,673,cs),
(246,835,o),
(351,902,o),
(490,902,cs),
(629,902,o),
(733,835,o),
(733,673,cs),
(733,512,o),
(629,445,o),
(490,445,cs)
);
}
);
width = 1006;
},
{
anchors = (
{
name = top;
pos = (529,1015);
}
);
background = {
shapes = (
{
closed = 1;
nodes = (
(876,-412,o),
(1092,-263,o),
(1092,-46,cs),
(1092,128,o),
(977,217,o),
(755,217,cs),
(463,217,ls),
(414,217,o),
(382,242,o),
(382,281,cs),
(382,317,o),
(397,341,o),
(442,386,c),
(291,392,l),
(363,351,o),
(448,323,o),
(549,323,cs),
(837,323,o),
(987,448,o),
(987,687,cs),
(987,800,o),
(937,917,o),
(863,979,c),
(783,748,l),
(1156,728,l),
(1156,988,l),
(860,988,ls),
(805,988,o),
(744,1030,o),
(549,1030,cs),
(261,1030,o),
(100,907,o),
(100,687,cs),
(100,580,o),
(147,494,o),
(266,409,c),
(351,578,l),
(169,460,o),
(99,376,o),
(99,274,cs),
(99,218,o),
(122,172,o),
(176,122,c),
(100,64,o),
(60,-15,o),
(60,-106,cs),
(60,-305,o),
(235,-412,o),
(562,-412,cs)
);
},
{
closed = 1;
nodes = (
(411,-189,o),
(350,-150,o),
(350,-78,cs),
(350,-28,o),
(389,43,o),
(458,119,c),
(206,-15,l),
(693,-15,ls),
(773,-15,o),
(796,-31,o),
(796,-75,cs),
(796,-142,o),
(717,-189,o),
(557,-189,cs)
);
},
{
closed = 1;
nodes = (
(448,554,o),
(395,597,o),
(395,677,cs),
(395,756,o),
(451,800,o),
(549,800,cs),
(647,800,o),
(702,756,o),
(702,677,cs),
(702,595,o),
(649,552,o),
(549,553,cs)
);
}
);
};
guides = (
{
angle = 270;
pos = (73,1035);
},
{
angle = 270;
pos = (1084,501);
}
);
layerId = "D42B5605-DB46-4B3B-8EA0-4CE7066523CE";
shapes = (
{
closed = 1;
nodes = (
(855,-412,o),
(1065,-263,o),
(1065,-36,cs),
(1065,128,o),
(943,217,o),
(737,217,cs),
(452,217,ls),
(405,217,o),
(374,242,o),
(374,281,cs),
(374,317,o),
(388,341,o),
(432,386,c),
(265,392,l),
(335,351,o),
(418,323,o),
(528,323,cs),
(817,323,o),
(967,448,o),
(967,687,cs),
(967,734,o),
(958,782,o),
(942,826,c),
(904,708,l),
(1105,708,l),
(1105,988,l),
(839,988,ls),
(785,988,o),
(723,1030,o),
(528,1030,cs),
(240,1030,o),
(79,907,o),
(79,687,cs),
(79,580,o),
(126,494,o),
(245,409,c),
(212,485,l),
(126,411,o),
(91,347,o),
(91,274,cs),
(91,218,o),
(113,172,o),
(173,122,c),
(99,64,o),
(60,-15,o),
(60,-106,cs),
(60,-305,o),
(230,-412,o),
(549,-412,cs)
);
},
{
closed = 1;
nodes = (
(402,-189,o),
(342,-150,o),
(342,-78,cs),
(342,-28,o),
(380,43,o),
(448,119,c),
(202,-15,l),
(676,-15,ls),
(754,-15,o),
(777,-31,o),
(777,-75,cs),
(777,-142,o),
(700,-189,o),
(544,-189,cs)
);
},
{
closed = 1;
nodes = (
(427,554,o),
(374,597,o),
(374,677,cs),
(374,756,o),
(430,800,o),
(528,800,cs),
(627,800,o),
(681,756,o),
(681,677,cs),
(681,595,o),
(629,552,o),
(528,553,cs)
);
}
);
width = 1135;
}
);
unicode = 103;
userData = {
com.fontlab.hintData = {
hhints = (
{
position = -309;
width = 105;
},
{
position = 96;
width = 100;
},
{
position = 363;
width = 98;
},
{
position = 883;
width = 94;
},
{
position = 905;
width = 95;
}
);
vhints = (
{
position = 118;
width = 128;
},
{
position = 158;
width = 114;
},
{
position = 797;
width = 117;
},
{
position = 837;
width = 128;
}
);
};
};
},
{
color = 4;
glyphname = h;
kernLeft = h;
kernRight = StraightLOWER;
layers = (
{
anchors = (
{
name = bottom;
pos = (516,0);
},
{
name = center;
pos = (496,493);
},
{
name = top;
pos = (509,1358);
}
);
background = {
anchors = (
{
name = bottom;
pos = (516,0);
},
{
name = center;
pos = (496,493);
},
{
name = top_case;
pos = (214,1358);
}
);
shapes = (
{
closed = 1;
nodes = (
(278,0,l),
(278,864,l),
(241,800,l),
(379,887,o),
(483,895,o),
(563,895,cs),
(692,895,o),
(739,825,o),
(739,669,cs),
(739,0,l),
(867,0,l),
(867,663,ls),
(867,891,o),
(773,1000,o),
(570,1000,cs),
(473,1000,o),
(392,985,o),
(238,912,c),
(278,870,l),
(278,1358,l),
(150,1358,l),
(150,0,l)
);
}
);
};
layerId = "1D628CB9-BBF5-410A-9D74-9E6094BFE839";
shapes = (
{
closed = 1;
nodes = (
(278,0,l),
(278,867,l),
(241,800,l),
(379,887,o),
(482,895,o),
(563,895,cs),
(692,895,o),
(739,827,o),
(739,668,cs),
(739,0,l),
(867,0,l),
(867,663,ls),
(867,891,o),
(773,1000,o),
(570,1000,cs),
(476,1000,o),
(404,986,o),
(278,928,c),
(278,1358,l),
(150,1358,l),
(150,0,l)
);
}
);
width = 1002;
},
{
anchors = (
{
name = bottom;
pos = (584,0);
},
{
name = center;
pos = (571,493);
},
{
name = top;
pos = (584,1358);
}
);
background = {
anchors = (
{
name = bottom;
pos = (584,-50);
},
{
name = center;
pos = (571,493);
},
{
name = top_case;
pos = (279,1359);
}
);
shapes = (
{
closed = 1;
nodes = (
(443,0,l),
(443,865,l),
(306,605,l),
(457,721,o),
(531,745,o),
(604,745,cs),
(689,745,o),
(724,713,o),
(724,563,cs),
(724,0,l),
(1052,0,l),
(1052,693,ls),
(1052,926,o),
(895,1030,o),
(741,1030,cs),
(625,1030,o),
(488,999,o),
(312,877,c),
(443,896,l),
(443,1358,l),
(115,1358,l),
(115,0,l)
);
}
);
};
guides = (
{
angle = 119.9358;
pos = (1619,649);
}
);
layerId = "D42B5605-DB46-4B3B-8EA0-4CE7066523CE";
shapes = (
{
closed = 1;
nodes = (
(443,0,l),
(443,865,l),
(391,658,l),
(437,701,o),
(521,745,o),
(605,745,cs),
(699,745,o),
(724,706,o),
(724,583,cs),
(724,0,l),
(1052,0,l),
(1052,663,ls),
(1052,916,o),
(895,1030,o),
(721,1030,cs),
(619,1030,o),
(547,1010,o),
(443,958,c),
(443,1358,l),
(115,1358,l),
(115,0,l)
);
}
);
width = 1152;
}
);
metricRight = "=n";
unicode = 104;
},
{
color = 4;
glyphname = hbar;
kernLeft = h;
kernRight = StraightLOWER;
layers = (
{
background = {
shapes = (
{
closed = 1;
nodes = (
(298,0,l),
(298,867,l),
(261,800,l),
(399,887,o),
(502,895,o),
(583,895,cs),
(712,895,o),
(759,827,o),
(759,668,cs),
(759,0,l),
(887,0,l),
(887,663,ls),
(887,891,o),
(793,1000,o),
(590,1000,cs),
(496,1000,o),
(424,986,o),
(298,928,c),
(298,1358,l),
(170,1358,l),
(170,0,l)
);
}
);
};
layerId = "1D628CB9-BBF5-410A-9D74-9E6094BFE839";
shapes = (
{
closed = 1;
nodes = (
(278,0,l),
(278,822,l),
(386,883,o),
(482,895,o),
(563,895,cs),
(692,895,o),
(739,827,o),
(739,668,cs),
(739,0,l),
(867,0,l),
(867,663,ls),
(867,891,o),
(773,1000,o),
(570,1000,cs),
(476,1000,o),
(404,986,o),
(278,928,c),
(278,1108,l),
(490,1108,l),
(490,1208,l),
(278,1208,l),
(278,1358,l),
(150,1358,l),
(150,1208,l),
(-40,1208,l),
(-40,1108,l),
(150,1108,l),
(150,0,l)
);
}
);
width = 1002;
},
{
background = {
shapes = (
{
closed = 1;
nodes = (
(443,0,l),
(443,865,l),
(391,658,l),
(437,701,o),
(521,745,o),
(605,745,cs),
(699,745,o),
(724,706,o),
(724,583,cs),
(724,0,l),
(1052,0,l),
(1052,663,ls),
(1052,916,o),
(895,1030,o),
(721,1030,cs),
(619,1030,o),
(547,1010,o),
(443,958,c),
(443,1358,l),
(115,1358,l),
(115,0,l)
);
}
);
};
guides = (
{
pos = (290,1265);
}
);
layerId = "D42B5605-DB46-4B3B-8EA0-4CE7066523CE";
shapes = (
{
closed = 1;
nodes = (
(443,0,l),
(443,698,l),
(510,733,o),
(558,745,o),
(605,745,cs),
(699,745,o),
(724,706,o),
(724,583,cs),
(724,0,l),
(1052,0,l),
(1052,663,ls),
(1052,916,o),
(895,1030,o),
(721,1030,cs),
(619,1030,o),
(547,1010,o),
(443,958,c),
(443,1098,l),
(583,1098,l),
(583,1258,l),
(443,1258,l),
(443,1358,l),
(115,1358,l),
(115,1258,l),
(-25,1258,l),
(-25,1098,l),
(115,1098,l),
(115,0,l)
);
}
);
width = 1152;
}
);
metricRight = n;
metricWidth = h;
unicode = 295;
},
{
color = 4;
glyphname = i;
kernLeft = i;
kernRight = i;
layers = (
{
anchors = (
{
name = bottom;
pos = (346,0);
},
{
name = ogonek;
pos = (440,0);
}
);
background = {
anchors = (
{
name = bottom;
pos = (346,0);
},
{
name = ogonek;
pos = (357,0);
}
);
shapes = (
{
closed = 1;
nodes = (
(602,0,l),
(602,90,l),
(365,90,l),
(410,45,l),
(410,985,l),
(102,985,l),
(102,895,l),
(327,895,l),
(282,940,l),
(282,45,l),
(327,90,l),
(90,90,l),
(90,0,l)
);
},
{
closed = 1;
nodes = (
(396,1176,o),
(435,1215,o),
(435,1266,cs),
(435,1317,o),
(396,1356,o),
(345,1356,cs),
(294,1356,o),
(255,1317,o),
(255,1266,cs),
(255,1215,o),
(294,1176,o),
(345,1176,cs)
);
}
);
};
guides = (
{
angle = 270;
pos = (90,641);
},
{
pos = (448,1356);
},
{
pos = (466,1176);
},
{
angle = 270;
pos = (436,1176);
},
{
angle = 270;
pos = (255,1186);
}
);
layerId = "1D628CB9-BBF5-410A-9D74-9E6094BFE839";
shapes = (
{
closed = 1;
nodes = (
(602,0,l),
(602,100,l),
(410,100,l),
(410,985,l),
(94,985,l),
(94,885,l),
(282,885,l),
(282,100,l),
(90,100,l),
(90,0,l)
);
},
{
closed = 1;
nodes = (
(396,1176,o),
(435,1215,o),
(435,1266,cs),
(435,1317,o),
(396,1356,o),
(345,1356,cs),
(294,1356,o),
(255,1317,o),
(255,1266,cs),
(255,1215,o),
(294,1176,o),
(345,1176,cs)
);
}
);
width = 662;
},
{
anchors = (
{
name = bottom;
pos = (466,0);
},
{
name = ogonek;
pos = (630,0);
}
);
background = {
anchors = (
{
name = bottom;
pos = (464,-50);
},
{
name = ogonek;
pos = (485,10);
}
);
shapes = (
{
closed = 1;
nodes = (
(842,0,l),
(842,270,l),
(485,270,l),
(630,45,l),
(630,985,l),
(102,985,l),
(102,715,l),
(447,715,l),
(302,940,l),
(302,45,l),
(447,270,l),
(90,270,l),
(90,0,l)
);
},
{
closed = 1;
nodes = (
(565,1106,o),
(651,1192,o),
(651,1298,cs),
(651,1401,o),
(565,1487,o),
(460,1487,cs),
(355,1487,o),
(270,1401,o),
(270,1298,cs),
(270,1192,o),
(355,1106,o),
(460,1106,cs)
);
}
);
};
guides = (
{
angle = 270;
pos = (90,514);
},
{
pos = (310,1106);
},
{
pos = (122,1487);
},
{
angle = 270;
pos = (270,1062);
},
{
angle = 270;
pos = (651,1012);
}
);
layerId = "D42B5605-DB46-4B3B-8EA0-4CE7066523CE";
shapes = (
{
closed = 1;
nodes = (
(842,0,l),
(842,270,l),
(630,270,l),
(630,1015,l),
(102,1015,l),
(102,745,l),
(302,745,l),
(302,270,l),
(90,270,l),
(90,0,l)
);
},
{
closed = 1;
nodes = (
(574,1105,o),
(668,1198,o),
(668,1314,cs),
(668,1426,o),
(574,1519,o),
(460,1519,cs),
(346,1519,o),
(253,1426,o),
(253,1314,cs),
(253,1198,o),
(346,1105,o),
(460,1105,cs)
);
}
);
width = 872;
}
);
unicode = 105;
},
{
color = 4;
glyphname = idotless;
kernLeft = i;
kernRight = i;
layers = (
{
anchors = (
{
name = bottom;
pos = (346,0);
},
{
name = ogonek;
pos = (440,0);
},
{
name = top;
pos = (346,985);
}
);
background = {
anchors = (
{
name = bottom;
pos = (361,0);
},
{
name = ogonek;
pos = (630,10);
},
{
name = top;
pos = (354,1034);
}
);
shapes = (
{
closed = 1;
nodes = (
(647,0,l),
(647,90,l),
(455,90,l),
(455,985,l),
(135,985,l),
(135,895,l),
(327,895,l),
(327,90,l),
(135,90,l),
(135,0,l)
);
}
);
};
layerId = "1D628CB9-BBF5-410A-9D74-9E6094BFE839";
shapes = (
{
closed = 1;
nodes = (
(602,0,l),
(602,100,l),
(410,100,l),
(410,985,l),
(94,985,l),
(94,885,l),
(282,885,l),
(282,100,l),
(90,100,l),
(90,0,l)
);
}
);
width = 662;
},
{
anchors = (
{
name = bottom;
pos = (466,0);
},
{
name = ogonek;
pos = (630,0);
},
{
name = top;
pos = (466,1015);
}
);
background = {
anchors = (
{
name = bottom;
pos = (468,0);
},
{
name = ogonek;
pos = (767,10);
},
{
name = top;
pos = (451,1054);
}
);
shapes = (
{
closed = 1;
nodes = (
(837,0,l),
(837,290,l),
(645,290,l),
(645,985,l),
(125,985,l),
(125,695,l),
(317,695,l),
(317,290,l),
(125,290,l),
(125,0,l)
);
}
);
};
guides = (
{
angle = 270;
pos = (441,1060);
}
);
layerId = "D42B5605-DB46-4B3B-8EA0-4CE7066523CE";
shapes = (
{
closed = 1;
nodes = (
(842,0,l),
(842,270,l),
(630,270,l),
(630,1015,l),
(102,1015,l),
(102,745,l),
(302,745,l),
(302,270,l),
(90,270,l),
(90,0,l)
);
}
);
width = 872;
}
);
unicode = 305;
},
{
color = 4;
glyphname = j;
kernLeft = j;
kernRight = StraightLOWER;
layers = (
{
background = {
shapes = (
{
closed = 1;
nodes = (
(321,-295,o),
(410,-203,o),
(410,18,cs),
(410,985,l),
(58,985,l),
(58,895,l),
(327,895,l),
(282,940,l),
(282,28,ls),
(282,-123,o),
(258,-190,o),
(145,-190,cs),
(82,-190,o),
(42,-185,o),
(-3,-174,c),
(-19,-275,l),
(36,-291,o),
(92,-295,o),
(149,-295,cs)
);
},
{
closed = 1;
nodes = (
(390,1176,o),
(429,1215,o),
(429,1266,cs),
(429,1317,o),
(390,1356,o),
(339,1356,cs),
(288,1356,o),
(249,1317,o),
(249,1266,cs),
(249,1215,o),
(288,1176,o),
(339,1176,cs)
);
}
);
};
layerId = "1D628CB9-BBF5-410A-9D74-9E6094BFE839";
shapes = (
{
closed = 1;
nodes = (
(321,-399,o),
(410,-307,o),
(410,-86,cs),
(410,985,l),
(58,985,l),
(58,885,l),
(282,885,l),
(282,-76,ls),
(282,-227,o),
(258,-294,o),
(145,-294,cs),
(82,-294,o),
(42,-289,o),
(-3,-278,c),
(-19,-379,l),
(36,-395,o),
(92,-399,o),
(149,-399,cs)
);
},
{
closed = 1;
nodes = (
(390,1176,o),
(429,1215,o),
(429,1266,cs),
(429,1317,o),
(390,1356,o),
(339,1356,cs),
(288,1356,o),
(249,1317,o),
(249,1266,cs),
(249,1215,o),
(288,1176,o),
(339,1176,cs)
);
}
);
width = 560;
},
{
background = {
shapes = (
{
closed = 1;
nodes = (
(1796,-325,o),
(2030,-223,o),
(2030,98,cs),
(2030,985,l),
(1458,985,l),
(1458,715,l),
(1747,715,l),
(1702,940,l),
(1702,125,ls),
(1702,25,o),
(1673,-40,o),
(1565,-40,cs),
(1534,-40,o),
(1461,-36,o),
(1410,-24,c),
(1369,-299,l),
(1460,-319,o),
(1552,-325,o),
(1619,-325,cs)
);
},
{
closed = 1;
nodes = (
(1970,1108,o),
(2056,1194,o),
(2056,1300,cs),
(2056,1403,o),
(1970,1489,o),
(1865,1489,cs),
(1760,1489,o),
(1675,1403,o),
(1675,1300,cs),
(1675,1194,o),
(1760,1108,o),
(1865,1108,cs)
);
},
{
closed = 1;
nodes = (
(842,0,l),
(842,270,l),
(630,270,l),
(630,1015,l),
(102,1015,l),
(102,745,l),
(302,745,l),
(302,270,l),
(90,270,l),
(90,0,l)
);
},
{
closed = 1;
nodes = (
(574,1105,o),
(668,1198,o),
(668,1314,cs),
(668,1426,o),
(574,1519,o),
(460,1519,cs),
(346,1519,o),
(253,1426,o),
(253,1314,cs),
(253,1198,o),
(346,1105,o),
(460,1105,cs)
);
}
);
};
guides = (
{
angle = 261.6663;
pos = (31,61);
},
{
pos = (736,1556);
},
{
angle = 270;
pos = (61,552);
}
);
layerId = "D42B5605-DB46-4B3B-8EA0-4CE7066523CE";
shapes = (
{
closed = 1;
nodes = (
(396,-401,o),
(630,-299,o),
(630,22,cs),
(630,1015,l),
(58,1015,l),
(58,735,l),
(302,735,l),
(302,49,ls),
(302,-51,o),
(273,-116,o),
(165,-116,cs),
(134,-116,o),
(61,-112,o),
(10,-100,c),
(-31,-375,l),
(60,-395,o),
(152,-401,o),
(219,-401,cs)
);
},
{
closed = 1;
nodes = (
(574,1105,o),
(668,1198,o),
(668,1314,cs),
(668,1426,o),
(574,1519,o),
(460,1519,cs),
(346,1519,o),
(253,1426,o),
(253,1314,cs),
(253,1198,o),
(346,1105,o),
(460,1105,cs)
);
}
);
width = 745;
}
);
unicode = 106;
},
{
color = 4;
glyphname = jdotless;
kernLeft = j;
kernRight = StraightLOWER;
layers = (
{
anchors = (
{
name = top;
pos = (346,985);
}
);
background = {
anchors = (
{
name = bottom;
pos = (252,-295);
},
{
name = top;
pos = (293,985);
}
);
shapes = (
{
closed = 1;
nodes = (
(361,-295,o),
(450,-203,o),
(450,18,cs),
(450,985,l),
(98,985,l),
(98,895,l),
(367,895,l),
(322,940,l),
(322,28,ls),
(322,-123,o),
(298,-182,o),
(185,-182,cs),
(122,-182,o),
(82,-177,o),
(37,-166,c),
(21,-275,l),
(76,-291,o),
(132,-295,o),
(189,-295,cs)
);
}
);
};
layerId = "1D628CB9-BBF5-410A-9D74-9E6094BFE839";
shapes = (
{
closed = 1;
nodes = (
(321,-399,o),
(410,-307,o),
(410,-86,cs),
(410,985,l),
(58,985,l),
(58,885,l),
(282,885,l),
(282,-76,ls),
(282,-227,o),
(258,-294,o),
(145,-294,cs),
(82,-294,o),
(42,-289,o),
(-3,-278,c),
(-19,-379,l),
(36,-395,o),
(92,-399,o),
(149,-399,cs)
);
}
);
width = 560;
},
{
anchors = (
{
name = top;
pos = (466,1015);
}
);
background = {
anchors = (
{
name = bottom;
pos = (256,-371);
},
{
name = top;
pos = (297,1036);
}
);
shapes = (
{
closed = 1;
nodes = (
(410,-391,o),
(554,-188,o),
(554,33,cs),
(554,985,l),
(2,985,l),
(2,695,l),
(371,695,l),
(226,940,l),
(226,132,ls),
(226,-19,o),
(202,-78,o),
(89,-78,cs),
(26,-78,o),
(-14,-73,o),
(-59,-62,c),
(-75,-371,l),
(-20,-387,o),
(60,-391,o),
(117,-391,cs)
);
}
);
};
guides = (
{
pos = (1002,-62);
}
);
layerId = "D42B5605-DB46-4B3B-8EA0-4CE7066523CE";
shapes = (
{
closed = 1;
nodes = (
(396,-401,o),
(630,-299,o),
(630,22,cs),
(630,1015,l),
(58,1015,l),
(58,735,l),
(302,735,l),
(302,49,ls),
(302,-51,o),
(273,-116,o),
(165,-116,cs),
(134,-116,o),
(61,-112,o),
(10,-100,c),
(-31,-375,l),
(60,-395,o),
(152,-401,o),
(219,-401,cs)
);
}
);
width = 745;
}
);
unicode = 567;
},
{
color = 3;
glyphname = k;
kernLeft = h;
kernRight = k;
layers = (
{
anchors = (
{
name = bottom;
pos = (509,0);
},
{
name = top;
pos = (479,1358);
}
);
background = {
anchors = (
{
name = bottom;
pos = (509,0);
},
{
name = top;
pos = (479,985);
}
);
shapes = (
{
closed = 1;
nodes = (
(278,0,l),
(278,422,l),
(244,347,l),
(403,488,l),
(351,480,l),
(479,321,o),
(621,154,o),
(777,-6,c),
(910,17,l),
(738,197,o),
(598,359,o),
(445,548,c),
(436,489,l),
(870,971,l),
(734,991,l),
(388,599,l),
(265,480,l),
(278,449,l),
(278,1358,l),
(150,1358,l),
(150,0,l)
);
}
);
};
guides = (
{
angle = 270;
pos = (861,543);
},
{
angle = 170.3948;
pos = (674,1004);
},
{
pos = (340,971);
},
{
pos = (340,991);
},
{
angle = 189.6052;
pos = (699,-19);
},
{
pos = (340,14);
},
{
pos = (340,-6);
}
);
layerId = "1D628CB9-BBF5-410A-9D74-9E6094BFE839";
shapes = (
{
closed = 1;
nodes = (
(278,0,l),
(278,422,l),
(244,347,l),
(403,488,l),
(351,480,l),
(479,321,o),
(621,154,o),
(777,-6,c),
(910,17,l),
(738,197,o),
(598,359,o),
(445,548,c),
(436,489,l),
(870,971,l),
(734,991,l),
(388,599,l),
(265,480,l),
(278,449,l),
(278,1358,l),
(150,1358,l),
(150,0,l)
);
}
);
width = 893;
},
{
anchors = (
{
name = bottom;
pos = (604,0);
},
{
name = top;
pos = (574,1358);
}
);
background = {
anchors = (
{
name = bottom;
pos = (604,-50);
},
{
name = top;
pos = (574,985);
}
);
shapes = (
{
closed = 1;
nodes = (
(443,0,l),
(443,427,l),
(309,217,l),
(578,388,l),
(480,403,l),
(598,244,o),
(683,132,o),
(824,-39,c),
(1142,98,l),
(976,287,o),
(827,473,o),
(704,636,c),
(692,431,l),
(1113,922,l),
(797,1027,l),
(525,676,l),
(340,530,l),
(443,544,l),
(443,1358,l),
(115,1358,l),
(115,0,l)
);
}
);
};
guides = (
{
angle = 230.6224;
pos = (547,824);
},
{
angle = 270;
pos = (1142,573);
}
);
layerId = "D42B5605-DB46-4B3B-8EA0-4CE7066523CE";
shapes = (
{
closed = 1;
nodes = (
(443,0,l),
(443,427,l),
(309,217,l),
(578,388,l),
(476,403,l),
(594,244,o),
(679,132,o),
(820,-39,c),
(1142,98,l),
(976,287,o),
(827,473,o),
(704,636,c),
(692,431,l),
(1113,922,l),
(789,1027,l),
(517,676,l),
(372,530,l),
(443,544,l),
(443,1358,l),
(115,1358,l),
(115,0,l)
);
}
);
width = 1139;
}
);
metricLeft = "=h";
unicode = 107;
userData = {
com.fontlab.hintData = {
hhints = (
{
position = 0;
width = 21;
},
{
position = 965;
width = 20;
},
{
position = 1338;
width = 20;
}
);
vhints = (
{
position = 140;
width = 128;
}
);
};
};
},
{
color = 4;
glyphname = kgreenlandic;
kernLeft = StraightLOWER;
kernRight = k;
layers = (
{
background = {
shapes = (
{
closed = 1;
nodes = (
(915,18,l),
(479,609,l),
(479,542,l),
(864,970,l),
(739,991,l),
(398,612,l),
(246,469,l),
(278,456,l),
(278,985,l),
(150,985,l),
(150,0,l),
(278,0,l),
(278,419,l),
(244,344,l),
(453,535,l),
(389,538,l),
(777,-6,l)
);
}
);
};
guides = (
{
angle = 170.3948;
pos = (664,1004);
},
{
pos = (340,971);
},
{
pos = (340,991);
},
{
angle = 189.6052;
pos = (699,-19);
},
{
pos = (340,14);
},
{
pos = (340,-6);
}
);
layerId = "1D628CB9-BBF5-410A-9D74-9E6094BFE839";
shapes = (
{
closed = 1;
nodes = (
(910,17,l),
(738,197,o),
(598,359,o),
(445,548,c),
(436,489,l),
(870,971,l),
(734,991,l),
(388,599,l),
(265,480,l),
(278,449,l),
(278,985,l),
(150,985,l),
(150,0,l),
(278,0,l),
(278,422,l),
(244,347,l),
(403,488,l),
(351,480,l),
(479,321,o),
(621,154,o),
(777,-6,c)
);
}
);
width = 893;
},
{
background = {
shapes = (
{
closed = 1;
nodes = (
(1125,82,l),
(766,559,l),
(767,491,l),
(1073,900,l),
(746,1007,l),
(504,681,l),
(411,589,l),
(443,576,l),
(443,985,l),
(115,985,l),
(115,0,l),
(443,0,l),
(443,348,l),
(406,268,l),
(569,364,l),
(503,374,l),
(766,-25,l)
);
}
);
};
layerId = "D42B5605-DB46-4B3B-8EA0-4CE7066523CE";
shapes = (
{
closed = 1;
nodes = (
(1142,98,l),
(976,287,o),
(827,473,o),
(704,636,c),
(692,431,l),
(1113,922,l),
(789,1027,l),
(517,676,l),
(372,530,l),
(443,544,l),
(443,1015,l),
(115,1015,l),
(115,0,l),
(443,0,l),
(443,427,l),
(309,217,l),
(578,388,l),
(476,403,l),
(594,244,o),
(679,132,o),
(820,-39,c)
);
}
);
width = 1139;
}
);
metricLeft = n;
metricRight = k;
unicode = 312;
},
{
color = 4;
glyphname = l;
kernLeft = l;
kernRight = l;
layers = (
{
anchors = (
{
name = bottom;
pos = (346,0);
},
{
name = center;
pos = (677,700);
},
{
name = top;
pos = (346,1358);
},
{
name = topright;
pos = (480,1358);
}
);
background = {
anchors = (
{
name = bottom;
pos = (355,0);
},
{
name = center;
pos = (766,714);
},
{
name = top_case;
pos = (355,1358);
},
{
name = topright;
pos = (538,1358);
}
);
shapes = (
{
closed = 1;
nodes = (
(630,0,l),
(630,90,l),
(374,90,l),
(419,45,l),
(419,1358,l),
(80,1358,l),
(80,1267,l),
(336,1267,l),
(291,1312,l),
(291,45,l),
(336,90,l),
(68,90,l),
(68,0,l)
);
}
);
};
guides = (
{
angle = 270;
pos = (68,514);
}
);
layerId = "1D628CB9-BBF5-410A-9D74-9E6094BFE839";
shapes = (
{
closed = 1;
nodes = (
(622,0,l),
(622,100,l),
(410,100,l),
(410,1358,l),
(74,1358,l),
(74,1258,l),
(282,1258,l),
(282,100,l),
(70,100,l),
(70,0,l)
);
}
);
width = 662;
},
{
anchors = (
{
name = bottom;
pos = (466,0);
},
{
name = center;
pos = (902,710);
},
{
name = top;
pos = (466,1358);
},
{
name = topright;
pos = (670,1358);
}
);
background = {
anchors = (
{
name = bottom;
pos = (476,-50);
},
{
name = center;
pos = (742,714);
},
{
name = top_case;
pos = (476,1358);
},
{
name = topright;
pos = (739,1358);
}
);
shapes = (
{
closed = 1;
nodes = (
(861,0,l),
(861,270,l),
(495,270,l),
(640,45,l),
(640,1358,l),
(112,1358,l),
(112,1088,l),
(457,1088,l),
(312,1312,l),
(312,45,l),
(457,270,l),
(79,270,l),
(79,0,l)
);
}
);
};
layerId = "D42B5605-DB46-4B3B-8EA0-4CE7066523CE";
shapes = (
{
closed = 1;
nodes = (
(862,0,l),
(862,270,l),
(630,270,l),
(630,1358,l),
(82,1358,l),
(82,1088,l),
(302,1088,l),
(302,270,l),
(70,270,l),
(70,0,l)
);
}
);
width = 872;
}
);
unicode = 108;
},
{
color = 4;
glyphname = lslash;
kernLeft = l;
kernRight = lslash;
layers = (
{
background = {
shapes = (
{
closed = 1;
nodes = (
(710,923,l),
(652,1000,l),
(7,498,l),
(65,420,l)
);
},
{
closed = 1;
nodes = (
(644,0,l),
(644,100,l),
(432,100,l),
(432,1358,l),
(96,1358,l),
(96,1258,l),
(304,1258,l),
(304,100,l),
(92,100,l),
(92,0,l)
);
}
);
};
layerId = "1D628CB9-BBF5-410A-9D74-9E6094BFE839";
shapes = (
{
closed = 1;
nodes = (
(302,605,l),
(302,100,l),
(90,100,l),
(90,0,l),
(642,0,l),
(642,100,l),
(430,100,l),
(430,705,l),
(710,923,l),
(652,1000,l),
(430,827,l),
(430,1358,l),
(94,1358,l),
(94,1258,l),
(302,1258,l),
(302,728,l),
(7,498,l),
(65,420,l)
);
}
);
width = 702;
},
{
background = {
shapes = (
{
closed = 1;
nodes = (
(935,1014,l),
(835,1141,l),
(83,547,l),
(183,419,l)
);
},
{
closed = 1;
nodes = (
(882,0,l),
(882,270,l),
(650,270,l),
(650,1358,l),
(102,1358,l),
(102,1088,l),
(322,1088,l),
(322,270,l),
(90,270,l),
(90,0,l)
);
}
);
};
layerId = "D42B5605-DB46-4B3B-8EA0-4CE7066523CE";
shapes = (
{
closed = 1;
nodes = (
(322,529,l),
(322,270,l),
(90,270,l),
(90,0,l),
(882,0,l),
(882,270,l),
(650,270,l),
(650,789,l),
(935,1014,l),
(835,1141,l),
(650,995,l),
(650,1358,l),
(102,1358,l),
(102,1088,l),
(322,1088,l),
(322,736,l),
(83,547,l),
(183,419,l)
);
}
);
width = 912;
}
);
unicode = 322;
},
{
color = 4;
glyphname = m;
kernLeft = StraightLOWER;
kernRight = StraightLOWER;
layers = (
{
anchors = (
{
name = bottom;
pos = (775,0);
},
{
name = top;
pos = (775,985);
}
);
background = {
shapes = (
{
closed = 1;
nodes = (
(278,0,l),
(278,867,l),
(241,800,l),
(371,887,o),
(468,895,o),
(545,895,cs),
(666,895,o),
(711,827,o),
(711,668,cs),
(711,0,l),
(839,0,l),
(839,663,ls),
(839,891,o),
(750,1000,o),
(556,1000,cs),
(463,1000,o),
(393,985,o),
(264,921,c),
(246,985,l),
(150,985,l),
(150,0,l)
);
}
);
};
layerId = "1D628CB9-BBF5-410A-9D74-9E6094BFE839";
shapes = (
{
closed = 1;
nodes = (
(278,0,l),
(278,868,l),
(241,800,l),
(371,887,o),
(468,895,o),
(545,895,cs),
(666,895,o),
(711,827,o),
(711,668,cs),
(711,0,l),
(839,0,l),
(839,663,ls),
(839,716,o),
(830,800,o),
(815,832,c),
(802,800,l),
(932,887,o),
(1029,895,o),
(1106,895,cs),
(1227,895,o),
(1272,827,o),
(1272,668,cs),
(1272,0,l),
(1400,0,l),
(1400,663,ls),
(1400,891,o),
(1311,1000,o),
(1107,1000,cs),
(1005,1000,o),
(870,964,o),
(754,891,c),
(795,884,l),
(733,978,o),
(653,1000,o),
(556,1000,cs),
(463,1000,o),
(393,985,o),
(264,921,c),
(246,985,l),
(150,985,l),
(150,0,l)
);
}
);
width = 1535;
},
{
anchors = (
{
name = bottom;
pos = (863,0);
},
{
name = top;
pos = (863,1015);
}
);
background = {
shapes = (
{
closed = 1;
nodes = (
(1027,0,l),
(1027,865,l),
(975,658,l),
(1018,701,o),
(1095,745,o),
(1173,745,cs),
(1260,745,o),
(1283,706,o),
(1283,583,cs),
(1283,0,l),
(1611,0,l),
(1611,663,ls),
(1611,916,o),
(1460,1030,o),
(1293,1030,cs),
(1191,1030,o),
(1120,1008,o),
(1013,951,c),
(985,1015,l),
(699,1015,l),
(699,0,l)
);
}
);
};
guides = (
{
pos = (1099,715);
},
{
pos = (839,550);
}
);
layerId = "D42B5605-DB46-4B3B-8EA0-4CE7066523CE";
shapes = (
{
closed = 1;
nodes = (
(443,0,l),
(443,898,l),
(391,658,l),
(434,701,o),
(511,745,o),
(589,745,cs),
(676,745,o),
(699,706,o),
(699,583,cs),
(699,0,l),
(1027,0,l),
(1027,663,ls),
(1027,745,o),
(1008,829,o),
(979,878,c),
(975,658,l),
(1018,701,o),
(1095,745,o),
(1173,745,cs),
(1260,745,o),
(1283,706,o),
(1283,583,cs),
(1283,0,l),
(1611,0,l),
(1611,663,ls),
(1611,916,o),
(1460,1030,o),
(1273,1030,cs),
(1145,1030,o),
(1037,996,o),
(902,905,c),
(956,911,l),
(894,997,o),
(799,1030,o),
(709,1030,cs),
(607,1030,o),
(536,1008,o),
(429,951,c),
(401,1015,l),
(115,1015,l),
(115,0,l)
);
}
);
width = 1711;
}
);
metricLeft = "=n";
metricRight = "=n";
unicode = 109;
},
{
color = 3;
glyphname = n;
kernLeft = StraightLOWER;
kernRight = StraightLOWER;
layers = (
{
anchors = (
{
name = bottom;
pos = (509,0);
},
{
name = top;
pos = (503,985);
}
);
background = {
anchors = (
{
name = bottom;
pos = (509,0);
},
{
name = top;
pos = (503,985);
}
);
shapes = (
{
closed = 1;
nodes = (
(278,0,l),
(278,867,l),
(241,800,l),
(379,887,o),
(482,895,o),
(563,895,cs),
(692,895,o),
(739,827,o),
(739,668,cs),
(739,0,l),
(867,0,l),
(867,663,ls),
(867,891,o),
(773,1000,o),
(570,1000,cs),
(473,1000,o),
(399,985,o),
(264,921,c),
(246,985,l),
(150,985,l),
(150,0,l)
);
}
);
};
layerId = "1D628CB9-BBF5-410A-9D74-9E6094BFE839";
shapes = (
{
closed = 1;
nodes = (
(278,0,l),
(278,867,l),
(241,800,l),
(379,887,o),
(482,895,o),
(563,895,cs),
(692,895,o),
(739,827,o),
(739,668,cs),
(739,0,l),
(867,0,l),
(867,663,ls),
(867,891,o),
(773,1000,o),
(570,1000,cs),
(473,1000,o),
(399,985,o),
(264,921,c),
(246,985,l),
(150,985,l),
(150,0,l)
);
}
);
width = 1002;
},
{
anchors = (
{
name = bottom;
pos = (583,0);
},
{
name = top;
pos = (592,1015);
}
);
background = {
anchors = (
{
name = bottom;
pos = (583,-50);
},
{
name = top;
pos = (592,1035);
}
);
shapes = (
{
closed = 1;
nodes = (
(443,0,l),
(443,865,l),
(306,605,l),
(457,721,o),
(531,745,o),
(605,745,cs),
(694,745,o),
(724,713,o),
(724,563,cs),
(724,0,l),
(1052,0,l),
(1052,693,ls),
(1052,926,o),
(895,1030,o),
(721,1030,cs),
(614,1030,o),
(540,1005,o),
(429,941,c),
(401,985,l),
(115,985,l),
(115,0,l)
);
}
);
};
guides = (
{
angle = 270;
pos = (443,958);
}
);
layerId = "D42B5605-DB46-4B3B-8EA0-4CE7066523CE";
shapes = (
{
closed = 1;
nodes = (
(443,0,l),
(443,865,l),
(391,658,l),
(437,701,o),
(521,745,o),
(605,745,cs),
(699,745,o),
(724,706,o),
(724,583,cs),
(724,0,l),
(1052,0,l),
(1052,663,ls),
(1052,916,o),
(895,1030,o),
(721,1030,cs),
(614,1030,o),
(540,1008,o),
(429,951,c),
(401,1015,l),
(115,1015,l),
(115,0,l)
);
}
);
width = 1152;
}
);
unicode = 110;
userData = {
com.fontlab.hintData = {
hhints = (
{
position = 0;
width = 21;
},
{
position = 895;
width = 105;
},
{
position = 965;
width = 20;
}
);
vhints = (
{
position = 140;
width = 128;
},
{
position = 140;
width = 105;
},
{
position = 729;
width = 128;
}
);
};
};
},
{
color = 4;
glyphname = eng;
kernLeft = StraightLOWER;
kernRight = StraightLOWER;
layers = (
{
background = {
anchors = (
{
name = bottom;
pos = (494,-50);
},
{
name = top;
pos = (523,1035);
}
);
shapes = (
{
closed = 1;
nodes = (
(473,1000,o),
(399,985,o),
(264,921,c),
(246,985,l),
(150,985,l),
(150,0,l),
(278,0,l),
(278,822,l),
(398,888,o),
(489,895,o),
(563,895,cs),
(692,895,o),
(739,827,o),
(739,668,cs),
(739,-12,ls),
(739,-113,o),
(697,-193,o),
(574,-193,cs),
(511,-193,o),
(481,-188,o),
(436,-177,c),
(420,-278,l),
(475,-294,o),
(521,-298,o),
(578,-298,cs),
(760,-298,o),
(867,-192,o),
(867,38,cs),
(867,663,ls),
(867,891,o),
(773,1000,o),
(570,1000,cs)
);
}
);
};
guides = (
{
pos = (560,-298);
}
);
layerId = "1D628CB9-BBF5-410A-9D74-9E6094BFE839";
shapes = (
{
closed = 1;
nodes = (
(473,1000,o),
(399,985,o),
(264,921,c),
(246,985,l),
(150,985,l),
(150,0,l),
(278,0,l),
(278,822,l),
(398,888,o),
(489,895,o),
(563,895,cs),
(692,895,o),
(739,827,o),
(739,668,cs),
(739,-113,ls),
(739,-214,o),
(697,-294,o),
(574,-294,cs),
(511,-294,o),
(481,-289,o),
(436,-278,c),
(420,-379,l),
(475,-395,o),
(521,-399,o),
(578,-399,cs),
(760,-399,o),
(867,-293,o),
(867,-63,cs),
(867,663,ls),
(867,891,o),
(773,1000,o),
(570,1000,cs)
);
}
);
width = 1002;
},
{
background = {
anchors = (
{
name = bottom;
pos = (2083,-50);
},
{
name = top;
pos = (2112,1035);
}
);
shapes = (
{
closed = 1;
nodes = (
(2134,1030,o),
(2050,1015,o),
(1929,951,c),
(1901,1015,l),
(1615,1015,l),
(1615,0,l),
(1943,0,l),
(1943,698,l),
(2010,735,o),
(2058,745,o),
(2105,745,cs),
(2194,745,o),
(2224,713,o),
(2224,563,cs),
(2224,52,ls),
(2224,-47,o),
(2215,-125,o),
(2097,-125,cs),
(2066,-125,o),
(2003,-121,o),
(1952,-111,c),
(1911,-386,l),
(2002,-404,o),
(2064,-410,o),
(2131,-410,cs),
(2348,-410,o),
(2552,-276,o),
(2552,22,cs),
(2552,693,ls),
(2552,926,o),
(2395,1030,o),
(2241,1030,cs)
);
},
{
closed = 1;
nodes = (
(818,-401,o),
(1052,-299,o),
(1052,22,cs),
(1052,1015,l),
(480,1015,l),
(480,745,l),
(724,745,l),
(724,49,ls),
(724,-51,o),
(695,-116,o),
(587,-116,cs),
(556,-116,o),
(483,-112,o),
(432,-100,c),
(391,-375,l),
(482,-395,o),
(574,-401,o),
(641,-401,cs)
);
},
{
closed = 1;
nodes = (
(996,1105,o),
(1090,1198,o),
(1090,1314,cs),
(1090,1426,o),
(996,1519,o),
(882,1519,cs),
(768,1519,o),
(675,1426,o),
(675,1314,cs),
(675,1198,o),
(768,1105,o),
(882,1105,cs)
);
}
);
};
layerId = "D42B5605-DB46-4B3B-8EA0-4CE7066523CE";
shapes = (
{
closed = 1;
nodes = (
(614,1030,o),
(540,1008,o),
(429,951,c),
(401,1015,l),
(115,1015,l),
(115,0,l),
(443,0,l),
(443,698,l),
(510,735,o),
(558,745,o),
(605,745,cs),
(699,745,o),
(724,706,o),
(724,583,cs),
(724,49,ls),
(724,-51,o),
(695,-116,o),
(587,-116,cs),
(556,-116,o),
(483,-112,o),
(432,-100,c),
(391,-375,l),
(482,-395,o),
(574,-401,o),
(641,-401,cs),
(818,-401,o),
(1052,-299,o),
(1052,22,cs),
(1052,663,ls),
(1052,916,o),
(895,1030,o),
(721,1030,cs)
);
}
);
width = 1152;
}
);
metricLeft = n;
metricWidth = n;
unicode = 331;
},
{
color = 3;
glyphname = o;
kernLeft = RoundLOWER;
kernRight = RoundLOWER;
layers = (
{
anchors = (
{
name = bottom;
pos = (486,0);
},
{
name = center;
pos = (486,493);
},
{
name = ogonek;
pos = (586,0);
},
{
name = top;
pos = (485,985);
},
{
name = topright;
pos = (588,985);
}
);
background = {
anchors = (
{
name = bottom;
pos = (486,0);
},
{
name = center;
pos = (486,493);
},
{
name = ogonek;
pos = (619,30);
},
{
name = top;
pos = (485,985);
},
{
name = topright;
pos = (780,664);
}
);
shapes = (
{
closed = 1;
nodes = (
(755,-10,o),
(870,164,o),
(870,495,cs),
(870,826,o),
(755,1000,o),
(486,1000,cs),
(217,1000,o),
(102,826,o),
(102,495,cs),
(102,164,o),
(217,-10,o),
(486,-10,cs)
);
},
{
closed = 1;
nodes = (
(289,95,o),
(230,247,o),
(230,495,cs),
(230,743,o),
(289,895,o),
(486,895,cs),
(683,895,o),
(742,743,o),
(742,495,cs),
(742,247,o),
(683,95,o),
(486,95,cs)
);
}
);
};
layerId = "1D628CB9-BBF5-410A-9D74-9E6094BFE839";
shapes = (
{
closed = 1;
nodes = (
(755,-10,o),
(870,164,o),
(870,495,cs),
(870,826,o),
(755,1000,o),
(486,1000,cs),
(217,1000,o),
(102,826,o),
(102,495,cs),
(102,164,o),
(217,-10,o),
(486,-10,cs)
);
},
{
closed = 1;
nodes = (
(289,95,o),
(230,247,o),
(230,495,cs),
(230,743,o),
(289,895,o),
(486,895,cs),
(683,895,o),
(742,743,o),
(742,495,cs),
(742,247,o),
(683,95,o),
(486,95,cs)
);
}
);
width = 972;
},
{
anchors = (
{
name = bottom;
pos = (554,0);
},
{
name = center;
pos = (554,493);
},
{
name = ogonek;
pos = (669,0);
},
{
name = top;
pos = (554,1015);
},
{
name = topright;
pos = (678,1015);
}
);
background = {
anchors = (
{
name = bottom;
pos = (554,-50);
},
{
name = center;
pos = (554,493);
},
{
name = ogonek;
pos = (707,30);
},
{
name = top;
pos = (554,1055);
},
{
name = topright;
pos = (1038,574);
}
);
shapes = (
{
closed = 1;
nodes = (
(863,-40,o),
(1033,104,o),
(1033,495,cs),
(1033,886,o),
(863,1030,o),
(554,1030,cs),
(245,1030,o),
(75,886,o),
(75,495,cs),
(75,104,o),
(245,-40,o),
(554,-40,cs)
);
},
{
closed = 1;
nodes = (
(454,230,o),
(403,282,o),
(403,495,cs),
(403,708,o),
(457,760,o),
(554,760,cs),
(651,760,o),
(705,708,o),
(705,495,cs),
(705,282,o),
(654,230,o),
(554,230,cs)
);
}
);
};
guides = (
{
angle = 270;
pos = (554,558);
}
);
layerId = "D42B5605-DB46-4B3B-8EA0-4CE7066523CE";
shapes = (
{
closed = 1;
nodes = (
(863,-15,o),
(1033,150,o),
(1033,508,cs),
(1033,865,o),
(863,1030,o),
(554,1030,cs),
(245,1030,o),
(75,865,o),
(75,508,cs),
(75,150,o),
(245,-15,o),
(554,-15,cs)
);
},
{
closed = 1;
nodes = (
(454,255,o),
(403,305,o),
(403,508,cs),
(403,710,o),
(457,760,o),
(554,760,cs),
(651,760,o),
(705,710,o),
(705,508,cs),
(705,305,o),
(654,255,o),
(554,255,cs)
);
}
);
width = 1108;
}
);
metricRight = "=|";
unicode = 111;
userData = {
com.fontlab.hintData = {
hhints = (
{
position = -10;
width = 106;
},
{
position = 895;
width = 105;
}
);
vhints = (
{
position = 108;
width = 128;
},
{
position = 748;
width = 128;
}
);
};
};
},
{
color = 6;
glyphname = ohorn;
kernLeft = RoundLOWER;
kernRight = hornLOWERo;
layers = (
{
anchors = (
{
name = top;
pos = (485,985);
}
);
background = {
anchors = (
{
name = _topright;
pos = (790,664);
},
{
name = bottom;
pos = (506,0);
},
{
name = center;
pos = (506,493);
},
{
name = ogonek;
pos = (639,30);
},
{
name = top;
pos = (506,985);
},
{
name = topright;
pos = (790,664);
}
);
shapes = (
{
ref = o;
},
{
pos = (740,-321);
ref = horncomb;
}
);
};
layerId = "1D628CB9-BBF5-410A-9D74-9E6094BFE839";
shapes = (
{
ref = o;
},
{
pos = (238,0);
ref = horncomb;
}
);
width = 972;
},
{
anchors = (
{
name = _topright;
pos = (786,664);
},
{
name = bottom;
pos = (492,0);
},
{
name = center;
pos = (492,493);
},
{
name = ogonek;
pos = (625,30);
},
{
name = top;
pos = (492,985);
},
{
name = topright;
pos = (786,664);
}
);
associatedMasterId = "1D628CB9-BBF5-410A-9D74-9E6094BFE839";
layerId = "507808C2-100D-496F-AF8E-12FACB515944";
name = "Regular Jul 25 16, 11:48";
shapes = (
{
closed = 1;
nodes = (
(759,-10,o),
(876,182,o),
(876,495,cs),
(876,826,o),
(761,1000,o),
(492,1000,cs),
(223,1000,o),
(108,826,o),
(108,495,cs),
(108,182,o),
(225,-10,o),
(492,-10,cs)
);
},
{
closed = 1;
nodes = (
(292,96,o),
(236,257,o),
(236,495,cs),
(236,730,o),
(295,895,o),
(492,895,cs),
(689,895,o),
(748,730,o),
(748,495,cs),
(748,257,o),
(692,96,o),
(492,96,cs)
);
},
{
closed = 1;
nodes = (
(796,756,ls),
(918,797,o),
(1024,856,o),
(1024,981,cs),
(1024,1021,o),
(1017,1053,o),
(1007,1079,c),
(875,1079,l),
(888,1051,o),
(896,1020,o),
(896,989,cs),
(896,913,o),
(857,870,o),
(786,839,cs),
(751,824,l),
(751,741,l)
);
}
);
width = 984;
},
{
anchors = (
{
name = top;
pos = (504,1015);
}
);
background = {
anchors = (
{
name = _topright;
pos = (790,664);
},
{
name = bottom;
pos = (536,-50);
},
{
name = center;
pos = (496,493);
},
{
name = ogonek;
pos = (629,30);
},
{
name = top;
pos = (535,1064);
},
{
name = topright;
pos = (790,664);
}
);
shapes = (
{
ref = o;
},
{
pos = (855,-411);
ref = horncomb;
}
);
};
guides = (
{
angle = 270;
pos = (535,558);
}
);
layerId = "D42B5605-DB46-4B3B-8EA0-4CE7066523CE";
shapes = (
{
ref = o;
},
{
pos = (328,0);
ref = horncomb;
}
);
width = 1108;
}
);
unicode = 417;
userData = {
com.schriftgestaltung.Glyphs.ColorIndex = 7;
};
},
{
color = 4;
glyphname = ohorntilde;
kernLeft = RoundLOWER;
kernRight = hornLOWERo;
layers = (
{
background = {
shapes = (
{
ref = ohorn;
},
{
pos = (188,0);
ref = tildecomb;
}
);
};
layerId = "1D628CB9-BBF5-410A-9D74-9E6094BFE839";
shapes = (
{
closed = 1;
nodes = (
(755,-10,o),
(870,164,o),
(870,495,cs),
(870,699,o),
(826,843,o),
(730,924,c),
(838,970,o),
(891,1047,o),
(891,1147,cs),
(891,1187,o),
(884,1219,o),
(874,1245,c),
(752,1245,l),
(765,1217,o),
(773,1186,o),
(773,1155,cs),
(773,1076,o),
(714,1002,o),
(604,987,c),
(568,996,o),
(529,1000,o),
(486,1000,cs),
(217,1000,o),
(102,826,o),
(102,495,cs),
(102,164,o),
(217,-10,o),
(486,-10,cs)
);
},
{
closed = 1;
nodes = (
(289,95,o),
(230,247,o),
(230,495,cs),
(230,743,o),
(289,895,o),
(486,895,cs),
(683,895,o),
(742,743,o),
(742,495,cs),
(742,247,o),
(683,95,o),
(486,95,cs)
);
},
{
closed = 1;
nodes = (
(252,1177,o),
(277,1203,o),
(310,1203,cs),
(372,1203,o),
(494,1115,o),
(576,1115,cs),
(643,1115,o),
(687,1158,o),
(735,1269,c),
(660,1313,l),
(624,1253,o),
(600,1231,o),
(569,1231,cs),
(506,1231,o),
(363,1322,o),
(290,1322,cs),
(235,1322,o),
(197,1285,o),
(136,1156,c),
(212,1110,l)
);
}
);
width = 972;
},
{
background = {
shapes = (
{
ref = ohorn;
},
{
pos = (17,79);
ref = tildecomb;
}
);
};
layerId = "D42B5605-DB46-4B3B-8EA0-4CE7066523CE";
shapes = (
{
closed = 1;
nodes = (
(863,-15,o),
(1033,150,o),
(1033,508,cs),
(1033,699,o),
(984,835,o),
(891,921,c),
(1071,978,o),
(1135,1070,o),
(1135,1222,cs),
(1135,1274,o),
(1124,1317,o),
(1107,1371,c),
(861,1371,l),
(881,1316,o),
(892,1272,o),
(892,1229,cs),
(892,1118,o),
(846,1057,o),
(688,1018,c),
(647,1026,o),
(602,1030,o),
(554,1030,cs),
(245,1030,o),
(75,865,o),
(75,508,cs),
(75,150,o),
(245,-15,o),
(554,-15,cs)
);
},
{
closed = 1;
nodes = (
(454,255,o),
(403,305,o),
(403,508,cs),
(403,710,o),
(457,760,o),
(554,760,cs),
(651,760,o),
(705,710,o),
(705,508,cs),
(705,305,o),
(654,255,o),
(554,255,cs)
);
},
{
closed = 1;
nodes = (
(268,1194,o),
(291,1240,o),
(339,1240,cs),
(401,1240,o),
(493,1145,o),
(582,1145,cs),
(689,1145,o),
(756,1228,o),
(835,1384,c),
(674,1491,l),
(632,1419,o),
(608,1375,o),
(569,1375,cs),
(511,1375,o),
(419,1475,o),
(316,1475,cs),
(219,1475,o),
(161,1399,o),
(77,1243,c),
(228,1135,l)
);
}
);
width = 1108;
}
);
unicode = 7905;
userData = {
com.schriftgestaltung.Glyphs.ColorIndex = 7;
};
},
{
color = 4;
glyphname = oe;
kernLeft = RoundLOWER;
kernRight = RoundLOWER;
layers = (
{
anchors = (
{
name = bottom;
pos = (806,0);
},
{
name = top;
pos = (806,985);
}
);
background = {
anchors = (
{
name = bottom;
pos = (796,0);
},
{
name = top;
pos = (796,985);
}
);
shapes = (
{
closed = 1;
nodes = (
(656,-10,o),
(764,86,o),
(822,219,c),
(795,222,l),
(865,61,o),
(984,-10,o),
(1166,-10,cs),
(1261,-10,o),
(1382,16,o),
(1478,75,c),
(1439,176,l),
(1346,117,o),
(1259,96,o),
(1159,96,cs),
(1013,96,o),
(874,162,o),
(870,469,c),
(1488,469,l),
(1493,528,o),
(1496,574,o),
(1496,604,cs),
(1496,841,o),
(1363,1000,o),
(1141,1000,cs),
(978,1000,o),
(855,919,o),
(800,777,c),
(824,778,l),
(769,916,o),
(659,1000,o),
(486,1000,cs),
(217,1000,o),
(102,826,o),
(102,495,cs),
(102,182,o),
(219,-10,o),
(486,-10,cs)
);
},
{
closed = 1;
nodes = (
(286,96,o),
(230,257,o),
(230,495,cs),
(230,730,o),
(289,895,o),
(486,895,cs),
(683,895,o),
(742,730,o),
(742,495,cs),
(742,257,o),
(686,96,o),
(486,96,cs)
);
},
{
closed = 1;
nodes = (
(885,766,o),
(969,895,o),
(1142,895,cs),
(1287,895,o),
(1377,783,o),
(1377,609,cs),
(1377,559,l),
(870,559,l)
);
}
);
};
layerId = "1D628CB9-BBF5-410A-9D74-9E6094BFE839";
shapes = (
{
closed = 1;
nodes = (
(650,-10,o),
(753,55,o),
(809,181,c),
(872,49,o),
(987,-10,o),
(1148,-10,cs),
(1271,-10,o),
(1393,20,o),
(1481,70,c),
(1438,161,l),
(1354,122,o),
(1269,95,o),
(1159,95,cs),
(1010,95,o),
(874,160,o),
(870,469,c),
(1488,469,l),
(1493,528,o),
(1496,574,o),
(1496,604,cs),
(1496,841,o),
(1363,1000,o),
(1141,1000,cs),
(994,1000,o),
(877,937,o),
(811,803,c),
(757,933,o),
(653,1000,o),
(486,1000,cs),
(217,1000,o),
(102,826,o),
(102,495,cs),
(102,164,o),
(217,-10,o),
(486,-10,cs)
);
},
{
closed = 1;
nodes = (
(289,95,o),
(230,247,o),
(230,495,cs),
(230,743,o),
(289,895,o),
(486,895,cs),
(683,895,o),
(742,743,o),
(742,495,cs),
(742,247,o),
(683,95,o),
(486,95,cs)
);
},
{
closed = 1;
nodes = (
(870,766,o),
(969,895,o),
(1142,895,cs),
(1298,895,o),
(1387,775,o),
(1376,559,c),
(870,559,l)
);
}
);
width = 1590;
},
{
anchors = (
{
name = bottom;
pos = (872,0);
},
{
name = top;
pos = (872,1015);
}
);
background = {
shapes = (
{
closed = 1;
nodes = (
(863,-15,o),
(1033,150,o),
(1033,508,cs),
(1033,865,o),
(863,1030,o),
(554,1030,cs),
(245,1030,o),
(75,865,o),
(75,508,cs),
(75,150,o),
(245,-15,o),
(554,-15,cs)
);
},
{
closed = 1;
nodes = (
(454,255,o),
(403,305,o),
(403,508,cs),
(403,710,o),
(457,760,o),
(554,760,cs),
(651,760,o),
(705,710,o),
(705,508,cs),
(705,305,o),
(654,255,o),
(554,255,cs)
);
},
{
closed = 1;
nodes = (
(1326,-15,o),
(1477,20,o),
(1597,89,c),
(1491,328,l),
(1374,274,o),
(1304,251,o),
(1210,251,cs),
(1081,251,o),
(1033,321,o),
(1033,468,c),
(918,395,l),
(1611,395,l),
(1620,454,o),
(1621,542,o),
(1621,577,cs),
(1621,881,o),
(1437,1030,o),
(1189,1030,cs),
(937,1030,o),
(705,909,o),
(705,504,cs),
(705,169,o),
(878,-15,o),
(1203,-15,cs)
);
},
{
closed = 1;
nodes = (
(1018,706,o),
(1063,793,o),
(1177,793,cs),
(1275,793,o),
(1319,714,o),
(1306,562,c),
(1307,439,l),
(1395,597,l),
(918,597,l),
(1033,514,l)
);
}
);
};
layerId = "D42B5605-DB46-4B3B-8EA0-4CE7066523CE";
shapes = (
{
closed = 1;
nodes = (
(692,-15,o),
(799,22,o),
(874,94,c),
(952,24,o),
(1061,-15,o),
(1203,-15,cs),
(1326,-15,o),
(1477,20,o),
(1597,89,c),
(1491,328,l),
(1374,274,o),
(1304,251,o),
(1210,251,cs),
(1105,251,o),
(1053,298,o),
(1038,395,c),
(1611,395,l),
(1620,454,o),
(1621,542,o),
(1621,577,cs),
(1621,881,o),
(1437,1030,o),
(1189,1030,cs),
(1069,1030,o),
(957,998,o),
(874,922,c),
(798,993,o),
(692,1030,o),
(554,1030,cs),
(245,1030,o),
(75,865,o),
(75,508,cs),
(75,150,o),
(245,-15,o),
(554,-15,cs)
);
},
{
closed = 1;
nodes = (
(454,255,o),
(403,305,o),
(403,508,cs),
(403,710,o),
(457,760,o),
(554,760,cs),
(651,760,o),
(705,710,o),
(705,508,cs),
(705,305,o),
(654,255,o),
(554,255,cs)
);
},
{
closed = 1;
nodes = (
(1034,731,o),
(1081,793,o),
(1177,793,cs),
(1267,793,o),
(1312,726,o),
(1308,597,c),
(1030,597,l)
);
}
);
width = 1693;
}
);
metricLeft = "=o";
metricRight = "=e";
unicode = 339;
},
{
color = 4;
glyphname = p;
kernLeft = StraightLOWER;
kernRight = RoundLOWER;
layers = (
{
anchors = (
{
name = bottom;
pos = (501,0);
},
{
name = top;
pos = (501,985);
}
);
background = {
anchors = (
{
name = bottom;
pos = (501,0);
},
{
name = top;
pos = (501,985);
}
);
shapes = (
{
closed = 1;
nodes = (
(747,-10,o),
(886,126,o),
(886,493,cs),
(886,852,o),
(780,1000,o),
(550,1000,cs),
(457,1000,o),
(362,978,o),
(245,897,c),
(278,878,l),
(278,1358,l),
(150,1358,l),
(150,0,l),
(246,0,l),
(279,92,l),
(237,71,l),
(323,15,o),
(437,-10,o),
(520,-10,cs)
);
},
{
closed = 1;
nodes = (
(278,854,l),
(241,787,l),
(370,877,o),
(459,895,o),
(534,895,cs),
(691,895,o),
(758,767,o),
(758,491,cs),
(758,201,o),
(682,95,o),
(502,95,cs),
(395,95,o),
(340,112,o),
(247,160,c),
(278,112,l)
);
}
);
};
layerId = "1D628CB9-BBF5-410A-9D74-9E6094BFE839";
shapes = (
{
closed = 1;
nodes = (
(278,-389,l),
(278,48,l),
(357,7,o),
(437,-10,o),
(520,-10,cs),
(747,-10,o),
(886,126,o),
(886,493,cs),
(886,852,o),
(780,1000,o),
(550,1000,cs),
(467,1000,o),
(373,978,o),
(267,911,c),
(246,985,l),
(150,985,l),
(150,-389,l)
);
},
{
closed = 1;
nodes = (
(395,95,o),
(340,112,o),
(247,160,c),
(278,92,l),
(278,854,l),
(241,787,l),
(370,877,o),
(459,895,o),
(534,895,cs),
(691,895,o),
(758,767,o),
(758,491,cs),
(758,201,o),
(684,95,o),
(502,95,cs)
);
}
);
width = 988;
},
{
anchors = (
{
name = bottom;
pos = (506,0);
},
{
name = top;
pos = (606,1015);
}
);
background = {
shapes = (
{
closed = 1;
nodes = (
(952,-15,o),
(1097,164,o),
(1097,508,cs),
(1097,852,o),
(962,1030,o),
(696,1030,cs),
(618,1030,o),
(512,1002,o),
(421,957,c),
(443,931,l),
(443,1358,l),
(115,1358,l),
(115,0,l),
(409,0,l),
(443,103,l),
(421,78,l),
(512,3,o),
(618,-15,o),
(696,-15,cs)
);
},
{
closed = 1;
nodes = (
(443,884,l),
(303,590,l),
(429,698,o),
(522,745,o),
(609,745,cs),
(724,745,o),
(769,680,o),
(769,508,cs),
(769,336,o),
(724,270,o),
(609,270,cs),
(522,270,o),
(429,327,o),
(303,455,c),
(443,242,l)
);
}
);
};
guides = (
{
pos = (465,923);
}
);
layerId = "D42B5605-DB46-4B3B-8EA0-4CE7066523CE";
shapes = (
{
closed = 1;
nodes = (
(443,-389,l),
(443,61,l),
(512,8,o),
(618,-15,o),
(696,-15,cs),
(952,-15,o),
(1097,164,o),
(1097,508,cs),
(1097,852,o),
(962,1030,o),
(696,1030,cs),
(618,1030,o),
(512,1002,o),
(429,961,c),
(409,1015,l),
(115,1015,l),
(115,-389,l)
);
},
{
closed = 1;
nodes = (
(522,270,o),
(429,327,o),
(303,455,c),
(443,121,l),
(443,868,l),
(303,590,l),
(429,698,o),
(522,745,o),
(609,745,cs),
(724,745,o),
(769,680,o),
(769,508,cs),
(769,336,o),
(724,270,o),
(609,270,cs)
);
}
);
width = 1172;
}
);
metricLeft = "=n";
metricRight = o;
unicode = 112;
},
{
color = 4;
glyphname = thorn;
kernLeft = h;
kernRight = RoundLOWER;
layers = (
{
background = {
shapes = (
{
closed = 1;
nodes = (
(278,-389,l),
(278,48,l),
(357,7,o),
(437,-10,o),
(520,-10,cs),
(747,-10,o),
(886,126,o),
(886,493,cs),
(886,852,o),
(780,1000,o),
(550,1000,cs),
(467,1000,o),
(373,978,o),
(267,911,c),
(246,985,l),
(150,985,l),
(150,-389,l)
);
},
{
closed = 1;
nodes = (
(395,95,o),
(340,112,o),
(247,160,c),
(278,92,l),
(278,854,l),
(241,787,l),
(370,877,o),
(459,895,o),
(534,895,cs),
(691,895,o),
(758,767,o),
(758,491,cs),
(758,201,o),
(684,95,o),
(502,95,cs)
);
}
);
};
layerId = "1D628CB9-BBF5-410A-9D74-9E6094BFE839";
shapes = (
{
closed = 1;
nodes = (
(278,-389,l),
(278,48,l),
(357,7,o),
(449,-10,o),
(520,-10,cs),
(747,-10,o),
(886,126,o),
(886,493,cs),
(886,852,o),
(780,1000,o),
(550,1000,cs),
(470,1000,o),
(366,976,o),
(278,916,c),
(278,1358,l),
(150,1358,l),
(150,-389,l)
);
},
{
closed = 1;
nodes = (
(395,95,o),
(340,112,o),
(247,160,c),
(278,92,l),
(278,854,l),
(241,787,l),
(370,877,o),
(459,895,o),
(534,895,cs),
(691,895,o),
(758,767,o),
(758,491,cs),
(758,201,o),
(684,95,o),
(502,95,cs)
);
}
);
width = 988;
},
{
background = {
shapes = (
{
closed = 1;
nodes = (
(443,-389,l),
(443,61,l),
(512,8,o),
(618,-15,o),
(696,-15,cs),
(952,-15,o),
(1097,164,o),
(1097,508,cs),
(1097,852,o),
(962,1030,o),
(696,1030,cs),
(618,1030,o),
(512,1002,o),
(429,961,c),
(409,1015,l),
(115,1015,l),
(115,-389,l)
);
},
{
closed = 1;
nodes = (
(522,270,o),
(429,327,o),
(303,455,c),
(443,121,l),
(443,868,l),
(303,590,l),
(429,698,o),
(522,745,o),
(609,745,cs),
(724,745,o),
(769,680,o),
(769,508,cs),
(769,336,o),
(724,270,o),
(609,270,cs)
);
}
);
};
layerId = "D42B5605-DB46-4B3B-8EA0-4CE7066523CE";
shapes = (
{
closed = 1;
nodes = (
(443,-389,l),
(443,61,l),
(512,8,o),
(618,-15,o),
(696,-15,cs),
(952,-15,o),
(1097,164,o),
(1097,508,cs),
(1097,852,o),
(962,1030,o),
(696,1030,cs),
(602,1030,o),
(490,992,o),
(429,961,c),
(429,1358,l),
(115,1358,l),
(115,-389,l)
);
},
{
closed = 1;
nodes = (
(522,270,o),
(429,327,o),
(303,455,c),
(443,121,l),
(443,868,l),
(303,590,l),
(429,698,o),
(522,745,o),
(609,745,cs),
(724,745,o),
(769,680,o),
(769,508,cs),
(769,336,o),
(724,270,o),
(609,270,cs)
);
}
);
width = 1172;
}
);
metricLeft = n;
metricRight = o;
unicode = 254;
},
{
color = 4;
glyphname = q;
kernLeft = RoundLOWER;
kernRight = StraightLOWER;
layers = (
{
anchors = (
{
name = bottom;
pos = (486,0);
},
{
name = top;
pos = (470,985);
}
);
background = {
anchors = (
{
name = bottom;
pos = (486,0);
},
{
name = top;
pos = (486,985);
}
);
shapes = (
{
closed = 1;
nodes = (
(838,-389,l),
(838,985,l),
(742,985,l),
(711,923,l),
(610,985,o),
(540,1000,o),
(456,1000,cs),
(251,1000,o),
(102,866,o),
(102,493,cs),
(102,126,o),
(240,-10,o),
(477,-10,cs),
(526,-10,o),
(611,-8,o),
(710,41,c),
(710,-389,l)
);
},
{
closed = 1;
nodes = (
(301,95,o),
(230,206,o),
(230,491,cs),
(230,767,o),
(311,895,o),
(468,895,cs),
(544,895,o),
(616,881,o),
(750,797,c),
(710,866,l),
(710,92,l),
(744,158,l),
(653,110,o),
(594,95,o),
(481,95,cs)
);
}
);
};
layerId = "1D628CB9-BBF5-410A-9D74-9E6094BFE839";
shapes = (
{
closed = 1;
nodes = (
(838,-389,l),
(838,985,l),
(742,985,l),
(721,911,l),
(615,978,o),
(521,1000,o),
(438,1000,cs),
(208,1000,o),
(102,852,o),
(102,493,cs),
(102,126,o),
(241,-10,o),
(468,-10,cs),
(551,-10,o),
(631,7,o),
(710,48,c),
(710,-389,l)
);
},
{
closed = 1;
nodes = (
(741,160,l),
(648,112,o),
(593,95,o),
(486,95,cs),
(304,95,o),
(230,201,o),
(230,491,cs),
(230,767,o),
(297,895,o),
(454,895,cs),
(529,895,o),
(618,877,o),
(747,787,c),
(710,854,l),
(710,92,l)
);
}
);
width = 988;
},
{
anchors = (
{
name = bottom;
pos = (460,0);
},
{
name = top;
pos = (566,1015);
}
);
background = {
anchors = (
{
name = bottom;
pos = (460,0);
},
{
name = top;
pos = (460,985);
}
);
shapes = (
{
closed = 1;
nodes = (
(1057,-389,l),
(1057,985,l),
(763,985,l),
(743,946,l),
(682,977,o),
(596,1030,o),
(482,1030,cs),
(297,1030,o),
(75,946,o),
(75,492,cs),
(75,58,o),
(294,-25,o),
(498,-25,cs),
(610,-25,o),
(665,2,o),
(729,29,c),
(729,-389,l)
);
},
{
closed = 1;
nodes = (
(457,262,o),
(403,317,o),
(403,489,cs),
(403,680,o),
(457,743,o),
(563,743,cs),
(637,743,o),
(719,700,o),
(868,601,c),
(729,868,l),
(729,121,l),
(869,386,l),
(719,280,o),
(637,262,o),
(563,262,cs)
);
}
);
};
layerId = "D42B5605-DB46-4B3B-8EA0-4CE7066523CE";
shapes = (
{
closed = 1;
nodes = (
(1057,-389,l),
(1057,1015,l),
(763,1015,l),
(743,961,l),
(660,1002,o),
(554,1030,o),
(476,1030,cs),
(210,1030,o),
(75,852,o),
(75,508,cs),
(75,164,o),
(220,-15,o),
(476,-15,cs),
(554,-15,o),
(660,8,o),
(729,61,c),
(729,-389,l)
);
},
{
closed = 1;
nodes = (
(869,455,l),
(743,327,o),
(650,270,o),
(563,270,cs),
(448,270,o),
(403,336,o),
(403,508,cs),
(403,680,o),
(448,745,o),
(563,745,cs),
(650,745,o),
(743,698,o),
(869,590,c),
(729,868,l),
(729,121,l)
);
}
);
width = 1172;
}
);
metricLeft = "=o";
metricRight = u;
unicode = 113;
},
{
color = 3;
glyphname = r;
kernLeft = StraightLOWER;
kernRight = r;
layers = (
{
anchors = (
{
name = bottom;
pos = (214,0);
},
{
name = top;
pos = (374,985);
}
);
background = {
anchors = (
{
name = bottom;
pos = (214,0);
},
{
name = top;
pos = (367,985);
}
);
shapes = (
{
closed = 1;
nodes = (
(278,0,l),
(278,834,l),
(263,777,l),
(316,826,o),
(460,878,o),
(598,878,c),
(598,1000,l),
(491,996,o),
(346,934,o),
(268,881,c),
(246,985,l),
(150,985,l),
(150,0,l)
);
}
);
};
layerId = "1D628CB9-BBF5-410A-9D74-9E6094BFE839";
shapes = (
{
closed = 1;
nodes = (
(278,0,l),
(278,834,l),
(263,777,l),
(316,826,o),
(460,878,o),
(598,878,c),
(598,1000,l),
(491,996,o),
(346,934,o),
(268,881,c),
(246,985,l),
(150,985,l),
(150,0,l)
);
}
);
width = 648;
},
{
anchors = (
{
name = bottom;
pos = (279,0);
},
{
name = top;
pos = (444,1015);
}
);
background = {
anchors = (
{
name = bottom;
pos = (265,-50);
},
{
name = top;
pos = (461,1035);
}
);
shapes = (
{
closed = 1;
nodes = (
(443,0,l),
(443,749,l),
(378,597,l),
(465,690,o),
(696,708,o),
(773,708,c),
(773,1030,l),
(671,1026,o),
(516,962,o),
(433,899,c),
(401,985,l),
(115,985,l),
(115,0,l)
);
}
);
};
layerId = "D42B5605-DB46-4B3B-8EA0-4CE7066523CE";
shapes = (
{
closed = 1;
nodes = (
(443,0,l),
(443,779,l),
(378,603,l),
(445,675,o),
(613,714,o),
(773,714,c),
(773,1060,l),
(671,1056,o),
(516,992,o),
(433,929,c),
(401,1015,l),
(115,1015,l),
(115,0,l)
);
}
);
width = 802;
}
);
metricLeft = "=n";
unicode = 114;
},
{
color = 4;
glyphname = s;
kernLeft = s;
kernRight = s;
layers = (
{
anchors = (
{
name = bottom;
pos = (416,0);
},
{
name = cedilla;
pos = (395,0);
},
{
name = top;
pos = (416,985);
}
);
background = {
anchors = (
{
name = bottom;
pos = (416,0);
},
{
name = cedilla;
pos = (395,0);
},
{
name = top;
pos = (416,985);
}
);
shapes = (
{
closed = 1;
nodes = (
(606,-10,o),
(759,63,o),
(759,271,cs),
(759,432,o),
(676,496,o),
(538,540,cs),
(391,587,ls),
(289,620,o),
(248,637,o),
(248,730,cs),
(248,852,o),
(321,895,o),
(451,895,cs),
(523,895,o),
(611,870,o),
(672,844,c),
(710,942,l),
(632,978,o),
(536,1000,o),
(444,1000,cs),
(274,1000,o),
(120,926,o),
(120,735,cs),
(120,568,o),
(208,518,o),
(353,472,cs),
(503,425,ls),
(603,394,o),
(631,364,o),
(631,265,cs),
(631,137,o),
(558,96,o),
(429,96,cs),
(329,96,o),
(211,137,o),
(146,168,c),
(106,69,l),
(199,21,o),
(324,-10,o),
(435,-10,cs)
);
}
);
};
guides = (
{
angle = 68.2748;
pos = (712,889);
},
{
angle = 68.2748;
pos = (309,520);
}
);
layerId = "1D628CB9-BBF5-410A-9D74-9E6094BFE839";
shapes = (
{
closed = 1;
nodes = (
(606,-10,o),
(759,63,o),
(759,271,cs),
(759,412,o),
(676,496,o),
(538,540,cs),
(391,587,ls),
(289,620,o),
(248,657,o),
(248,738,cs),
(248,849,o),
(321,895,o),
(451,895,cs),
(523,895,o),
(611,870,o),
(672,844,c),
(710,942,l),
(632,978,o),
(536,1000,o),
(444,1000,cs),
(274,1000,o),
(120,926,o),
(120,735,cs),
(120,588,o),
(208,517,o),
(353,472,cs),
(503,425,ls),
(603,394,o),
(631,344,o),
(631,265,cs),
(631,137,o),
(558,95,o),
(429,95,cs),
(329,95,o),
(215,135,o),
(146,178,c),
(106,79,l),
(199,21,o),
(324,-10,o),
(435,-10,cs)
);
}
);
width = 826;
},
{
anchors = (
{
name = bottom;
pos = (471,0);
},
{
name = cedilla;
pos = (434,0);
},
{
name = top;
pos = (461,1015);
}
);
background = {
anchors = (
{
name = bottom;
pos = (471,-50);
},
{
name = cedilla;
pos = (434,-30);
},
{
name = top;
pos = (461,1035);
}
);
shapes = (
{
closed = 1;
nodes = (
(748,-40,o),
(884,96,o),
(884,294,cs),
(884,494,o),
(766,565,o),
(621,600,cs),
(491,631,ls),
(380,657,o),
(357,669,o),
(357,713,cs),
(357,742,o),
(381,762,o),
(450,762,cs),
(535,762,o),
(647,751,o),
(759,715,c),
(852,965,l),
(739,1012,o),
(591,1030,o),
(469,1030,cs),
(185,1030,o),
(60,906,o),
(60,705,cs),
(60,531,o),
(169,441,o),
(295,410,cs),
(480,364,ls),
(563,343,o),
(587,324,o),
(587,283,cs),
(587,244,o),
(550,231,o),
(507,231,cs),
(422,231,o),
(256,250,o),
(126,317,c),
(37,60,l),
(189,-20,o),
(339,-40,o),
(470,-40,cs)
);
}
);
};
guides = (
{
angle = 68.2748;
pos = (4329,1169);
},
{
angle = 68.2748;
pos = (3763,570);
},
{
angle = 163.6996;
pos = (3826,646);
},
{
angle = 163.6996;
pos = (3658,469);
}
);
layerId = "D42B5605-DB46-4B3B-8EA0-4CE7066523CE";
shapes = (
{
closed = 1;
nodes = (
(748,-15,o),
(884,118,o),
(884,321,cs),
(884,512,o),
(766,585,o),
(621,618,cs),
(435,661,ls),
(380,674,o),
(357,682,o),
(357,716,cs),
(357,750,o),
(399,773,o),
(470,773,cs),
(545,773,o),
(647,760,o),
(759,714,c),
(852,954,l),
(739,1009,o),
(601,1030,o),
(499,1030,cs),
(215,1030,o),
(60,909,o),
(60,703,cs),
(60,543,o),
(173,449,o),
(299,419,cs),
(530,364,ls),
(567,355,o),
(587,339,o),
(587,309,cs),
(587,261,o),
(530,245,o),
(457,245,cs),
(382,245,o),
(256,263,o),
(126,329,c),
(37,83,l),
(189,5,o),
(339,-15,o),
(450,-15,cs)
);
}
);
width = 916;
}
);
unicode = 115;
},
{
color = 4;
glyphname = germandbls;
kernLeft = h;
kernRight = germandbls;
layers = (
{
background = {
shapes = (
{
closed = 1;
nodes = (
(805,-10,o),
(945,67,o),
(945,250,cs),
(945,405,o),
(865,466,o),
(725,528,cs),
(592,587,o),
(556,621,o),
(556,674,cs),
(556,783,o),
(661,822,o),
(847,855,c),
(847,1151,o),
(779,1301,o),
(498,1301,cs),
(262,1301,o),
(150,1172,o),
(150,912,cs),
(150,0,l),
(278,0,l),
(278,901,ls),
(278,1100,o),
(339,1195,o),
(494,1195,cs),
(666,1195,o),
(719,1122,o),
(719,922,c),
(570,890,o),
(428,834,o),
(428,674,cs),
(428,557,o),
(502,501,o),
(661,432,cs),
(798,373,o),
(817,325,o),
(817,249,cs),
(817,140,o),
(733,95,o),
(628,95,cs),
(566,95,o),
(497,117,o),
(435,146,c),
(397,56,l),
(472,16,o),
(558,-10,o),
(639,-10,cs)
);
}
);
};
layerId = "1D628CB9-BBF5-410A-9D74-9E6094BFE839";
shapes = (
{
closed = 1;
nodes = (
(805,-10,o),
(945,71,o),
(945,263,cs),
(945,426,o),
(865,491,o),
(725,556,cs),
(592,618,o),
(556,654,o),
(556,709,cs),
(556,824,o),
(661,865,o),
(847,900,c),
(847,1211,o),
(769,1369,o),
(498,1369,cs),
(272,1369,o),
(150,1233,o),
(150,990,cs),
(150,1,l),
(278,1,l),
(278,978,ls),
(278,1167,o),
(349,1267,o),
(494,1267,cs),
(666,1267,o),
(722,1181,o),
(722,970,c),
(573,937,o),
(428,878,o),
(428,709,cs),
(428,586,o),
(502,527,o),
(661,455,cs),
(798,393,o),
(817,342,o),
(817,262,cs),
(817,143,o),
(733,95,o),
(628,95,cs),
(566,95,o),
(497,119,o),
(435,159,c),
(397,69,l),
(472,17,o),
(558,-10,o),
(639,-10,cs)
);
}
);
width = 1025;
},
{
background = {
shapes = (
{
closed = 1;
nodes = (
(1125,-40,o),
(1270,116,o),
(1270,299,cs),
(1270,451,o),
(1207,521,o),
(1068,598,cs),
(948,664,o),
(924,677,o),
(924,718,cs),
(924,759,o),
(1027,793,o),
(1177,822,c),
(1177,1118,o),
(1049,1331,o),
(628,1331,cs),
(237,1331,o),
(115,1092,o),
(115,832,cs),
(115,0,l),
(443,0,l),
(443,811,ls),
(443,965,o),
(508,1046,o),
(668,1046,cs),
(725,1046,o),
(830,1020,o),
(830,942,c),
(731,916,o),
(578,854,o),
(578,704,cs),
(578,570,o),
(662,519,o),
(749,475,cs),
(856,421,o),
(942,402,o),
(942,329,cs),
(942,270,o),
(903,245,o),
(798,245,cs),
(736,245,o),
(659,261,o),
(597,290,c),
(517,26,l),
(592,-9,o),
(718,-40,o),
(859,-40,cs)
);
}
);
};
guides = (
{
angle = 270;
pos = (176,201);
}
);
layerId = "D42B5605-DB46-4B3B-8EA0-4CE7066523CE";
shapes = (
{
closed = 1;
nodes = (
(1063,-15,o),
(1230,125,o),
(1230,328,cs),
(1230,471,o),
(1179,546,o),
(1028,631,cs),
(893,707,o),
(884,718,o),
(884,752,cs),
(884,817,o),
(982,858,o),
(1137,858,c),
(1157,1185,o),
(958,1373,o),
(628,1373,cs),
(299,1373,o),
(115,1192,o),
(115,888,cs),
(115,25,l),
(443,25,l),
(443,867,ls),
(443,1035,o),
(514,1103,o),
(658,1103,cs),
(757,1103,o),
(810,1053,o),
(830,979,c),
(630,937,o),
(538,845,o),
(538,728,cs),
(538,613,o),
(585,546,o),
(709,483,cs),
(870,402,o),
(902,383,o),
(902,335,cs),
(902,272,o),
(859,245,o),
(758,245,cs),
(700,245,o),
(623,264,o),
(557,295,c),
(487,52,l),
(572,11,o),
(701,-15,o),
(819,-15,cs)
);
}
);
width = 1275;
}
);
metricLeft = h;
unicode = 223;
},
{
color = 4;
glyphname = t;
kernLeft = t;
kernRight = t;
layers = (
{
anchors = (
{
name = bottom;
pos = (408,0);
},
{
name = cedilla;
pos = (395,0);
},
{
name = top;
pos = (231,1265);
},
{
name = topright;
pos = (431,1428);
}
);
background = {
anchors = (
{
name = bottom;
pos = (408,0);
},
{
name = cedilla;
pos = (395,0);
},
{
name = top;
pos = (250,1267);
},
{
name = topright;
pos = (431,1428);
}
);
shapes = (
{
closed = 1;
nodes = (
(491,-10,o),
(555,-8,o),
(619,0,c),
(604,100,l),
(577,98,o),
(526,95,o),
(464,95,cs),
(358,95,o),
(295,123,o),
(295,346,cs),
(295,934,l),
(250,885,l),
(603,885,l),
(603,985,l),
(250,985,l),
(295,940,l),
(295,1267,l),
(196,1267,l),
(167,940,l),
(216,985,l),
(14,985,l),
(14,885,l),
(212,885,l),
(167,934,l),
(167,348,ls),
(167,119,o),
(216,-4,o),
(430,-10,c)
);
}
);
};
guides = (
{
angle = 270;
pos = (603,680);
},
{
pos = (113,1267);
}
);
layerId = "1D628CB9-BBF5-410A-9D74-9E6094BFE839";
shapes = (
{
closed = 1;
nodes = (
(494,-10,o),
(557,-2,o),
(619,14,c),
(604,114,l),
(565,102,o),
(512,95,o),
(464,95,cs),
(337,95,o),
(295,152,o),
(295,326,cs),
(295,934,l),
(250,885,l),
(603,885,l),
(603,985,l),
(250,985,l),
(295,940,l),
(295,1265,l),
(196,1265,l),
(167,940,l),
(216,985,l),
(14,985,l),
(14,885,l),
(212,885,l),
(167,934,l),
(167,328,ls),
(167,91,o),
(257,-10,o),
(440,-10,cs)
);
}
);
width = 642;
},
{
anchors = (
{
name = bottom;
pos = (469,0);
},
{
name = cedilla;
pos = (524,0);
},
{
name = top;
pos = (354,1284);
},
{
name = topright;
pos = (576,1639);
}
);
background = {
anchors = (
{
name = bottom;
pos = (481,-50);
},
{
name = cedilla;
pos = (524,0);
},
{
name = top;
pos = (379,1331);
},
{
name = topright;
pos = (566,1709);
}
);
shapes = (
{
closed = 1;
nodes = (
(665,-10,o),
(773,7,o),
(849,24,c),
(815,293,l),
(768,286,o),
(678,275,o),
(648,275,cs),
(556,275,o),
(518,296,o),
(518,406,cs),
(518,834,l),
(373,690,l),
(817,690,l),
(817,985,l),
(373,985,l),
(518,840,l),
(518,1282,l),
(239,1282,l),
(190,840,l),
(339,985,l),
(7,985,l),
(7,690,l),
(335,690,l),
(190,834,l),
(190,406,ls),
(190,213,o),
(240,-10,o),
(574,-10,cs)
);
}
);
};
guides = (
{
angle = 270;
pos = (827,541);
}
);
layerId = "D42B5605-DB46-4B3B-8EA0-4CE7066523CE";
shapes = (
{
closed = 1;
nodes = (
(658,-10,o),
(760,12,o),
(835,39,c),
(798,308,l),
(753,291,o),
(671,275,o),
(642,275,cs),
(554,275,o),
(518,316,o),
(518,436,cs),
(518,864,l),
(373,735,l),
(804,735,l),
(804,1015,l),
(373,1015,l),
(518,870,l),
(518,1285,l),
(239,1285,l),
(190,870,l),
(339,1015,l),
(7,1015,l),
(7,735,l),
(335,735,l),
(190,864,l),
(190,426,ls),
(190,149,o),
(316,-10,o),
(568,-10,cs)
);
}
);
width = 895;
}
);
unicode = 116;
},
{
color = 4;
glyphname = tbar;
kernLeft = t;
kernRight = t;
layers = (
{
background = {
shapes = (
{
closed = 1;
nodes = (
(504,-10,o),
(567,-2,o),
(629,14,c),
(614,114,l),
(575,102,o),
(522,95,o),
(474,95,cs),
(347,95,o),
(305,152,o),
(305,326,cs),
(305,934,l),
(260,885,l),
(613,885,l),
(613,985,l),
(260,985,l),
(305,940,l),
(305,1265,l),
(206,1265,l),
(177,940,l),
(226,985,l),
(24,985,l),
(24,885,l),
(222,885,l),
(177,934,l),
(177,328,ls),
(177,91,o),
(267,-10,o),
(450,-10,cs)
);
},
{
closed = 1;
nodes = (
(570,515,l),
(570,615,l),
(47,615,l),
(47,515,l)
);
}
);
};
layerId = "1D628CB9-BBF5-410A-9D74-9E6094BFE839";
shapes = (
{
closed = 1;
nodes = (
(504,-10,o),
(567,-2,o),
(629,14,c),
(614,114,l),
(575,102,o),
(522,95,o),
(474,95,cs),
(347,95,o),
(305,152,o),
(305,326,cs),
(305,560,l),
(260,515,l),
(570,515,l),
(570,615,l),
(305,615,l),
(305,885,l),
(613,885,l),
(613,985,l),
(305,985,l),
(305,1265,l),
(206,1265,l),
(181,985,l),
(24,985,l),
(24,885,l),
(177,885,l),
(177,615,l),
(47,615,l),
(47,515,l),
(222,515,l),
(177,560,l),
(177,328,ls),
(177,91,o),
(267,-10,o),
(450,-10,cs)
);
}
);
width = 662;
},
{
background = {
shapes = (
{
closed = 1;
nodes = (
(668,-10,o),
(770,12,o),
(845,39,c),
(808,308,l),
(763,291,o),
(681,275,o),
(652,275,cs),
(564,275,o),
(528,316,o),
(528,436,cs),
(528,864,l),
(383,735,l),
(814,735,l),
(814,1015,l),
(383,1015,l),
(528,870,l),
(528,1285,l),
(249,1285,l),
(200,870,l),
(349,1015,l),
(17,1015,l),
(17,735,l),
(345,735,l),
(200,864,l),
(200,426,ls),
(200,149,o),
(326,-10,o),
(578,-10,cs)
);
},
{
closed = 1;
nodes = (
(742,433,l),
(742,593,l),
(52,593,l),
(52,433,l)
);
}
);
};
layerId = "D42B5605-DB46-4B3B-8EA0-4CE7066523CE";
shapes = (
{
closed = 1;
nodes = (
(668,-10,o),
(770,12,o),
(845,39,c),
(808,308,l),
(763,291,o),
(681,275,o),
(652,275,cs),
(564,275,o),
(528,316,o),
(528,436,cs),
(528,483,l),
(483,433,l),
(742,433,l),
(742,593,l),
(528,593,l),
(528,735,l),
(814,735,l),
(814,1015,l),
(528,1015,l),
(528,1285,l),
(249,1285,l),
(217,1015,l),
(17,1015,l),
(17,735,l),
(200,735,l),
(200,593,l),
(52,593,l),
(52,433,l),
(245,433,l),
(200,478,l),
(200,426,ls),
(200,149,o),
(326,-10,o),
(578,-10,cs)
);
}
);
width = 915;
}
);
metricLeft = "=t+10";
metricRight = "=t+10";
unicode = 359;
},
{
color = 4;
glyphname = u;
kernLeft = u;
kernRight = StraightLOWER;
layers = (
{
anchors = (
{
name = bottom;
pos = (491,0);
},
{
name = ogonek;
pos = (846,0);
},
{
name = top;
pos = (491,985);
},
{
name = topright;
pos = (746,985);
}
);
background = {
anchors = (
{
name = bottom;
pos = (500,0);
},
{
name = ogonek;
pos = (802,0);
},
{
name = top;
pos = (500,985);
},
{
name = topright;
pos = (857,664);
}
);
shapes = (
{
closed = 1;
nodes = (
(526,-10,o),
(603,0,o),
(738,64,c),
(756,0,l),
(852,0,l),
(852,985,l),
(724,985,l),
(724,118,l),
(762,185,l),
(622,97,o),
(524,95,o),
(442,95,cs),
(306,95,o),
(263,159,o),
(263,316,cs),
(263,985,l),
(135,985,l),
(135,321,ls),
(135,93,o),
(226,-10,o),
(429,-10,cs)
);
}
);
};
layerId = "1D628CB9-BBF5-410A-9D74-9E6094BFE839";
shapes = (
{
closed = 1;
nodes = (
(525,-15,o),
(598,0,o),
(732,64,c),
(750,0,l),
(846,0,l),
(846,985,l),
(718,985,l),
(718,118,l),
(755,185,l),
(619,98,o),
(517,90,o),
(437,90,cs),
(309,90,o),
(263,158,o),
(263,317,cs),
(263,985,l),
(135,985,l),
(135,322,ls),
(135,94,o),
(228,-15,o),
(429,-15,cs)
);
}
);
width = 996;
},
{
anchors = (
{
name = bottom;
pos = (566,0);
},
{
name = ogonek;
pos = (1031,0);
},
{
name = top;
pos = (566,1015);
},
{
name = topright;
pos = (831,1015);
}
);
background = {
anchors = (
{
name = bottom;
pos = (560,-50);
},
{
name = ogonek;
pos = (907,0);
},
{
name = top;
pos = (569,1055);
},
{
name = topright;
pos = (1113,574);
}
);
shapes = (
{
closed = 1;
nodes = (
(509,-40,o),
(603,-20,o),
(714,44,c),
(742,0,l),
(1028,0,l),
(1028,985,l),
(700,985,l),
(700,120,l),
(837,380,l),
(686,264,o),
(612,245,o),
(538,245,cs),
(454,245,o),
(419,277,o),
(419,427,cs),
(419,985,l),
(91,985,l),
(91,297,ls),
(91,64,o),
(238,-40,o),
(412,-40,cs)
);
}
);
};
layerId = "D42B5605-DB46-4B3B-8EA0-4CE7066523CE";
shapes = (
{
closed = 1;
nodes = (
(534,-15,o),
(607,7,o),
(717,64,c),
(745,0,l),
(1031,0,l),
(1031,1015,l),
(703,1015,l),
(703,150,l),
(755,357,l),
(710,314,o),
(627,270,o),
(545,270,cs),
(453,270,o),
(428,309,o),
(428,432,cs),
(428,1015,l),
(100,1015,l),
(100,352,ls),
(100,99,o),
(255,-15,o),
(428,-15,cs)
);
}
);
width = 1146;
}
);
metricLeft = "=|n";
metricRight = "=|n";
unicode = 117;
},
{
color = 6;
glyphname = uhorn;
kernLeft = u;
kernRight = hornLOWERu;
layers = (
{
background = {
anchors = (
{
name = _topright;
pos = (854,664);
},
{
name = bottom;
pos = (497,0);
},
{
name = ogonek;
pos = (799,0);
},
{
name = top;
pos = (497,985);
},
{
name = topright;
pos = (854,664);
}
);
shapes = (
{
ref = u;
},
{
pos = (819,-321);
ref = horncomb;
}
);
};
layerId = "1D628CB9-BBF5-410A-9D74-9E6094BFE839";
shapes = (
{
ref = u;
},
{
pos = (396,0);
ref = horncomb;
}
);
width = 996;
},
{
anchors = (
{
name = _topright;
pos = (850,664);
},
{
name = bottom;
pos = (493,0);
},
{
name = ogonek;
pos = (795,0);
},
{
name = top;
pos = (493,985);
},
{
name = topright;
pos = (850,664);
}
);
associatedMasterId = "1D628CB9-BBF5-410A-9D74-9E6094BFE839";
layerId = "20967BB6-E54A-4AF0-99B3-39F9609A1E13";
name = "Regular Jul 25 16, 11:48";
shapes = (
{
closed = 1;
nodes = (
(519,-10,o),
(596,0,o),
(731,64,c),
(740,0,l),
(845,0,l),
(845,985,l),
(717,985,l),
(717,163,l),
(597,97,o),
(509,96,o),
(435,96,cs),
(299,96,o),
(256,159,o),
(256,316,cs),
(256,985,l),
(128,985,l),
(128,321,ls),
(128,93,o),
(219,-10,o),
(422,-10,cs)
);
},
{
closed = 1;
nodes = (
(860,756,ls),
(982,797,o),
(1088,856,o),
(1088,981,cs),
(1088,1021,o),
(1081,1053,o),
(1071,1079,c),
(939,1079,l),
(952,1051,o),
(960,1020,o),
(960,989,cs),
(960,913,o),
(921,870,o),
(850,839,cs),
(815,824,l),
(815,741,l)
);
}
);
width = 986;
},
{
background = {
anchors = (
{
name = _topright;
pos = (1054,664);
},
{
name = bottom;
pos = (537,-46);
},
{
name = ogonek;
pos = (899,0);
},
{
name = top;
pos = (557,1075);
},
{
name = topright;
pos = (1054,664);
}
);
shapes = (
{
ref = u;
},
{
pos = (936,-411);
ref = horncomb;
}
);
};
layerId = "D42B5605-DB46-4B3B-8EA0-4CE7066523CE";
shapes = (
{
ref = u;
},
{
pos = (481,0);
ref = horncomb;
}
);
width = 1146;
}
);
unicode = 432;
userData = {
com.schriftgestaltung.Glyphs.ColorIndex = 7;
};
},
{
color = 4;
glyphname = v;
kernLeft = v;
kernRight = v;
layers = (
{
anchors = (
{
name = bottom;
pos = (438,0);
},
{
name = top;
pos = (438,985);
}
);
background = {
anchors = (
{
name = bottom;
pos = (438,0);
},
{
name = top;
pos = (438,985);
}
);
shapes = (
{
closed = 1;
nodes = (
(513,0,l),
(824,971,l),
(700,991,l),
(432,94,l),
(459,94,l),
(175,991,l),
(52,971,l),
(376,0,l)
);
}
);
};
guides = (
{
angle = 9.6052;
pos = (257,1004);
},
{
pos = (326,971);
},
{
pos = (326,991);
}
);
layerId = "1D628CB9-BBF5-410A-9D74-9E6094BFE839";
shapes = (
{
closed = 1;
nodes = (
(513,0,l),
(824,971,l),
(700,991,l),
(427,94,l),
(464,94,l),
(175,991,l),
(52,971,l),
(376,0,l)
);
}
);
width = 882;
},
{
anchors = (
{
name = bottom;
pos = (532,0);
},
{
name = top;
pos = (530,1015);
}
);
background = {
anchors = (
{
name = bottom;
pos = (530,0);
},
{
name = top;
pos = (530,985);
}
);
shapes = (
{
closed = 1;
nodes = (
(699,0,l),
(1032,950,l),
(723,999,l),
(501,225,l),
(571,225,l),
(330,999,l),
(16,950,l),
(362,0,l)
);
}
);
};
guides = (
{
angle = 188.9224;
pos = (163,973);
},
{
angle = 171.0776;
pos = (863,977);
},
{
pos = (415,999);
}
);
layerId = "D42B5605-DB46-4B3B-8EA0-4CE7066523CE";
shapes = (
{
closed = 1;
nodes = (
(710,0,l),
(1042,990,l),
(723,1039,l),
(471,205,l),
(601,205,l),
(330,1039,l),
(6,990,l),
(353,0,l)
);
}
);
width = 1055;
}
);
unicode = 118;
},
{
color = 4;
glyphname = w;
kernLeft = v;
kernRight = v;
layers = (
{
anchors = (
{
name = bottom;
pos = (688,0);
},
{
name = top;
pos = (687,985);
}
);
background = {
anchors = (
{
name = bottom;
pos = (679,0);
},
{
name = top;
pos = (679,985);
}
);
shapes = (
{
closed = 1;
nodes = (
(476,0,l),
(701,670,l),
(673,670,l),
(899,0,l),
(1039,0,l),
(1260,971,l),
(1139,991,l),
(951,69,l),
(974,70,l),
(746,763,l),
(628,763,l),
(397,70,l),
(421,69,l),
(218,992,l),
(98,971,l),
(334,0,l)
);
}
);
};
guides = (
{
angle = 9.6052;
pos = (291,1004);
},
{
pos = (360,971);
},
{
pos = (360,991);
},
{
angle = 170.3948;
pos = (1064,1004);
}
);
layerId = "1D628CB9-BBF5-410A-9D74-9E6094BFE839";
shapes = (
{
closed = 1;
nodes = (
(481,0,l),
(706,674,l),
(668,674,l),
(894,0,l),
(1044,0,l),
(1265,971,l),
(1139,991,l),
(948,69,l),
(985,70,l),
(751,763,l),
(623,763,l),
(389,70,l),
(424,69,l),
(218,992,l),
(93,971,l),
(329,0,l)
);
}
);
width = 1365;
},
{
anchors = (
{
name = bottom;
pos = (755,0);
},
{
name = top;
pos = (755,1005);
}
);
background = {
anchors = (
{
name = bottom;
pos = (765,0);
},
{
name = top;
pos = (765,1005);
}
);
shapes = (
{
closed = 1;
nodes = (
(562,0,l),
(792,598,l),
(718,598,l),
(948,0,l),
(1200,0,l),
(1430,948,l),
(1129,995,l),
(983,269,l),
(1100,270,l),
(884,873,l),
(626,873,l),
(423,270,l),
(527,269,l),
(382,995,l),
(82,948,l),
(310,0,l)
);
}
);
};
guides = (
{
pos = (1446,353);
},
{
angle = 270;
pos = (755,51);
}
);
layerId = "D42B5605-DB46-4B3B-8EA0-4CE7066523CE";
shapes = (
{
closed = 1;
nodes = (
(572,0,l),
(792,618,l),
(718,618,l),
(938,0,l),
(1205,0,l),
(1465,992,l),
(1159,1039,l),
(983,269,l),
(1100,270,l),
(884,863,l),
(626,863,l),
(423,270,l),
(527,269,l),
(352,1039,l),
(47,992,l),
(305,0,l)
);
}
);
width = 1511;
}
);
unicode = 119;
},
{
color = 3;
glyphname = x;
kernLeft = x;
kernRight = x;
layers = (
{
anchors = (
{
name = bottom;
pos = (430,0);
},
{
name = top;
pos = (421,985);
}
);
background = {
anchors = (
{
name = bottom;
pos = (426,0);
},
{
name = top;
pos = (426,985);
}
);
shapes = (
{
closed = 1;
nodes = (
(188,-6,l),
(454,462,l),
(410,462,l),
(672,-6,l),
(789,14,l),
(490,542,l),
(490,464,l),
(770,971,l),
(647,991,l),
(410,539,l),
(453,540,l),
(195,992,l),
(75,971,l),
(375,465,l),
(375,543,l),
(64,14,l)
);
}
);
};
guides = (
{
angle = 9.6052;
pos = (265,1004);
},
{
pos = (334,971);
},
{
pos = (334,991);
},
{
angle = -9.6052;
pos = (261,-19);
},
{
pos = (330,14);
},
{
pos = (330,-6);
}
);
layerId = "1D628CB9-BBF5-410A-9D74-9E6094BFE839";
shapes = (
{
closed = 1;
nodes = (
(188,-6,l),
(454,462,l),
(410,462,l),
(672,-6,l),
(789,14,l),
(490,542,l),
(490,464,l),
(770,971,l),
(647,991,l),
(410,539,l),
(453,540,l),
(195,992,l),
(75,971,l),
(375,465,l),
(375,543,l),
(64,14,l)
);
}
);
width = 853;
},
{
anchors = (
{
name = bottom;
pos = (523,0);
},
{
name = top;
pos = (513,1015);
}
);
background = {
anchors = (
{
name = bottom;
pos = (603,0);
},
{
name = top;
pos = (603,985);
}
);
shapes = (
{
closed = 1;
nodes = (
(335,-26,l),
(563,353,l),
(485,353,l),
(710,-26,l),
(1021,25,l),
(705,533,l),
(705,453,l),
(1006,959,l),
(692,1008,l),
(485,628,l),
(562,629,l),
(334,1008,l),
(24,960,l),
(344,454,l),
(344,534,l),
(15,25,l)
);
}
);
};
guides = (
{
angle = 188.9224;
pos = (172,973);
},
{
angle = -8.9224;
pos = (853,973);
},
{
angle = 171.0776;
pos = (172,20);
},
{
angle = 8.9224;
pos = (853,20);
}
);
layerId = "D42B5605-DB46-4B3B-8EA0-4CE7066523CE";
shapes = (
{
closed = 1;
nodes = (
(335,-17,l),
(563,367,l),
(485,367,l),
(710,-17,l),
(1021,34,l),
(705,549,l),
(705,468,l),
(1006,980,l),
(692,1030,l),
(485,645,l),
(562,646,l),
(334,1030,l),
(24,981,l),
(344,469,l),
(344,550,l),
(15,34,l)
);
}
);
width = 1036;
}
);
unicode = 120;
},
{
color = 4;
glyphname = y;
kernLeft = v;
kernRight = v;
layers = (
{
anchors = (
{
name = bottom;
pos = (651,0);
},
{
name = top;
pos = (438,985);
}
);
background = {
anchors = (
{
name = bottom;
pos = (599,0);
},
{
name = top;
pos = (369,985);
}
);
shapes = (
{
closed = 1;
nodes = (
(1419,-390,o),
(1473,-254,o),
(1555,-16,cs),
(1896,971,l),
(1767,991,l),
(1486,123,l),
(1517,126,l),
(1174,991,l),
(1045,971,l),
(1444,26,l),
(1417,-55,ls),
(1379,-169,o),
(1354,-279,o),
(1263,-279,cs),
(1233,-279,o),
(1188,-270,o),
(1128,-252,c),
(1107,-355,l),
(1167,-378,o),
(1221,-390,o),
(1272,-390,cs)
);
},
{
closed = 1;
nodes = (
(461,0,l),
(772,971,l),
(648,991,l),
(375,94,l),
(412,94,l),
(123,991,l),
(0,971,l),
(324,0,l)
);
}
);
};
guides = (
{
angle = 9.6052;
pos = (230,1004);
},
{
pos = (299,971);
},
{
pos = (299,991);
},
{
angle = 72.2885;
pos = (382,-18);
}
);
layerId = "1D628CB9-BBF5-410A-9D74-9E6094BFE839";
shapes = (
{
closed = 1;
nodes = (
(368,-405,o),
(415,-307,o),
(469,-139,cs),
(824,971,l),
(700,991,l),
(427,94,l),
(464,94,l),
(175,991,l),
(52,971,l),
(396,-61,l),
(396,25,l),
(336,-160,ls),
(305,-255,o),
(273,-294,o),
(212,-294,cs),
(182,-294,o),
(137,-288,o),
(85,-265,c),
(56,-370,l),
(116,-393,o),
(170,-405,o),
(221,-405,cs)
);
}
);
width = 882;
},
{
anchors = (
{
name = bottom;
pos = (842,0);
},
{
name = top;
pos = (527,1015);
}
);
background = {
anchors = (
{
name = bottom;
pos = (918,50);
},
{
name = top;
pos = (528,1055);
}
);
shapes = (
{
closed = 1;
nodes = (
(709,0,l),
(1041,990,l),
(722,1039,l),
(470,205,l),
(600,205,l),
(329,1039,l),
(5,990,l),
(352,0,l)
);
}
);
};
guides = (
{
pos = (-2411,1053);
},
{
angle = 71.2866;
pos = (381,-8);
}
);
layerId = "D42B5605-DB46-4B3B-8EA0-4CE7066523CE";
shapes = (
{
closed = 1;
nodes = (
(552,-410,o),
(615,-271,o),
(708,4,cs),
(1042,990,l),
(723,1039,l),
(493,202,l),
(610,202,l),
(330,1039,l),
(6,990,l),
(410,-18,l),
(406,66,l),
(381,-8,ls),
(354,-88,o),
(329,-125,o),
(258,-125,cs),
(228,-125,o),
(183,-116,o),
(143,-101,c),
(62,-349,l),
(122,-389,o),
(232,-410,o),
(283,-410,cs)
);
}
);
width = 1055;
}
);
metricRight = v;
metricWidth = v;
unicode = 121;
},
{
color = 4;
glyphname = z;
kernLeft = z;
kernRight = z;
layers = (
{
anchors = (
{
name = bottom;
pos = (395,0);
},
{
name = top;
pos = (419,985);
}
);
background = {
anchors = (
{
name = bottom;
pos = (395,0);
},
{
name = top;
pos = (409,985);
}
);
shapes = (
{
closed = 1;
nodes = (
(700,0,l),
(700,100,l),
(190,100,l),
(209,51,l),
(685,900,l),
(675,985,l),
(115,985,l),
(115,885,l),
(591,885,l),
(572,934,l),
(94,96,l),
(108,0,l)
);
}
);
};
guides = (
{
angle = 90;
pos = (115,940);
},
{
angle = 270;
pos = (700,45);
},
{
angle = 98.2971;
pos = (59,339);
}
);
layerId = "1D628CB9-BBF5-410A-9D74-9E6094BFE839";
shapes = (
{
closed = 1;
nodes = (
(700,0,l),
(700,100,l),
(190,100,l),
(209,51,l),
(685,900,l),
(675,985,l),
(115,985,l),
(115,885,l),
(591,885,l),
(572,934,l),
(94,96,l),
(108,0,l)
);
}
);
width = 775;
},
{
anchors = (
{
name = bottom;
pos = (480,0);
},
{
name = top;
pos = (487,1015);
}
);
background = {
anchors = (
{
name = bottom;
pos = (480,-50);
},
{
name = top;
pos = (487,1035);
}
);
shapes = (
{
closed = 1;
nodes = (
(883,0,l),
(883,285,l),
(268,285,l),
(346,147,l),
(859,740,l),
(836,985,l),
(73,985,l),
(73,700,l),
(639,700,l),
(577,855,l),
(53,245,l),
(76,0,l)
);
}
);
};
guides = (
{
angle = -85.8095;
pos = (830,890);
},
{
angle = 180;
pos = (356,700);
},
{
pos = (568,285);
},
{
angle = 270;
pos = (883,143);
},
{
angle = 90;
pos = (73,843);
},
{
angle = -83.9217;
pos = (828,1057);
},
{
angle = -83.9217;
pos = (26,470);
}
);
layerId = "D42B5605-DB46-4B3B-8EA0-4CE7066523CE";
shapes = (
{
closed = 1;
nodes = (
(873,0,l),
(873,270,l),
(273,270,l),
(349,151,l),
(850,763,l),
(827,1015,l),
(82,1015,l),
(82,745,l),
(635,745,l),
(574,881,l),
(63,252,l),
(85,0,l)
);
}
);
width = 922;
}
);
unicode = 122;
},
